<svg xmlns="http://www.w3.org/2000/svg" width="100.0px" height="100px" viewBox="0 0 1200 1200" version="1.1">
<path fill="#000000" stroke="#000000" stroke-width="0.09375" opacity="1.00" d=" M 536.1 0.0 L 539.1 0.0 C 540.1 1.8 540.8 3.8 540.9 5.9 C 541.8 17.9 543.8 29.9 543.3 42.0 C 543.2 46.4 544.1 50.7 544.1 55.0 C 543.3 66.3 544.0 77.7 543.3 89.0 C 543.4 103.7 543.4 118.3 543.3 133.0 C 543.3 141.8 543.5 150.6 542.5 159.3 C 541.9 168.0 542.7 176.8 541.7 185.5 C 540.9 191.8 542.8 198.1 541.6 204.5 C 540.5 211.0 541.9 217.5 542.9 223.9 C 543.7 227.5 544.2 231.4 546.6 234.3 C 549.0 235.8 552.1 234.3 554.5 233.4 C 558.8 230.6 559.9 224.9 560.0 220.0 C 560.5 199.7 561.3 179.3 561.4 158.9 C 562.4 146.3 561.7 133.7 562.8 121.0 C 563.4 99.6 564.8 78.3 565.4 56.9 C 566.5 37.9 566.0 18.3 572.0 0.0 L 576.7 0.0 C 577.5 6.8 579.6 13.3 580.6 20.0 C 580.4 32.0 581.7 43.9 581.6 55.9 C 582.2 64.1 582.9 72.3 582.7 80.5 C 583.4 85.1 582.0 89.7 582.7 94.3 C 583.0 97.6 582.5 100.9 582.9 104.2 C 584.1 114.7 582.4 125.4 584.0 136.0 C 584.7 140.1 583.3 144.1 583.9 148.2 C 585.1 158.5 583.5 168.9 584.8 179.2 C 586.2 190.1 584.4 201.2 586.1 212.0 C 586.9 218.2 586.5 224.5 588.5 230.4 C 589.8 235.6 598.7 237.3 601.0 232.0 C 604.0 226.9 603.4 220.7 603.7 215.0 C 603.7 177.0 603.6 139.0 603.7 101.0 C 604.3 85.7 603.7 70.3 604.3 55.0 C 604.6 36.6 603.7 17.6 610.1 0.0 L 615.8 0.0 C 618.1 7.7 618.2 15.8 619.6 23.7 C 620.6 32.4 621.8 41.2 622.4 50.0 C 622.2 59.9 622.3 69.8 622.5 79.7 C 623.5 88.1 623.0 96.6 624.1 105.0 C 623.8 113.0 625.7 121.0 625.3 129.0 C 625.1 135.4 626.7 141.6 626.4 148.0 C 625.9 156.0 626.7 164.0 627.2 172.0 C 626.9 180.4 628.6 188.6 628.3 197.0 C 628.1 203.0 629.5 209.0 629.3 215.0 C 629.2 220.7 629.3 226.8 632.1 232.0 C 634.9 236.8 644.1 238.3 646.4 232.3 C 648.8 227.2 647.8 221.3 647.5 215.9 C 647.1 205.2 647.1 194.6 646.9 184.0 C 645.7 166.3 646.5 148.7 645.4 131.1 C 644.7 108.1 645.2 85.0 644.8 62.0 C 644.6 49.3 644.7 36.7 644.6 24.0 C 644.8 17.1 644.7 10.1 646.3 3.4 C 646.6 1.8 648.0 1.0 649.2 0.0 L 651.0 0.0 C 654.7 3.6 655.1 9.0 656.4 13.7 C 658.1 20.2 658.2 26.9 658.7 33.6 C 661.8 48.4 662.9 63.5 665.7 78.4 C 672.2 119.8 680.6 160.8 687.0 202.2 C 690.0 219.6 691.5 237.2 693.4 254.7 C 695.4 279.1 695.5 304.0 690.3 328.1 C 689.4 332.6 686.5 336.4 685.7 341.0 C 685.0 346.7 680.5 350.9 677.9 355.8 C 672.0 363.6 667.1 372.2 660.1 379.0 C 655.7 383.1 652.1 388.0 647.2 391.5 C 643.2 394.3 640.1 398.2 636.5 401.4 C 629.9 407.4 625.1 414.9 620.6 422.5 C 616.2 431.2 610.9 439.9 610.1 449.9 C 608.5 488.9 607.9 528.1 609.6 567.2 C 611.8 586.4 611.8 605.8 613.1 625.1 C 614.6 648.4 615.3 671.8 617.6 695.1 C 618.7 713.5 621.7 731.7 623.4 750.0 C 623.9 755.9 625.3 761.6 626.3 767.5 C 628.0 788.7 631.5 809.8 633.3 831.1 C 635.3 844.1 636.6 857.3 638.3 870.4 C 640.3 893.2 642.3 915.9 645.3 938.5 C 646.7 957.3 649.4 976.1 650.5 995.0 C 652.7 1008.6 653.0 1022.3 654.3 1036.0 C 655.2 1052.1 656.5 1068.2 656.8 1084.3 C 657.9 1095.9 656.9 1107.5 657.6 1119.1 C 658.2 1132.5 657.0 1145.9 653.9 1159.0 C 650.7 1172.5 642.9 1185.4 630.9 1192.9 C 625.6 1196.4 619.2 1197.4 613.4 1200.0 L 584.7 1200.0 C 582.8 1198.9 580.9 1197.8 578.7 1197.2 C 572.1 1195.1 566.0 1191.7 560.6 1187.4 C 551.9 1180.2 546.6 1169.9 542.8 1159.5 C 539.9 1145.2 538.7 1130.6 538.7 1116.0 C 538.7 1104.7 538.4 1093.3 539.2 1082.0 C 539.3 1063.9 541.7 1045.9 543.2 1027.9 C 546.0 1000.6 548.3 973.3 551.3 946.1 C 559.8 867.5 566.8 788.7 574.3 710.0 C 575.1 700.3 576.4 690.6 576.4 680.9 C 577.5 662.9 578.1 644.9 579.2 627.0 C 579.2 616.7 580.5 606.4 580.5 596.1 C 581.3 589.0 581.1 581.8 581.7 574.6 C 583.1 566.5 582.5 558.2 582.6 550.0 C 582.7 523.0 582.6 496.0 582.8 469.0 C 582.9 463.9 582.7 458.7 581.4 453.8 C 578.5 439.7 575.3 424.6 565.2 413.8 C 557.5 405.8 550.0 397.7 542.1 389.9 C 519.8 368.9 503.9 341.1 497.7 311.1 C 494.5 296.6 494.0 281.7 494.3 267.0 C 495.8 229.1 502.6 191.8 508.5 154.5 C 512.6 129.2 516.5 103.9 520.6 78.6 C 524.3 54.3 529.0 30.1 533.0 5.9 C 533.2 3.6 534.4 1.5 536.1 0.0 Z"/>
</svg>
