<svg xmlns="http://www.w3.org/2000/svg" xmlns:xlink="http://www.w3.org/1999/xlink" version="1.2" baseProfile="tiny" id="Layer_2" x="0px" y="0px" width="100px" height="100px" viewBox="0 0 100 100" xml:space="preserve">
<g>
	<ellipse cx="63.166" cy="20.434" rx="11.305" ry="15.644"/>
	<polygon points="62.879,67.842 37.314,67.842 40.749,85.586 43.61,85.586 43.61,73.662 62.879,73.566 82.146,73.662 82.146,85.586    85.008,85.586 88.441,67.842  "/>
	<rect x="45.859" y="74.807" width="34.04" height="22.693"/>
	<path d="M43.705,2.5H16.138c-2.529,0-4.58,2.05-4.58,4.579V25.68c0,2.529,2.05,4.579,4.58,4.579h22.503l6.496,3.434l-0.826-3.479   c2.242-0.297,3.974-2.211,3.974-4.534V7.08C48.285,4.55,46.235,2.5,43.705,2.5z M43.228,21.531H16.614V20.1h26.614V21.531z    M43.228,18.574H16.614v-1.431h26.614V18.574z M43.228,15.617H16.614v-1.431h26.614V15.617z M43.228,12.659H16.614v-1.431h26.614   V12.659z"/>
	<path d="M84.532,47.239c-2.861-6.105-9.062-10.588-14.31-12.974c-2.479,5.056-7.345,5.629-7.345,5.629s-4.864-0.573-7.346-5.629   c-5.247,2.386-11.446,6.868-14.309,12.974c-2.86,6.105-1.523,18.505-1.523,18.505h16.942V58.98   c-1.252,1.434-2.381,2.192-2.967,1.851c-0.957-0.556-0.086-3.831,1.938-7.317c2.025-3.488,4.445-5.862,5.4-5.306   c0.869,0.504,0.231,3.256-1.412,6.371v11.165h3.278h3.277V54.579c-1.644-3.115-2.283-5.867-1.414-6.371   c0.957-0.556,3.375,1.818,5.401,5.306c2.024,3.485,2.894,6.762,1.937,7.317c-0.584,0.342-1.715-0.417-2.968-1.851v6.764h16.947   C86.059,65.744,87.393,53.344,84.532,47.239z"/>
</g>
</svg>
