<svg xmlns="http://www.w3.org/2000/svg" xmlns:xlink="http://www.w3.org/1999/xlink" version="1.1" id="Your_Icon" x="0px" y="0px" width="100px" height="100px" viewBox="0 0 100 100" enable-background="new 0 0 100 100" xml:space="preserve">
<path fill="#000000" d="M82.514,8.334c-0.002-0.045-0.006-0.09-0.011-0.134c-0.175-2.819-3.517-4.593-11.099-5.894  c-6.027-1.034-14.012-1.604-22.485-1.604c-8.471,0-16.455,0.57-22.483,1.604C18.853,3.608,15.51,5.381,15.335,8.201  c-0.004,0.044-0.008,0.089-0.009,0.134c-0.002,0.034-0.008,0.065-0.008,0.099c0,0.093,0.013,0.182,0.02,0.272  c0.002,0.015-0.001,0.03,0.002,0.046l0.003,0.028c0.011,0.109,0.025,0.218,0.045,0.323L26.5,91.351  c0.23,7.387,20.137,7.604,22.419,7.604c2.259,0,21.766-0.215,22.4-7.376c0.003-0.013,0.008-0.024,0.01-0.038L82.452,9.103  c0.021-0.106,0.034-0.214,0.043-0.324L82.5,8.751c0.001-0.016,0-0.031,0.001-0.046c0.007-0.09,0.019-0.179,0.019-0.272  C82.52,8.399,82.514,8.368,82.514,8.334z M67.662,83.253c-0.129,0.242-0.217,0.509-0.253,0.791c-1.078,1.17-7.488,3.296-18.49,3.296  c-10.999,0-17.411-2.126-18.489-3.296c-0.034-0.265-0.117-0.514-0.231-0.743l-9.466-70.056c1.543,0.491,3.428,0.926,5.703,1.316  c6.026,1.034,14.013,1.604,22.483,1.604c8.474,0,16.458-0.569,22.485-1.604c2.275-0.391,4.161-0.825,5.703-1.316L67.662,83.253z   M48.919,5.446c14.88,0,24.181,1.67,27.675,2.987c-3.494,1.319-12.795,2.989-27.675,2.989c-14.878,0-24.18-1.67-27.672-2.989  C24.739,7.116,34.041,5.446,48.919,5.446z M31.232,90.962l-0.178-1.324c6.344,2.343,16.269,2.444,17.864,2.444  c1.599,0,11.537-0.102,17.882-2.451l-0.172,1.275c-0.001,0.007,0,0.012-0.001,0.019c0,0.007-0.003,0.014-0.005,0.022  c-1.013,1.156-7.148,3.266-17.704,3.266C38.41,94.213,32.289,92.123,31.232,90.962z"/>
</svg>
