<?xml version="1.0" encoding="utf-8"?>
<!-- Generator: Adobe Illustrator 14.0.0, SVG Export Plug-In . SVG Version: 6.00 Build 43363)  -->
<!DOCTYPE svg PUBLIC "-//W3C//DTD SVG 1.0//EN" "http://www.w3.org/TR/2001/REC-SVG-20010904/DTD/svg10.dtd">
<svg version="1.0" id="Layer_1" xmlns="http://www.w3.org/2000/svg" xmlns:xlink="http://www.w3.org/1999/xlink" x="0px" y="0px"
	 width="67.421px" height="100px" viewBox="0 0 67.421 100" enable-background="new 0 0 67.421 100" xml:space="preserve">
<path d="M41.822,47.021c0,0,3.165,1.945,2.679,3.569c3.082,2.189,6.002,14.196,4.948,16.63c1.226,1.116,1.679,4.179,2.818,7.134
	c1.566,4.042,2.581,7.149,2.454,8.118c2.191,2.108,5.029,7.138,6.409,10.464c1.151,2.772,2.109,5.597,2.271,6.327
	c0.162,0.729-0.569,1.135-0.974,0.162c-0.407-0.974-2.108-6.165-2.108-6.165s-5.191-7.058-6.086-9.49
	c-1.46-0.974-6.246-13.224-6.246-15.738c-0.705-0.745-1.314-4.119-2.221-8.844c-0.745-3.924-2.534-6.792-2.321-7.381
	c-1.3-0.487-2.938-2.628-2.938-2.628S41.743,48.562,41.822,47.021z"/>
<path d="M41.948,43.481c0,0,3.607,0.699,3.688,1.836c3.487,0.568,8.923,7.625,9.247,10.139c2.108,1.461,6.327,11.034,6.247,12.575
	c1.54,1.46,4.46,7.706,4.46,7.706s1.543,4.22,1.786,5.272c0.243,1.055-0.567,1.379-0.893,0.243
	c-0.324-1.136-1.703-5.027-1.703-5.027s-3.001-4.707-4.544-7.546c-1.784-1.136-6.246-10.79-6.651-12.25
	c-2.109-0.811-2.556-3.451-5.029-5.597c-1.217-1.055-3.245-2.596-3.488-3.731c-1.379,0.243-3.084-1.136-3.084-1.136
	S42.089,44.534,41.948,43.481z"/>
<path d="M41.228,40.08c0,0,3.352-0.523,4.246,0.125c3.487-2.188,13.951,2.029,13.951,2.029s3.731-10.708,5.355-12.412
	c-1.298-2.92-2.598-7.706-3.084-9.654c-0.324-2.19-0.812-6.246-0.974-6.976s0.812-0.811,0.974-0.081
	c0.164,0.73,0.974,6.814,0.974,6.814s3.759,9.628,3.489,10.465c-1.218,3.812-4.625,13.386-6.165,13.548
	c-1.542,0.162-12.736-0.407-14.358-1.542c-1.623,0.567-3.738,0.174-3.738,0.174S41.889,41.234,41.228,40.08z"/>
<path d="M40.068,36.881c0,0,1.378-1.461,2.513-1.38c1.949-3.65,14.359-3.731,14.359-3.731s-0.811-4.299,0.812-14.197
	c-2.271-3.569-4.948-7.057-6.407-9.329c-0.22-3.119-0.812-6.653-0.975-7.545c-0.162-0.893,0.73-0.972,0.975,0
	c0.242,0.973,0.892,7.221,0.892,7.221s7.059,8.76,7.059,9.896s-0.487,13.305-0.974,14.521c-0.487,1.217-0.974,1.46-2.434,1.785
	c-1.462,0.324-10.304,3.002-12.171,2.596c-0.486,1.622-2.675,2.515-2.675,2.515S40.27,37.927,40.068,36.881z"/>
<path d="M39.024,33.664l-0.012-2.381c0,0-2.026-2.758-2.434-4.218c-0.404-1.462,0.407-1.866,1.46-0.406
	c1.056,1.46,2.271,3.894,2.354,4.867c0.08,0.973-0.346,4.008-0.569,4.461C39.649,34,39.024,33.664,39.024,33.664z"/>
<path d="M25.599,47.021c0,0-3.164,1.945-2.678,3.569c-3.082,2.189-6.003,14.196-4.949,16.63c-1.227,1.116-1.677,4.179-2.818,7.134
	c-1.567,4.042-2.581,7.149-2.454,8.118c-2.19,2.108-5.029,7.138-6.409,10.464c-1.15,2.772-2.109,5.597-2.271,6.327
	c-0.162,0.729,0.568,1.135,0.973,0.162c0.407-0.974,2.11-6.165,2.11-6.165s5.191-7.058,6.084-9.49
	c1.46-0.974,6.247-13.224,6.247-15.738c0.704-0.745,1.313-4.119,2.221-8.844c0.745-3.924,2.535-6.792,2.322-7.381
	c1.298-0.487,2.936-2.628,2.936-2.628S25.679,48.562,25.599,47.021z"/>
<path d="M25.475,43.481c0,0-3.608,0.699-3.689,1.836c-3.488,0.568-8.924,7.625-9.248,10.139c-2.109,1.461-6.328,11.034-6.247,12.575
	c-1.541,1.46-4.461,7.706-4.461,7.706s-1.541,4.22-1.784,5.272c-0.244,1.055,0.568,1.379,0.892,0.243
	c0.325-1.136,1.704-5.027,1.704-5.027s3.001-4.707,4.543-7.546c1.784-1.136,6.246-10.79,6.652-12.25
	c2.108-0.811,2.555-3.451,5.029-5.597c1.217-1.055,3.245-2.596,3.488-3.731c1.379,0.243,3.083-1.136,3.083-1.136
	S25.331,44.534,25.475,43.481z"/>
<path d="M26.193,40.08c0,0-3.354-0.523-4.246,0.125c-3.488-2.188-13.954,2.029-13.954,2.029S4.263,31.526,2.641,29.823
	c1.298-2.92,2.596-7.706,3.083-9.654c0.325-2.19,0.812-6.246,0.974-6.976c0.161-0.73-0.812-0.811-0.974-0.081
	S4.75,19.925,4.75,19.925s-3.757,9.628-3.488,10.465c1.216,3.812,4.624,13.386,6.165,13.548c1.542,0.162,12.737-0.407,14.359-1.542
	c1.622,0.567,3.737,0.174,3.737,0.174S25.531,41.234,26.193,40.08z"/>
<path d="M27.354,36.881c0,0-1.379-1.461-2.515-1.38c-1.947-3.65-14.358-3.731-14.358-3.731s0.811-4.299-0.812-14.197
	c2.272-3.569,4.949-7.057,6.409-9.329c0.218-3.119,0.811-6.653,0.973-7.545c0.162-0.893-0.73-0.972-0.973,0
	c-0.244,0.973-0.893,7.221-0.893,7.221s-7.057,8.76-7.057,9.896s0.486,13.305,0.973,14.521s0.974,1.46,2.435,1.785
	c1.46,0.324,10.302,3.002,12.168,2.596c0.487,1.622,2.677,2.515,2.677,2.515S27.15,37.927,27.354,36.881z"/>
<path d="M28.396,33.664l0.013-2.381c0,0,2.028-2.758,2.433-4.218c0.406-1.462-0.405-1.866-1.459-0.406
	c-1.055,1.46-2.272,3.894-2.353,4.867c-0.081,0.973,0.344,4.008,0.568,4.461C27.773,34,28.396,33.664,28.396,33.664z"/>
<path d="M26.247,74.197c-5.759-4.139-3.731-14.44-1.865-20.038c1.865-5.597,9.329-5.597,9.329-5.597s7.463,0,9.33,5.597
	c1.864,5.598,3.894,15.899-1.867,20.038c-4.644,3.336-7.382,3.165-7.382,3.165S30.891,77.533,26.247,74.197z"/>
<path d="M33.71,47.751c0,0-1.46-0.081-3.569,0.568c-2.11,0.647-3.792,1.226-3.975-2.92c-0.244-5.517,1.438-5.337,2.596-10.708
	c0.448-2.08,9.449-2.08,9.896,0c1.156,5.372,2.839,5.191,2.597,10.708c-0.184,4.146-1.867,3.568-3.976,2.92
	C35.17,47.67,33.71,47.751,33.71,47.751z"/>
</svg>
