<?xml version="1.0" encoding="utf-8"?>
<!-- Generator: Adobe Illustrator 15.1.0, SVG Export Plug-In . SVG Version: 6.00 Build 0)  -->
<!DOCTYPE svg PUBLIC "-//W3C//DTD SVG 1.1//EN" "http://www.w3.org/Graphics/SVG/1.1/DTD/svg11.dtd">
<svg version="1.1" id="Layer_1" xmlns="http://www.w3.org/2000/svg" xmlns:xlink="http://www.w3.org/1999/xlink" x="0px" y="0px"
	 width="100px" height="71.482px" viewBox="0 0 100 71.482" enable-background="new 0 0 100 71.482" xml:space="preserve">
<circle cx="20.848" cy="22.729" r="3.24"/>
<circle cx="5.952" cy="36.397" r="2.141"/>
<path d="M2.853,39.595c0.754,0,5.046,0,5.776,0c0.025,0,1.607-0.144,1.878-0.168c0.354-1.104,2.625-8.172,3.419-10.646
	c0.047-0.146,0.127-0.253,0.203-0.362c0.056-0.071,0.108-0.146,0.171-0.213c0.609-0.673,1.502-1.159,2.769-1.159h8.098
	c2.7,0,3.779,2.16,3.779,3.78v9.988c0,0.746-0.603,1.349-1.349,1.349c-0.746,0-1.349-0.603-1.349-1.349v-9.448h-1.081v25.105
	c0,1.045-0.846,1.89-1.89,1.89c-1.042,0-1.889-0.845-1.889-1.89V42.164h-1.081v14.309c0,1.045-0.846,1.89-1.89,1.89
	c-1.042,0-1.889-0.845-1.889-1.89V31.367h-0.592c-0.941,2.931-1.883,5.861-2.824,8.791c-0.146,0.455-0.455,0.717-0.808,0.845
	l0.011,0.009l-3.458,0.994c0,2.235,0,14.102,0,15.033c0,0.694-0.566,1.258-1.263,1.258c-0.692,0-1.256-0.563-1.256-1.258
	c0-1.027,0-7.509,0-7.509H5.353c0,0,0,6.481,0,7.509c0,0.694-0.562,1.258-1.256,1.258c-0.694,0-1.263-0.563-1.263-1.258
	c0-1.027,0-14.044,0-14.044H1.866c0,0,0,4.159,0,4.758c0,0.521-0.423,0.942-0.94,0.942C0.41,48.695,0,48.273,0,47.752
	c0-0.515,0-4.64,0-5.413C0,40.824,1.334,39.595,2.853,39.595z"/>
<circle cx="70.98" cy="20.282" r="3.24"/>
<polygon points="28.947,65.928 28.947,58.362 0,58.362 0,62.527 0,63.917 0,71.482 23.393,71.482 25.476,71.482 99.962,71.482 
	99.962,65.928 "/>
<g>
	<path d="M58.907,0c0.092,0,0.186,0.004,0.275,0.004C59.271,0.004,59.364,0,59.456,0H58.907z"/>
	<path d="M99.995,32.856l-4.061-4.062v-0.005h-5.748l-4.07,4.07h-0.038V29.86l-2.62-20.114c-0.709-3.645-3.033-5.098-6.509-6.547
		c-3.444-1.435-11.672-3.142-17.767-3.195c-6.082,0.053-14.31,1.76-17.731,3.195c-3.502,1.449-5.826,2.902-6.549,6.547L32.285,29.86
		v27.751h4.509v4.328c-0.005,5.32,7.755,5.32,7.747,0v-4.328h14.915h0.033h14.332v4.328c0.003,5.32,7.765,5.32,7.748,0v-4.328h4.509
		V38.604h0.038l4.07,4.069v-0.006h5.743v0.006l0.005-0.006L100,38.604v-5.748H99.995z M48.107,5.091h11.349h10.803
		c2.176-0.005,2.176,3.263,0,3.273h-10.77H48.107C45.941,8.354,45.941,5.086,48.107,5.091z M40.686,48.919
		c-2.068-0.01-3.737-1.676-3.745-3.748c0.008-2.043,1.677-3.708,3.745-3.708c2.044,0,3.709,1.665,3.709,3.708
		C44.395,47.244,42.73,48.909,40.686,48.919z M67.266,24.706c-1.621,0-2.614,1.047-2.988,2.349v0.048h-4.233H39.829
		c-1.917,0.017-2.323-1.372-2.146-2.763l1.365-9.755c0.293-1.762,0.896-2.931,3.201-2.948h17.241h16.624
		c2.317,0.017,2.919,1.188,3.199,2.948L80.5,24.34c0.188,1.389-0.216,2.78-2.145,2.763h-0.672v-0.048
		c-0.386-1.371-1.44-2.352-2.954-2.352L67.266,24.706z M77.715,48.919c-2.067-0.01-3.735-1.676-3.747-3.748
		c0.012-2.043,1.68-3.708,3.747-3.708c2.043,0,3.712,1.665,3.71,3.708C81.427,47.244,79.758,48.909,77.715,48.919z"/>
</g>
</svg>
