<svg xmlns:x="http://ns.adobe.com/Extensibility/1.0/" xmlns:i="http://ns.adobe.com/AdobeIllustrator/10.0/" xmlns:graph="http://ns.adobe.com/Graphs/1.0/" xmlns="http://www.w3.org/2000/svg" xmlns:xlink="http://www.w3.org/1999/xlink" version="1.1" x="0px" y="0px" width="100px" height="100px" viewBox="0 0 100 100" enable-background="new 0 0 100 100" xml:space="preserve">
<metadata>
	<sfw xmlns="http://ns.adobe.com/SaveForWeb/1.0/">
		<slices/>
		<sliceSourceBounds height="1780.628" width="870" bottomLeftOrigin="true" x="-192" y="-1744.628"/>
	</sfw>
</metadata>
<g id="Captions">
</g>
<g id="Your_Icon">
	<path fill="#000000" d="M95,35.666l-0.204,0.613c-0.819,9.354-4.367,17.546-10.648,24.575   c-7.101,7.714-15.601,13.178-25.492,16.383c-5.94,1.776-11.986,2.697-18.126,2.764c-7.034,0.071-13.758-1.26-20.172-3.993   C14.483,73.483,9.536,69.798,5.51,64.95L5,64.438l0.204-0.616c0.682-9.419,4.199-17.641,10.542-24.677   c7.034-7.71,15.565-13.136,25.603-16.279c5.799-1.845,11.841-2.795,18.122-2.868c6.963-0.066,13.651,1.229,20.07,3.892   c5.939,2.529,10.954,6.281,15.052,11.263L95,35.666z M25.168,68.841c-0.611-3.754-1.467-7.403-2.556-10.956   c-1.028-3.139-2.224-6.144-3.588-9.012c-5.121,3.824-8.802,8.704-11.057,14.644C13.089,66.93,18.82,68.701,25.168,68.841z    M9.606,54.606c2.388-3.071,5.152-5.8,8.292-8.19c-0.682-1.158-1.328-2.252-1.944-3.277C13.226,46.62,11.104,50.445,9.606,54.606z    M25.89,75.291c-0.07-1.296-0.173-2.523-0.31-3.686c-3.827-0.206-7.544-0.887-11.158-2.049   C17.898,72.015,21.722,73.929,25.89,75.291z M26.705,40.477c2.388-1.434,4.814-2.662,7.273-3.686   c-0.483-0.337-0.962-0.512-1.436-0.512c-0.615-0.066-0.854-0.374-0.718-0.921c0.066-0.477,0.372-0.683,0.922-0.614   c1.023,0.138,2.011,0.583,2.972,1.329c0.408-0.271,0.887-0.512,1.431-0.715c-0.407-0.133-0.783-0.206-1.125-0.206   c-0.479-0.133-0.718-0.438-0.718-0.922c0.067-0.476,0.373-0.68,0.922-0.613c0.952,0.138,1.878,0.512,2.764,1.127   c0.412-0.272,0.851-0.476,1.329-0.615c-0.271-0.066-0.51-0.102-0.713-0.102c-0.483-0.134-0.718-0.441-0.718-0.922   c0.133-0.409,0.407-0.615,0.819-0.615c0.886,0.139,1.772,0.447,2.662,0.921c0.475-0.133,0.922-0.271,1.334-0.407   c-0.275-0.066-0.483-0.104-0.616-0.104c-0.549-0.066-0.788-0.372-0.718-0.921c0.133-0.477,0.443-0.681,0.922-0.614   c0.886,0.138,1.74,0.445,2.56,0.922c0.475-0.133,0.953-0.272,1.436-0.41c-0.274-0.066-0.514-0.133-0.718-0.203   c-0.412,0-0.615-0.272-0.615-0.819c0.066-0.41,0.341-0.616,0.819-0.616c0.957,0.14,1.874,0.483,2.764,1.025   c0.479-0.133,1.023-0.272,1.64-0.409c-0.412-0.206-0.754-0.309-1.028-0.309c-0.474-0.066-0.678-0.339-0.611-0.819   c0.066-0.476,0.342-0.68,0.819-0.613c1.09,0.138,2.113,0.582,3.07,1.331c0.545-0.206,1.16-0.339,1.847-0.41   c-0.482-0.339-1.027-0.542-1.639-0.615c-0.479,0-0.687-0.271-0.616-0.817c0.138-0.409,0.408-0.615,0.82-0.615   c1.293,0.139,2.458,0.687,3.481,1.639c1.979-0.339,3.991-0.613,6.037-0.819c-0.27-1.976-0.372-3.993-0.306-6.042   c-1.227-0.133-2.423-0.169-3.583-0.103c-5.94,0-11.738,0.922-17.404,2.765C35.17,27.544,28.99,30.889,23.533,35.46   C24.623,37.099,25.682,38.773,26.705,40.477z M35.923,68.635c6.348-0.613,12.593-1.873,18.737-3.787   c6.144-1.978,12.044-4.573,17.714-7.782c-2.596-4.368-4.607-8.908-6.042-13.619c-1.228-4.024-2.117-8.018-2.662-11.979   c-1.843,0.137-3.654,0.343-5.427,0.613c-0.07,1.097-0.31,2.119-0.718,3.072c-0.203,0.206-0.407,0.343-0.61,0.409   c-0.209-0.066-0.346-0.066-0.412,0c-0.479-0.27-0.616-0.645-0.412-1.125c0.341-0.615,0.58-1.296,0.718-2.049   c-0.753,0.14-1.471,0.309-2.148,0.512c0.066,1.163-0.142,2.29-0.616,3.38c-0.203,0.204-0.442,0.344-0.718,0.41h-0.306   c-0.478-0.272-0.615-0.645-0.411-1.128c0.411-0.746,0.615-1.565,0.615-2.456c-0.753,0.138-1.436,0.306-2.046,0.512   c0.133,1.3-0.103,2.561-0.718,3.789c-0.208,0.275-0.443,0.408-0.718,0.408h-0.306c-0.407-0.271-0.549-0.645-0.407-1.125   c0.474-0.887,0.678-1.772,0.611-2.662c-0.687,0.137-1.364,0.343-2.047,0.613c0.138,1.296-0.102,2.631-0.718,3.993   c-0.208,0.206-0.412,0.308-0.615,0.308c-0.138,0-0.271-0.031-0.408-0.102c-0.407-0.206-0.549-0.543-0.407-1.025   c0.545-0.884,0.749-1.808,0.611-2.765c-0.274,0.073-0.51,0.14-0.713,0.206c-0.483,0.138-0.926,0.306-1.334,0.512   c0.204,1.3,0,2.631-0.615,3.993c-0.204,0.204-0.447,0.308-0.718,0.308c-0.137,0-0.239-0.03-0.306-0.104   c-0.479-0.204-0.615-0.543-0.412-1.023c0.479-0.886,0.683-1.771,0.616-2.662c-0.753,0.138-1.436,0.379-2.047,0.718   c0.204,1.3-0.035,2.596-0.718,3.889c-0.066,0.14-0.274,0.242-0.61,0.309c-0.209,0-0.346-0.031-0.412-0.103   c-0.412-0.206-0.514-0.542-0.311-1.023c0.341-0.819,0.514-1.67,0.514-2.56c-0.682,0.203-1.328,0.512-1.944,0.921   c0.066,1.163-0.173,2.354-0.718,3.584c-0.137,0.203-0.376,0.308-0.713,0.308c-0.142,0-0.243-0.031-0.311-0.104   c-0.411-0.203-0.514-0.542-0.305-1.022c0.27-0.681,0.442-1.397,0.509-2.151c-2.596,1.097-5.085,2.361-7.473,3.79   c1.905,3.686,3.544,7.576,4.912,11.676C34.386,59.149,35.374,63.857,35.923,68.635z M77.082,64.13   c-1.227-1.565-2.32-3.174-3.277-4.812c-5.869,3.349-11.946,6.011-18.224,7.986c-6.418,2.049-12.903,3.415-19.454,4.096   c0.066,1.845,0.102,3.789,0.102,5.838c1.436,0.138,2.866,0.208,4.301,0.208c5.869-0.07,11.672-0.992,17.404-2.769   C64.896,72.358,71.279,68.841,77.082,64.13z M73.601,24.709c0.066,1.229,0.239,2.494,0.514,3.788   c3.823,0.139,7.642,0.788,11.469,1.946C81.897,27.853,77.902,25.938,73.601,24.709z M92.032,36.587   c-5.324-3.481-11.193-5.289-17.612-5.428c0.545,3.005,1.294,6.011,2.255,9.012c1.156,3.686,2.662,7.304,4.501,10.853   C86.229,47.205,89.844,42.393,92.032,36.587z M90.394,45.495c-2.393,2.938-5.019,5.602-7.885,7.986   c0.545,0.957,1.16,1.944,1.843,2.97C86.876,53.041,88.892,49.387,90.394,45.495z"/>
</g>
</svg>
