<svg xmlns="http://www.w3.org/2000/svg" xmlns:xlink="http://www.w3.org/1999/xlink" version="1.1" id="Layer_1" x="0px" y="0px" width="100px" height="100px" viewBox="0 0 100 100" enable-background="new 0 0 100 100" xml:space="preserve">
<path fill="#000000" d="M37.428,69.66c1.248-1.1,4.812-1.129,6.06-1.694c1.13-0.513,3.862-2.198,5.584-2.317  c1.724-0.119,7.13-2.02,8.021-2.197c0.892-0.178,1.544-0.893,2.556-0.893c1.011,0,3.443-0.595,5.229-0.595  c1.781,0,1.544,0.418,1.841,0.953c0.298,0.533,0.831,0.949,0.894,1.661c0.06,0.714-0.654,0.061,0.06,1.426  c0.711,1.368,0.892,1.546,0.237,2.495c-0.655,0.952,0,0.714,0.474,1.161c0.478,0.443-0.594,0.503-0.594,0.503v0.713  c0,0,0,0-1.188-0.06c-1.188-0.059-3.861-0.297-3.861-0.297l-1.129-0.356l-0.892,0.469c-1.96-0.305-7.368,0.483-7.368,0.483  s-1.365,0.475,0,0.295c1.367-0.178,3.924,0.357,3.924,0.357c0.83,0.83,3.802,0.06,3.802,0.06c0.713,1.128,3.683,0.06,3.683,0.06  c0.297,0.653,1.723,0.834,1.723,0.834s0,0.533-0.176,2.672c-0.18,2.14-1.367,5.764-1.605,7.309  c-0.236,1.545-0.059,2.494,0.299,3.387c0.355,0.893,0.477,3.089,0.477,3.089c-1.013-1.188-5.053-10.753-5.053-10.753  c0.119,1.248,3.207,10.219,4.694,12.715c1.485,2.495,1.782,3.625,1.724,4.276c-0.061,0.653-0.297,0.892,0.178,1.724  C67.49,97.971,67.609,99,67.609,99h-7.248v-0.258c-1.248-2.912-0.894-8.498-1.129-9.447c-0.238-0.951-0.238-3.445-0.713-3.861  c-0.477-0.416-4.039-0.299-4.039-0.299c0.028,0.049,0.058,0.096,0.086,0.139c1.897,2.914,2.765,1.705,2.765,1.705  s-0.119-3.147,0,0.416c0.118,3.563,0.832,3.385,0.832,3.385C58.875,92.859,58.994,99,58.994,99H39.21v-0.675  c-0.178-1.364,0-4.457,0-4.457c-1.188-1.899-2.198-5.108-2.436-6.118c-0.238-1.01-0.773-3.861-0.713-5.645  c0.06-1.782-0.297-1.428-1.545-2.496c-1.248-1.069,0-0.892-0.238-2.021c-0.237-1.128-0.119-1.723,0.356-2.495  c0.475-0.771-0.535-0.477-1.842-1.365c-1.307-0.893-0.535-1.485-0.238-1.545c0.297-0.062,0.832,0.594,1.129-0.654  c0.297-1.247,2.02-0.832,2.02-0.832C36.239,70.764,36.18,70.759,37.428,69.66z M42.184,72.439c0,0-4.103,2.24-4.815,2.713  c-0.713,0.477-2.025,0.439-2.674,0.301c-0.233-0.053-0.783,0.654-0.475,1.425c0.319,0.796,1.723-0.478,2.911-1.01  c1.188-0.536,4.991-3.505,6.417-3.923C44.973,71.529,42.184,72.439,42.184,72.439z M38.572,79.643  c0.5,0.555,0.593,0.504,1.574-0.269c0.98-0.772,2.793-4.843,2.793-4.843s0.92-1.069-2.031,2.169  c-2.951,3.237-5.604,3.475-5.604,3.475C36.54,81.747,38.572,79.643,38.572,79.643z M45.073,99c-1.693-4.971-1.169-9.283-1.169-9.283  c0.267-3.297,4.572-6.515,4.572-6.515c-2.957,0.506-4.459,3.459-4.459,3.459c0.538-3.388,2.321-10.41,2.321-10.41  C39.475,90.775,43.603,99,43.603,99 M52.77,71.438c2.14-2.049,7.004-2.922,7.004-2.922c8.021-0.803,7.934-4.188,7.934-4.188  s-2.229,2.853-7.129,3.387c-4.902,0.534-10.517,3.922-10.517,3.922 M46.054,71.723c1.16-4.345,6.557-6.914,6.557-6.914  c-6.839,1.418-7.192,6.353-7.192,6.353s-0.089,0.712,0.208,0.741C45.626,71.902,45.979,72.002,46.054,71.723z"/>
<path fill="#000000" d="M45.092,4.781c2.585,0.981,1.872,3.536,1.872,3.536c1.486,2.347-0.535,3.892-0.891,4.902  c-0.357,1.009-0.417-0.298,0.564,3.237c0.98,3.535,5.733,3.328,6.625,3.535c0.891,0.208,2.168,0,3-0.534  c0.832-0.536,2.524-0.446,2.524-0.446c-1.366,0.208-1.979,2.299-1.979,2.299c-0.269,6.424,6.258,6.97,6.258,6.97s0,0-0.623-0.269  c-0.625-0.268-2.441-2.171-3.377-3.908c-0.963-1.786-0.813-4.901,1.683-4.885c3.487,0.021,3.03,6.089,3.119,6.802  s-0.118,5.407,0.118,7.783c0.238,2.376,0.951,10.903,0.713,12.478c-0.237,1.574-0.445,2.615-0.028,4.337  c0.414,1.724,1.248,10.249,1.011,10.188c-0.238-0.06-0.951,0-4.308,0.327c-3.358,0.326-4.25,1.365-5.615,1.663  c-1.368,0.297-2.971,0.477-3.655,0.771c-0.682,0.298-2.702,1.158-3.801,1.427c-1.1,0.269-2.852,1.011-3.387,1.278  s-1.337,0.711-1.901,0.949c-0.564,0.237-2.318,0.534-2.911,0.563c-0.594,0.03-1.278,0.356-1.783,0.446  c-0.505,0.088-2.882,1.664-2.882,1.664c-0.178-4.77,2.14-9.895,2.496-10.34s0.601-2.808,1.047-3.541  c0.445-0.736,3.052-5.348,3.052-5.505c0-0.156,1.081-5.832-0.791-7.725c-1.871-1.894-2.361-3.409-2.406-3.744  c-0.045-0.332-0.12-2.911-0.12-2.911c-1.737-0.423-2.61-1.973-2.61-1.973c0.334,2.162,1.56,2.287,1.56,2.496  s0.119,1.263,0.089,2.451c-0.029,1.189,0.535,1.596,0.535,1.596c-0.038-0.015,0.273,0.09,0,0c-1.292-0.423-3.108-0.023-3.108-0.023  c-3.751,1.018-2.744,3.73-2.744,3.819s-0.475-2.228,3-3.089c3.476-0.861,4.635,1.217,4.575,1.901  c-0.06,0.683-0.504,3.03-4.041,3.536c-3.535,0.504-3.98-1.961-3.98-1.961s-0.268-1.575-0.416-7.873  c-0.148-6.298,2.644-8.05,3.238-8.348c0.594-0.298,2.792-2.108,4.07-3.327c1.277-1.217,0.684-2.733,0.684-2.733  s-0.564-1.306-1.694-3.98s-3.387-2.526-5.347-3.922c-1.961-1.396-1.218-3.742-1.218-3.742c-0.416-2.704,0.476-3.298,0.476-3.298  c-0.03-6.535,6.09-5.851,6.09-5.851C42.595-0.896,45.092,4.781,45.092,4.781z M49.369,53.914c0,0,0.382,1.172,1.318,0  C50.688,53.914,49.845,53.646,49.369,53.914z"/>
</svg>
