<svg xmlns="http://www.w3.org/2000/svg" xmlns:xlink="http://www.w3.org/1999/xlink" version="1.1" id="Layer_1" x="0px" y="0px" width="100px" height="100px" viewBox="0 0 100 100" enable-background="new 0 0 100 100" xml:space="preserve">
<path d="M54.621,8.908c-1.974,0-3.575,1.602-3.575,3.578c0,1.976,1.602,3.578,3.575,3.578c18.493,0,33.54,15.047,33.54,33.543  c0,18.495-15.047,33.542-33.54,33.542c-16.971,0-31.03-12.676-33.23-29.056l2.504,2.505c0.699,0.699,1.614,1.047,2.53,1.047  c0.916,0,1.831-0.348,2.53-1.047c1.397-1.398,1.397-3.663,0-5.061l-8.922-8.922c-1.397-1.397-3.663-1.397-5.06,0l-8.922,8.922  c-1.397,1.397-1.397,3.662,0,5.061c1.397,1.396,3.663,1.396,5.061,0l3.012-3.012c2.007,20.579,19.403,36.719,40.498,36.719  c22.439,0,40.697-18.258,40.697-40.698C95.318,27.166,77.061,8.908,54.621,8.908z"/>
<circle cx="69.431" cy="29.083" r="3.371"/>
<circle cx="76.173" cy="48.166" r="3.372"/>
<circle cx="69.431" cy="66.708" r="3.371"/>
<circle cx="54.105" cy="76.822" r="3.372"/>
<path d="M41.141,69.414c-0.971,0-1.941-0.369-2.682-1.11c-1.481-1.481-1.482-3.883-0.001-5.364l11.856-11.86V27.108  c0-2.095,1.698-3.793,3.791-3.793c2.094,0,3.79,1.698,3.79,3.793v25.541c0,1.006-0.398,1.97-1.109,2.682L43.823,68.303  C43.083,69.043,42.112,69.414,41.141,69.414z"/>
</svg>
