<svg xmlns="http://www.w3.org/2000/svg" xmlns:xlink="http://www.w3.org/1999/xlink" version="1.1" id="Calque_1" x="0px" y="0px" width="80px" height="80px" viewBox="0 0 80 80" enable-background="new 0 0 80 80" xml:space="preserve">
<g>
	<path fill="#000000" d="M39.595,55.113c4.688,0,8.501-3.813,8.501-8.5s-3.813-8.499-8.501-8.499c-4.687,0-8.499,3.812-8.499,8.499   S34.908,55.113,39.595,55.113z M39.595,40.114c3.585,0,6.501,2.915,6.501,6.499s-2.916,6.5-6.501,6.5   c-3.584,0-6.499-2.916-6.499-6.5S36.011,40.114,39.595,40.114z"/>
	<path fill="#000000" d="M56.595,26.989h-8.6l-1.944-7.779c-0.377-1.513-1.896-2.698-3.455-2.698h-6   c-1.56,0-3.078,1.185-3.455,2.698l-1.944,7.78h-2.125c-0.052-2.023-1.705-3.655-3.74-3.655c-2.055,0-3.726,1.663-3.746,3.712   c-4.627,0.505-8.24,4.434-8.24,9.192v19c0,5.101,4.149,9.25,9.25,9.25h34c5.101,0,9.25-4.149,9.25-9.25v-19   C65.845,31.139,61.695,26.989,56.595,26.989z M35.08,19.694c0.155-0.619,0.877-1.183,1.516-1.183h6c0.639,0,1.36,0.564,1.516,1.183   l1.823,7.294H33.257L35.08,19.694z M25.331,25.834c0.655,0,1.18,0.512,1.23,1.155h-2.461   C24.151,26.347,24.676,25.834,25.331,25.834z M63.345,55.239c0,3.722-3.028,6.75-6.75,6.75h-34c-3.722,0-6.75-3.028-6.75-6.75   V40.114H29.23c-1.187,1.887-1.885,4.11-1.885,6.499c0,6.755,5.495,12.25,12.249,12.25c6.755,0,12.251-5.495,12.251-12.25   c0-2.389-0.698-4.612-1.886-6.499h13.385V55.239z M29.846,46.613c0-5.376,4.373-9.749,9.749-9.749c5.377,0,9.751,4.373,9.751,9.749   s-4.374,9.75-9.751,9.75C34.219,56.363,29.846,51.989,29.846,46.613z M63.345,38.114H48.397c-2.229-2.308-5.349-3.75-8.803-3.75   s-6.572,1.442-8.801,3.75H15.845v-1.875c0-3.722,3.028-6.75,6.75-6.75h34c3.722,0,6.75,3.028,6.75,6.75V38.114z"/>
	<path fill="#000000" d="M39.596,19.286c-1.928,0-3.496,1.569-3.496,3.498s1.568,3.498,3.496,3.498c1.929,0,3.497-1.569,3.497-3.498   S41.524,19.286,39.596,19.286z M39.596,24.281c-0.825,0-1.496-0.672-1.496-1.498c0-0.826,0.671-1.498,1.496-1.498   s1.497,0.672,1.497,1.498C41.093,23.609,40.421,24.281,39.596,24.281z"/>
	<path fill="#000000" d="M57.396,32.156h-2c-1.104,0-2,0.896-2,2s0.896,2,2,2h2c1.104,0,2-0.896,2-2S58.5,32.156,57.396,32.156z"/>
	<path fill="#000000" d="M36.469,50.511c0.195,0.195,0.451,0.293,0.707,0.293s0.512-0.098,0.707-0.293l5.434-5.433   c0.391-0.391,0.391-1.023,0-1.414s-1.023-0.391-1.414,0l-5.434,5.433C36.078,49.487,36.078,50.12,36.469,50.511z"/>
	<path fill="#000000" d="M35.863,47.087c0.256,0,0.512-0.098,0.707-0.293l2.732-2.732c0.391-0.391,0.391-1.023,0-1.414   s-1.023-0.391-1.414,0l-2.732,2.732c-0.391,0.391-0.391,1.023,0,1.414C35.352,46.989,35.607,47.087,35.863,47.087z"/>
</g>
</svg>
