<svg xmlns="http://www.w3.org/2000/svg" xmlns:xlink="http://www.w3.org/1999/xlink" version="1.1" id="Your_Icon" x="0px" y="0px" width="100px" height="100px" viewBox="0 0 100 100" enable-background="new 0 0 100 100" xml:space="preserve">
<g>
	<path d="M57.612,3.1l-0.273-0.043l-0.182,0.208c-0.2,0.23-0.426,0.44-0.65,0.649l-0.101,0.094l-0.038,0.132   c-0.308,1.051-0.749,2.03-1.312,2.911l-0.073,0.196c-0.599,4.039-3.363,8.543-9.33,9.072l-0.237,0.021l-0.133,0.197   c-1.095,1.616-2.563,2.805-4.362,3.535l-0.191,0.078l-0.081,0.19C38.98,24.254,35.464,26.5,31,26.5   c-1.21,0-2.379-0.177-3.473-0.525L27.4,25.948l-0.096,0.007c-0.383,0.028-0.783,0.057-1.167,0.034l-0.457-0.021l-0.157,0.203   c-0.859,1.108-1.894,1.987-3.076,2.612l-0.161,0.085l-0.068,0.168c-0.487,1.196-1.157,2.261-1.991,3.165l-0.108,0.184   c-1.474,4.521-5.117,7.114-9.994,7.114c-2.321,0-4.368-0.591-6.082-1.756l-0.576-0.392l-0.187,0.671   C2.099,42.265,1.5,46.631,1.5,51c0,26.743,21.757,48.5,48.5,48.5S98.5,77.743,98.5,51C98.5,26.98,81.304,6.835,57.612,3.1z    M50,98.5C23.809,98.5,2.5,77.191,2.5,51c0-4.056,0.527-8.108,1.567-12.058c1.755,1.034,3.79,1.558,6.058,1.558   c3.351,0,6.223-1.189,8.281-3.312C18.77,37.678,19.344,38,20,38c1.104,0,2-0.896,2-2c0-0.923-0.629-1.692-1.48-1.922   c0.19-0.411,0.367-0.834,0.516-1.279c0.842-0.932,1.527-2.013,2.039-3.218c1.167-0.644,2.2-1.514,3.074-2.589   c0.376,0.023,0.762-0.005,1.168-0.036C28.481,27.317,29.72,27.5,31,27.5c1.337,0,2.586-0.203,3.749-0.56   C35.544,28.176,36.918,29,38.5,29c2.485,0,4.5-2.015,4.5-4.5c0-1.376-0.625-2.597-1.6-3.417c0.026-0.057,0.061-0.106,0.087-0.164   c1.804-0.772,3.349-2.021,4.489-3.627c6.332-0.67,9.302-5.458,9.979-9.793c0.563-0.899,1.012-1.89,1.332-2.946   c0.147-0.138,0.293-0.278,0.433-0.423C80.787,7.895,97.5,27.564,97.5,51C97.5,77.191,76.191,98.5,50,98.5z"/>
	<circle cx="22.5" cy="51.5" r="5.5"/>
	<circle cx="40.5" cy="45.5" r="2.5"/>
	<circle cx="39.5" cy="67.5" r="4.5"/>
	<circle cx="58" cy="56" r="4"/>
	<circle cx="65.5" cy="24.5" r="4.5"/>
	<circle cx="56" cy="82" r="2"/>
	<circle cx="69.5" cy="73.5" r="1.5"/>
	<circle cx="27.5" cy="80.5" r="4.5"/>
	<circle cx="16" cy="67" r="1"/>
	<circle cx="75.5" cy="47.5" r="1.5"/>
	<circle cx="85.5" cy="37.5" r="4.5"/>
	<circle cx="84" cy="63" r="4"/>
	<circle cx="67" cy="85" r="3"/>
	<circle cx="42.5" cy="81.5" r="1.5"/>
	<circle cx="55.5" cy="40.5" r="4.188"/>
</g>
</svg>
