<svg xmlns="http://www.w3.org/2000/svg" xmlns:xlink="http://www.w3.org/1999/xlink" version="1.1" x="0px" y="0px" viewBox="0 0 100 100" enable-background="new 0 0 100 100" xml:space="preserve"><g><path d="M90.346,52.883c-2.931-6.333-8.261-12.461-15.01-17.255c-8.029-5.705-15.596-8.918-27.997-10.468   c-1.206-0.151-2.757-0.385-4.261-0.385c-5.958,0-10.477,4.215-12.273,6.199c-2.053-1.06-4.037-1.596-5.91-1.596   c-5.069,0-7.924,3.766-9.104,5.822c-1.536-0.491-4.229-0.896-6.129,2.08c-1.651,2.591-0.491,5.666,0.509,7.482   c-2.689,1.381-4.206,3.112-4.512,5.162c-0.477,3.183,2.164,5.819,3.318,6.804c-2.645,6.156-3.621,12.479-3.972,16.763   c-0.034,0.412,0.107,0.821,0.388,1.126c0.281,0.306,0.678,0.479,1.092,0.479c0,0,83.209,0.127,83.613,0.127   c1.842,0,2.467,0.112,3.873-1.75C96.842,69.666,93.08,58.79,90.346,52.883z M8.594,50.365c0.244-1.635,2.473-2.85,4.299-3.579   c0.436-0.173,0.762-0.541,0.883-0.992s0.022-0.935-0.266-1.301c-0.705-0.9-2.464-3.863-1.347-5.615   c0.842-1.321,1.75-1.252,3.347-0.619c0.237,0.095,0.442,0.177,0.65,0.229c0.721,0.18,1.461-0.2,1.736-0.889   c0.021-0.053,2.158-5.25,6.996-5.25c1.664,0,3.512,0.603,5.492,1.791c0.653,0.391,1.495,0.227,1.951-0.383   c0.045-0.06,4.582-6.012,10.74-6.012c3.623,0,6.314,1.311,8,3.896c1.352,2.073,1.566,4.229,1.576,4.33c0,0.002,0,0.004,0,0.008   L52.655,36c0,0.517,0.269,0.994,0.706,1.265c0.439,0.27,0.988,0.291,1.449,0.06c1.271-0.642,5.027-1.972,7.112-0.429   c2.491,1.844,3.222,5.64,3.273,6.316c-0.029,0.405,0.108,0.811,0.394,1.116c0.37,0.397,0.93,0.563,1.455,0.428   c0.03-0.008,3.104-0.733,4.575,1.058c1.235,1.509,0.401,4.304-0.022,5.25c-0.228,0.496-0.162,1.076,0.168,1.513   c0.33,0.435,0.871,0.651,1.412,0.569c0.036-0.006,3.756-0.523,5.051,1.604c1.093,1.796-1.943,4.1-1.973,4.12   c-0.521,0.378-0.738,1.047-0.54,1.659c0.164,0.505,0.581,0.876,1.084,0.988c0.21,0.055,4.071,1.07,5.5,3.928   c1.104,2.209-0.952,5.27-2.233,6.729c-0.574-0.016-1.545-0.033-3.077-0.041c-3.035-8.99-8.12-17.385-14.396-23.732   c-6.979-7.061-14.939-10.948-22.414-10.948c-6.664,0-12.976,1.588-18.25,4.592c-4.761,2.711-8.594,6.478-11.084,10.891   c-0.176,0.313-0.353,0.64-0.535,0.986C9.383,52.976,8.409,51.597,8.594,50.365z M8.116,72.128c0.45-4.102,1.489-9.576,3.851-14.828   c0.225-0.498,0.458-0.99,0.696-1.463c0.269-0.531,0.521-1.005,0.771-1.445c3.811-6.753,12.838-13.973,26.748-13.973   c6.674,0,13.885,3.575,20.303,10.065c5.744,5.81,10.443,13.435,13.365,21.644H8.116L8.116,72.128z M91.995,71.288   c-0.753,0.998-1.313,1.01-3.406,0.939c-0.461-0.016-4.823-0.03-4.823-0.03c1.364-2.097,2.648-5.171,1.191-8.083   c-1.174-2.348-3.342-3.799-5.104-4.621c1.34-1.664,2.311-3.996,0.914-6.289c-1.4-2.301-3.931-2.933-5.781-3.062   c0.387-1.767,0.517-4.281-1.068-6.213c-1.73-2.109-4.314-2.369-5.982-2.277c-0.22-0.947-0.521-1.805-0.527-1.819   c-0.577-1.601-1.689-3.825-3.717-5.324c-2.688-1.989-6.275-1.28-8.412-0.567c-0.273-1.049-0.76-2.414-1.621-3.777   c-0.202-0.32-0.432-0.648-0.688-0.977c17.633,3.679,29.959,14.735,34.682,24.941C93.044,65.781,92.615,70.466,91.995,71.288z"></path><path d="M53.82,51.415c-2.547,0-4.619,2.073-4.619,4.621c0,2.547,2.072,4.619,4.619,4.619s4.619-2.072,4.619-4.619   C58.439,53.488,56.367,51.415,53.82,51.415z M53.82,57.687c-0.909,0-1.649-0.739-1.649-1.649s0.739-1.652,1.649-1.652   s1.65,0.741,1.65,1.652C55.471,56.946,54.73,57.687,53.82,57.687z"></path><path d="M45.959,59.947c-2.547,0-4.619,2.073-4.619,4.62c0,2.548,2.072,4.619,4.619,4.619s4.619-2.071,4.619-4.619   C50.578,62.021,48.506,59.947,45.959,59.947z M45.959,66.218c-0.91,0-1.65-0.738-1.65-1.648c0-0.911,0.74-1.652,1.65-1.652   s1.65,0.741,1.65,1.652C47.609,65.478,46.869,66.218,45.959,66.218z"></path><path d="M47.992,51.853c0-2.546-2.072-4.619-4.621-4.619c-2.547,0-4.619,2.072-4.619,4.619c0,2.549,2.072,4.621,4.619,4.621   C45.919,56.476,47.992,54.401,47.992,51.853z M41.723,51.853c0-0.91,0.739-1.649,1.649-1.649c0.911,0,1.651,0.739,1.651,1.649   c0,0.912-0.74,1.651-1.651,1.651C42.461,53.506,41.723,52.765,41.723,51.853z"></path></g></svg>