<svg xmlns="http://www.w3.org/2000/svg" xmlns:xlink="http://www.w3.org/1999/xlink" version="1.1" id="Layer_1" x="0px" y="0px" width="83.667px" height="55.494px" viewBox="0 0 83.667 55.494" enable-background="new 0 0 83.667 55.494" xml:space="preserve">
<path d="M31.621,46.216l-5.693,1.797h5.591c-0.021-0.189-0.058-0.374-0.058-0.568C31.461,47.02,31.525,46.611,31.621,46.216z"/>
<path d="M16.167,47.444c0,0.194-0.037,0.379-0.058,0.568h1.976l7.478-2.359h-9.73C16.037,46.215,16.167,46.812,16.167,47.444z"/>
<path d="M41.105,19.894c0-0.673,0.094-1.318,0.26-1.924c-0.725-2.417-2.77-4.166-5.179-4.166h-3.505v1.182  c0,0.65-0.528,1.178-1.179,1.178h4.684c1.713,0,3.104,1.674,3.104,3.73v22.031c0,0.317-0.043,0.621-0.105,0.915  c0.771,0.417,1.435,1.004,1.913,1.733c0.103-0.233,0.192-0.475,0.268-0.725c-0.166-0.605-0.26-1.251-0.26-1.924V19.894z"/>
<path d="M7.759,43.277c-0.138-0.42-0.22-0.874-0.22-1.353V19.894c0-2.057,1.393-3.73,3.104-3.73h3.664  c-0.651,0-1.181-0.527-1.181-1.178v-1.182h-2.483c-3.013,0-5.464,2.732-5.464,6.09v22.031c0,1.262,0.347,2.436,0.939,3.409  C6.479,44.514,7.053,43.814,7.759,43.277z"/>
<path d="M52.968,47.444c0,0.194-0.037,0.379-0.058,0.568h5.59l-5.692-1.797C52.903,46.612,52.968,47.02,52.968,47.444z"/>
<path d="M81.351,35.968C78.179,25.083,63.85,15.282,61.368,15.282c-0.002,0-0.003,0-0.003,0l-15.262-1.479  c-2.203,0-4.075,1.749-4.738,4.166c0.182,0.606,0.284,1.251,0.284,1.924v22.031c0,0.673-0.103,1.318-0.284,1.924  c0.255,0.927,0.685,1.754,1.245,2.423c0.209-0.91,0.657-1.725,1.271-2.388c-0.259-0.574-0.415-1.244-0.415-1.959V19.894  c0-2.021,1.206-3.73,2.522-3.734l15.23,1.475c1.974,0.236,14.873,9.1,17.816,18.834v5.457c0,1.158-0.403,2.2-1.01,2.89  c0.43,0.736,0.692,1.578,0.718,2.484c1.577-1.025,2.653-3.048,2.653-5.374v-5.627C81.397,36.187,81.382,36.075,81.351,35.968z"/>
<path d="M68.26,47.444c0-0.632,0.13-1.229,0.335-1.791h-9.728l7.477,2.359h1.974C68.296,47.823,68.26,47.639,68.26,47.444z"/>
<path d="M41.649,19.894c0-0.673-0.103-1.318-0.284-1.924c-0.166,0.606-0.26,1.251-0.26,1.924v22.031c0,0.673,0.094,1.318,0.26,1.924  c0.182-0.605,0.284-1.251,0.284-1.924V19.894z"/>
<path d="M47.716,50.333c-1.467,0-2.667-1.102-2.852-2.518c-0.861-0.27-1.636-0.808-2.254-1.544  c-0.087,0.379-0.143,0.769-0.143,1.173c0,2.895,2.354,5.248,5.248,5.248c2.701,0,4.906-2.056,5.194-4.68h-2.359  C50.285,49.334,49.115,50.333,47.716,50.333z"/>
<path d="M45.543,45.56c0.501-0.579,1.221-0.954,2.035-0.994l-0.218-0.068c-0.623-0.195-0.966-0.857-0.769-1.479  c0.143-0.454,0.534-0.755,0.978-0.812c-1.457,0.041-2.761,0.678-3.688,1.677C44.255,44.717,44.851,45.338,45.543,45.56z"/>
<path d="M50.518,43.019c-0.812-0.517-1.77-0.826-2.802-0.826c-0.027,0-0.053,0.008-0.08,0.008c0.144-0.01,0.291,0.001,0.437,0.047  L50.518,43.019z"/>
<path d="M49.969,45.653h1.056l-1.551-0.489C49.659,45.307,49.823,45.471,49.969,45.653z"/>
<path d="M52.808,46.216l-1.783-0.562h-1.056c0.394,0.494,0.64,1.111,0.64,1.791c0,0.194-0.021,0.385-0.058,0.568h2.359  c0.021-0.189,0.058-0.374,0.058-0.568C52.968,47.02,52.903,46.612,52.808,46.216z"/>
<path d="M44.864,47.815c-0.016-0.123-0.037-0.244-0.037-0.371c0-0.723,0.275-1.377,0.716-1.885  c-0.692-0.222-1.288-0.843-1.661-1.676c-0.614,0.663-1.062,1.478-1.271,2.388C43.229,47.008,44.003,47.546,44.864,47.815z"/>
<path d="M73.51,42.192c-2.264,0-4.179,1.449-4.915,3.461h2.665c0.529-0.666,1.335-1.102,2.25-1.102c0.914,0,1.721,0.436,2.251,1.102  h0.64c0.61,0,1.173-0.324,1.626-0.839C77.114,43.255,75.441,42.192,73.51,42.192z"/>
<path d="M70.704,51.864c0.812,0.518,1.771,0.828,2.806,0.828c-0.117,0-0.237-0.018-0.355-0.055L70.704,51.864z"/>
<path d="M70.679,48.013h-2.361c0.024,0.222,0.05,0.441,0.101,0.654l3.332,1.052C71.211,49.301,70.817,48.705,70.679,48.013z"/>
<path d="M76.342,48.013c-0.256,1.274-1.356,2.239-2.69,2.306l0.213,0.067c0.622,0.199,0.966,0.861,0.769,1.482  c-0.156,0.502-0.622,0.824-1.123,0.824c2.894,0,5.249-2.354,5.249-5.248c0-0.05-0.014-0.097-0.015-0.146  c-0.7,0.454-1.497,0.714-2.344,0.714H76.342z"/>
<path d="M68.317,48.013h2.361c-0.037-0.184-0.058-0.374-0.058-0.568c0-0.68,0.245-1.297,0.639-1.791h-2.665  c-0.205,0.562-0.335,1.159-0.335,1.791C68.26,47.639,68.296,47.823,68.317,48.013z"/>
<path d="M76.4,45.653h-0.64c0.394,0.494,0.639,1.111,0.639,1.791c0,0.194-0.021,0.385-0.058,0.568H76.4  c0.847,0,1.644-0.26,2.344-0.714c-0.025-0.906-0.288-1.748-0.718-2.484C77.573,45.329,77.011,45.653,76.4,45.653z"/>
<path d="M13.169,45.653h2.663c-0.735-2.012-2.65-3.461-4.913-3.461c-1.191,0-2.278,0.414-3.16,1.085  c0.265,0.812,0.762,1.477,1.392,1.896c0.491-0.383,1.1-0.621,1.769-0.621C11.833,44.552,12.64,44.987,13.169,45.653z"/>
<path d="M9.794,51.868c-0.197-0.621,0.147-1.283,0.771-1.482l0.213-0.067c-1.527-0.075-2.75-1.331-2.75-2.874  c0-0.057,0.014-0.109,0.017-0.165c-0.773-0.468-1.435-1.138-1.926-1.945c-0.286,0.646-0.451,1.358-0.451,2.11  c0,2.895,2.355,5.248,5.252,5.248C10.418,52.692,9.953,52.37,9.794,51.868z"/>
<path d="M10.919,52.692c1.034,0,1.992-0.311,2.806-0.828l-2.451,0.773C11.155,52.675,11.036,52.692,10.919,52.692z"/>
<path d="M13.75,48.013c-0.139,0.692-0.533,1.288-1.071,1.706l3.33-1.051c0.051-0.213,0.076-0.433,0.101-0.655H13.75z"/>
<path d="M8.044,47.279c0.05-0.856,0.47-1.608,1.106-2.106c-0.63-0.419-1.127-1.083-1.392-1.896  c-0.706,0.537-1.279,1.236-1.641,2.057C6.609,46.142,7.271,46.812,8.044,47.279z"/>
<path d="M13.808,47.444c0,0.194-0.021,0.385-0.058,0.568h2.359c0.021-0.189,0.058-0.374,0.058-0.568c0-0.632-0.13-1.229-0.335-1.791  h-2.663C13.562,46.147,13.808,46.765,13.808,47.444z"/>
<path d="M36.792,42.2c-0.027,0-0.053-0.008-0.08-0.008c-1.032,0-1.99,0.311-2.803,0.827l2.448-0.772  C36.503,42.201,36.649,42.19,36.792,42.2z"/>
<path d="M39.506,46.749c0.056,0.225,0.094,0.454,0.094,0.695c0,1.592-1.295,2.889-2.888,2.889c-1.398,0-2.568-0.999-2.833-2.32  h-2.36c0.288,2.624,2.492,4.68,5.193,4.68c2.896,0,5.249-2.354,5.249-5.248c0-1.06-0.321-2.044-0.863-2.871  C40.725,45.431,40.178,46.174,39.506,46.749z"/>
<path d="M37.837,43.019c0.197,0.621-0.147,1.283-0.771,1.479l-0.218,0.068c0.432,0.021,0.834,0.138,1.195,0.328  c0.556-0.503,0.964-1.221,1.141-2.054c-0.699-0.377-1.482-0.608-2.325-0.633C37.303,42.264,37.694,42.565,37.837,43.019z"/>
<path d="M34.956,45.163l-1.553,0.49h1.057C34.606,45.471,34.771,45.306,34.956,45.163z"/>
<path d="M39.185,42.84c-0.177,0.833-0.585,1.551-1.141,2.054c0.721,0.379,1.261,1.047,1.462,1.855  c0.672-0.575,1.219-1.318,1.592-2.176C40.619,43.844,39.956,43.257,39.185,42.84z"/>
<path d="M33.821,47.444c0-0.68,0.245-1.297,0.639-1.791h-1.057l-1.782,0.562c-0.096,0.396-0.16,0.804-0.16,1.229  c0,0.194,0.037,0.379,0.058,0.568h2.36C33.842,47.829,33.821,47.639,33.821,47.444z"/>
<path d="M8.161,23.622V35.05c0,0.652,0.528,1.18,1.18,1.18h12.465c0.651,0,1.181-0.527,1.181-1.18V23.622  c0-0.652-0.529-1.18-1.181-1.18H9.341C8.689,22.442,8.161,22.97,8.161,23.622z M10.521,24.802h10.104v9.068H10.521V24.802z"/>
<path d="M24.652,36.229h12.465c0.649,0,1.179-0.527,1.179-1.18V23.622c0-0.652-0.529-1.18-1.179-1.18H24.652  c-0.651,0-1.179,0.527-1.179,1.18V35.05C23.474,35.702,24.001,36.229,24.652,36.229z M25.833,24.802h10.103v9.068H25.833V24.802z"/>
<path d="M60.314,32.196h14.194c0.409,0,0.79-0.213,1.006-0.562c0.214-0.35,0.232-0.787,0.045-1.152  c-0.154-0.303-3.895-7.396-15.179-8.037c-0.348-0.01-0.641,0.096-0.877,0.32c-0.235,0.223-0.368,0.533-0.368,0.857v7.395  C59.136,31.669,59.662,32.196,60.314,32.196z M61.494,24.901c5.813,0.631,9.087,3.18,10.69,4.936h-10.69V24.901z"/>
<path d="M15.487,13.409h14.835v0.395h2.359v-1.574c0-0.652-0.528-1.18-1.179-1.18h-7.864l0.087,0.084  c0.469,0.453,0.482,1.201,0.029,1.67c-0.231,0.24-0.539,0.361-0.849,0.361c-0.296,0-0.59-0.111-0.82-0.332l-1.847-1.783h-5.933  c-0.651,0-1.181,0.527-1.181,1.18v1.574h2.361V13.409z"/>
<path d="M14.307,16.163h17.196c0.65,0,1.179-0.527,1.179-1.178v-1.182h-2.359H15.487h-2.361v1.182  C13.126,15.636,13.655,16.163,14.307,16.163z"/>
<path d="M18.125,5.726l6.688-1.287c0.641-0.123,1.06-0.742,0.937-1.381c-0.125-0.641-0.741-1.061-1.383-0.936l-8.919,1.715  c-0.433,0.084-0.782,0.4-0.907,0.822c-0.125,0.424-0.005,0.879,0.31,1.186l5.39,5.205h3.399L18.125,5.726z"/>
<path d="M22.906,13.165c0.31,0,0.617-0.121,0.849-0.361c0.453-0.469,0.439-1.217-0.029-1.67l-0.087-0.084h-3.399l1.847,1.783  C22.316,13.054,22.61,13.165,22.906,13.165z"/>
<path d="M16.009,48.668c-0.323,1.34-1.154,2.477-2.284,3.196l12.203-3.852h-7.843L16.009,48.668z"/>
<path d="M33.909,43.02l-8.347,2.634h6.233C32.196,44.559,32.94,43.636,33.909,43.02z"/>
<path d="M34.956,45.163l1.893-0.598c-0.046-0.002-0.09-0.014-0.137-0.014C36.049,44.552,35.444,44.785,34.956,45.163z"/>
<path d="M10.919,50.333c0.665,0,1.271-0.235,1.76-0.614l-1.901,0.6C10.825,50.321,10.87,50.333,10.919,50.333z"/>
<path d="M36.792,42.2c0.023,0.001,0.045,0.007,0.067,0.007C36.837,42.204,36.815,42.202,36.792,42.2z"/>
<path d="M31.796,45.653h-6.233l-7.478,2.359h7.843l5.693-1.797C31.668,46.023,31.729,45.837,31.796,45.653z"/>
<path d="M16.009,48.668l-3.33,1.051c-0.489,0.379-1.095,0.614-1.76,0.614c-0.049,0-0.094-0.012-0.142-0.015l-0.213,0.067  c-0.623,0.199-0.968,0.861-0.771,1.482c0.159,0.502,0.624,0.824,1.125,0.824c0.117,0,0.236-0.018,0.354-0.055l2.451-0.773  C14.854,51.145,15.686,50.008,16.009,48.668z"/>
<path d="M36.712,44.552c0.047,0,0.091,0.012,0.137,0.014l0.218-0.068c0.623-0.195,0.968-0.857,0.771-1.479  c-0.143-0.453-0.534-0.755-0.978-0.812c-0.022,0-0.044-0.006-0.067-0.007c-0.143-0.01-0.289,0.001-0.435,0.047l-2.448,0.772  c-0.969,0.616-1.713,1.539-2.113,2.634h1.607l1.553-0.49C35.444,44.785,36.049,44.552,36.712,44.552z"/>
<path d="M31.621,46.216l1.782-0.562h-1.607C31.729,45.837,31.668,46.023,31.621,46.216z"/>
<path d="M47.569,42.207c0.023,0,0.044-0.006,0.066-0.007C47.613,42.202,47.593,42.204,47.569,42.207z"/>
<path d="M47.716,44.552c-0.047,0-0.092,0.012-0.138,0.014l1.896,0.599C48.985,44.786,48.38,44.552,47.716,44.552z"/>
<path d="M52.633,45.653h6.234l-8.35-2.635C51.487,43.635,52.231,44.559,52.633,45.653z"/>
<path d="M73.51,50.333c0.049,0,0.094-0.012,0.142-0.015l-1.901-0.6C72.238,50.098,72.845,50.333,73.51,50.333z"/>
<path d="M68.418,48.667l-2.074-0.654H58.5l12.204,3.852C69.572,51.145,68.741,50.008,68.418,48.667z"/>
<path d="M58.867,45.653h-6.234c0.067,0.184,0.128,0.37,0.175,0.562l5.692,1.797h7.844L58.867,45.653z"/>
<path d="M50.518,43.019l-2.445-0.771c-0.146-0.046-0.293-0.057-0.437-0.047c-0.022,0.001-0.043,0.007-0.066,0.007  c-0.443,0.057-0.835,0.357-0.978,0.812c-0.197,0.621,0.146,1.283,0.769,1.479l0.218,0.068c0.046-0.002,0.091-0.014,0.138-0.014  c0.664,0,1.27,0.234,1.758,0.612l1.551,0.489h1.608C52.231,44.559,51.487,43.635,50.518,43.019z"/>
<path d="M52.808,46.216c-0.047-0.192-0.107-0.379-0.175-0.562h-1.608L52.808,46.216z"/>
<path d="M74.633,51.868c0.197-0.621-0.146-1.283-0.769-1.482l-0.213-0.067c-0.048,0.003-0.093,0.015-0.142,0.015  c-0.665,0-1.271-0.235-1.76-0.614l-3.332-1.052c0.323,1.341,1.154,2.478,2.286,3.197l2.45,0.773  c0.118,0.037,0.238,0.055,0.355,0.055C74.011,52.692,74.477,52.37,74.633,51.868z"/>
<path d="M45.632,24.802h11.289c0.65,0,1.18-0.529,1.18-1.18c0-0.652-0.529-1.18-1.18-1.18H45.632c-0.65,0-1.179,0.527-1.179,1.18  C44.453,24.272,44.981,24.802,45.632,24.802z"/>
<path d="M45.632,28.499h11.289c0.65,0,1.18-0.529,1.18-1.18c0-0.652-0.529-1.18-1.18-1.18H45.632c-0.65,0-1.179,0.527-1.179,1.18  C44.453,27.97,44.981,28.499,45.632,28.499z"/>
<path d="M45.632,32.425h11.289c0.65,0,1.18-0.529,1.18-1.182c0-0.65-0.529-1.18-1.18-1.18H45.632c-0.65,0-1.179,0.529-1.179,1.18  C44.453,31.896,44.981,32.425,45.632,32.425z"/>
</svg>
