<?xml version="1.0" encoding="utf-8"?>
<!-- Generator: Adobe Illustrator 15.1.0, SVG Export Plug-In . SVG Version: 6.00 Build 0)  -->
<!DOCTYPE svg PUBLIC "-//W3C//DTD SVG 1.1//EN" "http://www.w3.org/Graphics/SVG/1.1/DTD/svg11.dtd">
<svg version="1.1" id="Layer_1" xmlns="http://www.w3.org/2000/svg" xmlns:xlink="http://www.w3.org/1999/xlink" x="0px" y="0px"
	 width="100px" height="50px" viewBox="0 0 100 50" enable-background="new 0 0 100 50" xml:space="preserve">
<path d="M95,20h-2v10h2c2.762,0,5-2.238,5-5S97.762,20,95,20z"/>
<path d="M55,25c0.002-8.986,1.502-18,3-18c-6.152,0-38.95,0-48,0c-1.498,0-2.998,9.014-3,18c-0.002,9.014,1.498,18,3,18
	c9.05,0,41.848,0,48,0C56.498,43,54.998,34.014,55,25z"/>
<path d="M7,0C1.39,0,0,21.885,0,25c0,5.513,1.676,25,7,25h85v-5.465C90.668,40.874,89,32.58,89,25c0-8.192,1.672-16.286,3-19.715V0
	H7z M88.323,46H7.611C6.261,43.917,4,34.522,4,25C4,16.106,6.296,6.22,7.652,4h80.585c-0.478,1.237-0.959,2.837-1.437,4.93
	C85.656,13.935,85,19.793,85,25C85,27.274,85.743,39.535,88.323,46z"/>
</svg>
