<svg xmlns="http://www.w3.org/2000/svg" xmlns:xlink="http://www.w3.org/1999/xlink" version="1.1" id="Layer_1" x="0px" y="0px" width="100px" height="100px" viewBox="0 0 100 100" enable-background="new 0 0 100 100" xml:space="preserve">
<path fill="#000000" d="M56.633,41.615c0.678-1.116,1.076-2.421,1.076-3.819c0-4.071-3.313-7.384-7.383-7.384  c-4.071,0-7.384,3.313-7.384,7.384c0,1.398,0.398,2.703,1.077,3.819c-10.632,2.722-18.497,12.153-18.497,23.342  c0,1.381,1.119,2.5,2.5,2.5c0.478,0,0.92-0.141,1.3-0.374l3.712,18.659c0.186,0.936,1.007,1.609,1.961,1.609h30.661  c0.953,0,1.775-0.674,1.961-1.609l3.713-18.659c0.379,0.233,0.821,0.374,1.299,0.374c1.381,0,2.5-1.119,2.5-2.5  C75.129,53.769,67.265,44.337,56.633,41.615z M50.326,35.412c1.315,0,2.383,1.069,2.383,2.384s-1.068,2.384-2.383,2.384  c-1.314,0-2.384-1.069-2.384-2.384S49.011,35.412,50.326,35.412z M50.326,45.822c8.448,0,15.657,5.147,18.497,12.358l-6.168-0.047  c-1.865,0-3.461,1.044-4.299,2.568c-0.002,0-0.002-0.001-0.004-0.001c0,0.006-0.004,0.01-0.004,0.015  c-0.068,0.125-0.143,0.244-0.199,0.375c-0.115,0.108-0.266,0.177-0.438,0.177c-0.148,0-0.277-0.055-0.385-0.137  c-0.752-1.76-2.482-2.997-4.52-2.997c-2.107,0-3.893,1.323-4.605,3.18c-0.101,0.062-0.212,0.106-0.339,0.106  c-0.147,0-0.277-0.058-0.387-0.14c-0.075-0.191-0.172-0.37-0.269-0.549c0.003-0.014,0.006-0.027,0.008-0.041  c-0.009,0.002-0.017,0.007-0.025,0.009c-0.843-1.522-2.445-2.565-4.31-2.565s-3.463,1.044-4.302,2.567c-0.001,0-0.001,0-0.001,0  c0,0.001-0.001,0.002-0.001,0.003c-0.074,0.135-0.157,0.262-0.219,0.403c-0.112,0.099-0.259,0.16-0.422,0.16  c-0.161,0-0.306-0.061-0.417-0.158c-0.061-0.135-0.145-0.256-0.217-0.385c-0.002-0.009-0.007-0.015-0.008-0.023  c-0.002,0-0.003,0.001-0.005,0.002c-0.847-1.493-2.427-2.513-4.268-2.513c-0.441,0-0.861,0.073-1.267,0.183  C34.542,51.062,41.803,45.822,50.326,45.822z M64.015,83.352H36.637l-4.158-20.896c0.176-0.039,0.355-0.065,0.543-0.065  c1.164,0,2.136,0.783,2.443,1.849v1.412v0.294v0.868c0,1.365,1.106,2.472,2.472,2.472s2.472-1.106,2.472-2.472v-1.253v-1.23  c0.001-0.006,0.004-0.011,0.005-0.017c0.283-1.104,1.275-1.923,2.467-1.923s2.184,0.819,2.467,1.923  c0.001,0.006,0.004,0.011,0.005,0.017v1.23v3.725c0,1.365,1.106,2.472,2.472,2.472s2.472-1.106,2.472-2.472v-3.782v-0.949  c0.016-0.083,0.043-0.16,0.066-0.24c0.31-1.061,1.279-1.84,2.441-1.84c1.16,0,2.129,0.779,2.439,1.84  c0.031,0.101,0.057,0.202,0.074,0.308v0.814v1.435h0.012c0.061,1.312,1.133,2.358,2.459,2.358s2.4-1.047,2.461-2.358h0.012v-0.967  v-0.393v-1.076c0.008-0.042,0.025-0.08,0.037-0.121c0.291-1.058,1.248-1.84,2.4-1.84h4.998c0.158,0,0.313,0.019,0.464,0.047  L64.015,83.352z"/>
</svg>
