<?xml version="1.0" encoding="utf-8"?>
<!-- Generator: Adobe Illustrator 15.1.0, SVG Export Plug-In . SVG Version: 6.00 Build 0)  -->
<!DOCTYPE svg PUBLIC "-//W3C//DTD SVG 1.1//EN" "http://www.w3.org/Graphics/SVG/1.1/DTD/svg11.dtd">
<svg version="1.1" id="Layer_1" xmlns="http://www.w3.org/2000/svg" xmlns:xlink="http://www.w3.org/1999/xlink" x="0px" y="0px"
	 width="100px" height="66.847px" viewBox="0 0 100 66.847" enable-background="new 0 0 100 66.847" xml:space="preserve">
<path fill="#010101" d="M83.175,25.884c0.597,2.327,0.511,4.935,0.331,7.584c8.77,5.6,10.276,8.98,10.213,9.534
	c-0.013,0.02-1.678,2.005-11.28,1.303c-1.235-0.091-2.532-0.222-3.88-0.392c1.095-3.302,1.695-6.825,1.695-10.489
	C80.254,14.993,65.26,0,46.829,0C32.708,0,20.612,8.807,15.724,21.213c-8.06-5.29-9.491-8.485-9.431-9.023
	c0.013-0.021,1.417-2.143,11.008-1.444c1.285-2.369,3.343-4.278,5.468-5.786c-1.348-0.16-3.309-0.243-4.732-0.347
	C7.714,3.858,1.936,5.644,0.372,10.075c-1.67,4.73,2.283,10.134,12.085,16.525c0.473,0.308,0.985,0.616,1.479,0.925
	c-0.343,1.916-0.532,3.885-0.532,5.898c0,18.43,14.994,33.423,33.425,33.423c12.443,0,23.313-6.84,29.066-16.952
	c2.139,0.312,4.178,0.544,6.083,0.685c10.321,0.753,16.098-1.031,17.662-5.464C101.814,38.966,93.851,32,83.175,25.884z
	 M46.829,60.377c-14.864,0-26.956-12.089-26.956-26.954c0-0.809,0.042-1.608,0.113-2.399c6.032,3.25,13.04,6.419,20.591,9.274
	c0.203-2.183,0.975-4.2,2.167-5.905c-7.947-3.009-15.278-6.372-21.383-9.786c3.662-10.545,13.691-18.14,25.467-18.14
	c14.862,0,26.956,12.092,26.956,26.955c0,3.325-0.609,6.508-1.714,9.45c-2.212-0.42-4.51-0.918-6.875-1.49
	c0,0.021,0.002,0.037,0.002,0.059c0,2.189-0.579,4.243-1.585,6.029c1.847,0.447,3.655,0.849,5.421,1.21
	C64.169,55.74,56.031,60.377,46.829,60.377z"/>
<circle fill="#010101" cx="52.67" cy="41.599" r="8.356"/>
</svg>
