<svg xmlns="http://www.w3.org/2000/svg" xmlns:xlink="http://www.w3.org/1999/xlink" version="1.1" x="0px" y="0px" width="100px" height="100px" viewBox="0 0 100 100" enable-background="new 0 0 100 100" xml:space="preserve">
<g id="Layer_2" display="none">
	
		</g>
<g id="Your_Icon">
	<g>
		<path d="M85.774,67.693c-3.098-10.841-17.553-23.748-22.2-34.589c-1.38-2.601-3.248-7.922-3.613-10.842    c-0.517-4.13,1.238-9.499,2.064-10.325c1.549-1.548,8.262-5.162,8.777-6.195c0.245-0.49-1.048-1.329-1.549-1.549    c-1.539-0.673-5.163,0-6.712-0.258C56.863,1.096,52.733,0.58,49.12,2.128c-5.679,2.582-6.711,9.292-6.711,11.874    c0,2.328-0.131,6.999-0.517,9.292c-0.156,0.927-0.666,2.75-1.032,3.615c-1.033,3.614-3.615,7.228-5.68,9.809    c-1.486,1.859-13.939,16.005-16.004,20.135c-1.854,3.593-6.711,11.874-4.646,14.971c2.106,0.302,2.581-6.711,12.927-14.971    c5.141-4.646,5.141-6.194,6.045-9.293c-0.904,15.489,1.521,23.777,2.968,31.493c0.774,4.13,0.808,5.611,0,7.228    c-2.324,4.646-6.454,4.646-7.486,6.454c1.549,2.322,9.83-0.971,12.907,0c0,2.839,6.195,2.839,8.776,3.354    c0.532,0.208,1.033,0.517,1.548,1.033c0.517,0,0.517-0.517,1.549-0.517c1.033,0,1.033,0.646,2.065,0.646    c0.517,0,0.302-0.645,1.033-0.645c0.517,0,1.032,0.258,1.549,0.258c0.517-0.258,0.517-0.774,0.517-1.29    c0-0.204-0.358-0.665,0-0.517c0.421,0.175,1.291,1.001,1.549,1.032c0.258-0.031,0.774-0.79,1.032-1.032    c0.259-0.273,1.549,0.513,2.064,0.517c0.517-0.52,0-1.032,0.516-1.548c0.518-0.518,1.55,0.514,2.066,0.516    c0.516-0.518,0.516-1.549,0-2.066c-0.517-0.517-5.164-2.065-7.745-2.581c-0.717-0.485,3.82-9.533,4.646-11.874    c3.099-8.777,3.099-26.329,3.099-26.329c1.032,3.098,5.306,6.3,7.227,8.26c2.893,2.95,9.809,13.422,11.357,11.873    C85.258,71.308,86.06,68.694,85.774,67.693z M63.574,67.693c-0.516,6.195-5.678,23.232-8.775,20.651    c-1.122-0.936-0.517-3.614-1.549-8.26c-0.517,3.613-0.517,7.743-2.065,9.292c-1.486,1.486-6.636-0.215-8.26-1.549    c-3.222-2.647-5.736-11.343-6.196-15.488c-1.032-9.292,3.099-17.036,3.615-19.101c0.751-3.005-0.517-9.294-0.775-11.875    c-0.396-3.963,1.808-11.357,3.727-15.487c1.02-2.194,1.179-8.777,2.695-9.293c1.797-0.611,3.729,4.466,6.743,4.13    c4.646-0.516,4.646-4.13,5.55-4.13c0.129,0.516-0.137,5.438,0.129,7.227c0.667,4.484,4.936,12.567,5.679,17.037    C65.192,47.47,64.132,61.005,63.574,67.693z"/>
	</g>
	<g>
		<path d="M-71.226,71.693c-3.098-10.841-17.553-23.748-22.2-34.589c-1.38-2.601-3.248-7.922-3.613-10.842    c-0.517-4.13,1.238-9.499,2.064-10.325c1.549-1.548,8.262-5.162,8.777-6.195c0.245-0.49-1.048-1.329-1.549-1.549    c-1.539-0.673-5.163,0-6.712-0.258c-5.679-2.839-9.809-3.355-13.422-1.807c-5.679,2.582-6.711,9.292-6.711,11.874    c0,2.328-0.131,6.999-0.517,9.292c-0.156,0.927-0.666,2.75-1.032,3.615c-1.033,3.614-3.615,7.228-5.68,9.809    c-1.486,1.859-13.939,16.005-16.004,20.135c-1.854,3.593-6.711,11.874-4.646,14.971c2.106,0.302,2.581-6.711,12.927-14.971    c5.141-4.646,5.141-6.194,6.045-9.294c-0.904,15.489,1.521,23.777,2.968,31.493c0.774,4.13,0.808,5.611,0,7.228    c-2.324,4.646-6.454,4.646-7.486,6.454c1.549,2.322,9.83-0.971,12.907,0c0,2.839,6.195,2.839,8.776,3.354    c0.532,0.208,1.033,0.517,1.548,1.033c0.517,0,0.517-0.517,1.549-0.517c1.033,0,1.033,0.646,2.065,0.646    c0.517,0,0.302-0.645,1.033-0.645c0.517,0,1.032,0.258,1.549,0.258c0.517-0.258,0.517-0.774,0.517-1.29    c0-0.204-0.358-0.665,0-0.517c0.421,0.175,1.291,1.001,1.549,1.032c0.258-0.031,0.774-0.79,1.032-1.032    c0.259-0.273,1.549,0.513,2.064,0.517c0.517-0.52,0-1.032,0.516-1.548c0.518-0.518,1.55,0.514,2.066,0.516    c0.516-0.518,0.516-1.549,0-2.066c-0.517-0.517-5.164-2.065-7.745-2.581c-0.717-0.485,3.82-9.533,4.646-11.874    c3.099-8.777,3.099-26.329,3.099-26.329c1.032,3.098,5.306,6.3,7.227,8.26c2.893,2.95,9.809,13.422,11.357,11.873    C-71.742,75.308-70.94,72.694-71.226,71.693z M-93.426,71.693c-0.516,6.195-5.678,23.232-8.775,20.651    c-1.122-0.936-0.517-3.614-1.549-8.26c-0.517,3.613-0.517,7.743-2.065,9.292c-1.486,1.486-6.636-0.215-8.26-1.549    c-3.222-2.647-5.736-11.343-6.196-15.488c-1.032-9.292,3.099-17.036,3.615-19.101c0.751-3.005-0.517-9.294-0.775-11.875    c-0.396-3.963,1.808-11.357,3.727-15.487c1.02-2.194,1.179-8.777,2.695-9.293c1.797-0.611,3.729,4.466,6.743,4.13    c4.646-0.516,4.646-4.13,5.55-4.13c0.129,0.516-0.137,5.438,0.129,7.227c0.667,4.484,4.936,12.567,5.679,17.037    C-91.808,51.471-92.868,65.005-93.426,71.693z"/>
		<path fill="#000000" d="M-98.588,27.811c-0.266-1.79,0-6.711-0.129-7.227c-0.904,0-0.904,3.614-5.55,4.13    c-3.015,0.336-4.946-4.741-6.743-4.13c-1.517,0.516-1.676,7.099-2.695,9.293c-1.919,4.13-4.123,11.524-3.727,15.487    c0.259,2.581,1.526,8.87,0.775,11.875c-0.517,2.064-4.647,9.809-3.615,19.101c0.46,4.146,2.974,12.841,6.196,15.488    c1.624,1.334,6.774,3.035,8.26,1.549c1.549-1.549,1.549-5.679,2.065-9.292c1.032,4.646,0.427,7.324,1.549,8.26    c3.098,2.581,8.26-14.456,8.775-20.651c0.558-6.688,1.618-20.223,0.517-26.846C-93.652,40.377-97.921,32.294-98.588,27.811z"/>
	</g>
</g>
</svg>
