<svg xmlns="http://www.w3.org/2000/svg" xmlns:xlink="http://www.w3.org/1999/xlink" version="1.1" id="Calque_1" x="0px" y="0px" width="100px" height="100px" viewBox="0 0 100 100" enable-background="new 0 0 100 100" xml:space="preserve">
<path fill="#000000" d="M88.084,91.232c-0.887-0.887-0.887-2.33,0-3.215c0.859-0.857,2.354-0.858,3.215,0  c0.885,0.885,0.885,2.326,0,3.215c-0.43,0.43-1.001,0.666-1.607,0.666C89.084,91.898,88.514,91.662,88.084,91.232z M89.221,89.154  c-0.26,0.26-0.26,0.682,0,0.941c0.252,0.252,0.689,0.25,0.94,0c0.259-0.261,0.26-0.684,0.001-0.941  c-0.125-0.125-0.293-0.194-0.471-0.194S89.346,89.029,89.221,89.154z"/>
<path fill="#000000" d="M87.809,94.281c-0.02-0.02-1.565-1.598-11.813-12.069C61.021,66.915,35.96,41.313,35.628,40.98  c-1.151-1.152-3.205-1.449-4.942-1.684c-0.52,0.065-1.061,0.098-1.609,0.098c-0.001,0-0.001,0-0.001,0  c-5.374,0-11.604-3.02-16.663-8.079c-3.859-3.859-6.56-8.436-7.604-12.888C3.731,13.836,4.535,9.911,7.073,7.373l0.341-0.341  c1.785-1.785,4.302-2.729,7.277-2.729c5.381,0,11.603,3.009,16.643,8.05c5.626,5.626,8.669,12.608,7.961,18.253l0.013,0.096  c0.22,1.633,0.492,3.666,1.631,4.806c0.378,0.376,32.956,32.268,46.868,45.885c3.959,3.877,6.494,6.357,6.51,6.373  c0.539,0.539,0.875,1.307,0.922,2.106c0.052,0.851-0.235,1.653-0.784,2.202l-2.341,2.339c-0.51,0.51-1.223,0.791-2.01,0.791  C89.232,95.205,88.395,94.867,87.809,94.281z M8.548,8.171L8.207,8.512C6.079,10.64,5.429,14.03,6.373,18.06  c0.977,4.165,3.525,8.468,7.176,12.118c4.693,4.693,10.644,7.609,15.527,7.608c0.517,0,1.022-0.033,1.504-0.097  c0.069-0.008,0.204-0.001,0.276,0.008c1.836,0.248,4.35,0.587,5.908,2.146c0.338,0.338,24.433,24.955,40.378,41.244  c6.791,6.938,11.715,11.97,11.797,12.054c0.519,0.518,1.576,0.598,2.039,0.137l2.338-2.34c0.226-0.225,0.34-0.578,0.317-0.971  c-0.024-0.406-0.194-0.805-0.45-1.063c-0.043-0.041-2.568-2.514-6.502-6.363c-13.914-13.62-46.496-45.514-46.879-45.896  c-1.523-1.524-1.837-3.856-2.088-5.729l-0.027-0.201c-0.009-0.071-0.009-0.143,0-0.214c0.686-5.1-2.255-11.777-7.49-17.012  c-4.745-4.746-10.542-7.58-15.506-7.58C12.151,5.911,10.028,6.691,8.548,8.171z"/>
</svg>
