<svg xmlns="http://www.w3.org/2000/svg" xmlns:xlink="http://www.w3.org/1999/xlink" version="1.1" x="0px" y="0px" viewBox="0 0 100 100" enable-background="new 0 0 100 100" xml:space="preserve"><path fill="#000000" d="M15.839,36.342c-0.455-0.33-0.558-0.966-0.229-1.421c0.329-0.456,0.966-0.559,1.422-0.229  c0.455,0.328,0.558,0.965,0.229,1.42C16.932,36.568,16.296,36.67,15.839,36.342z M43.42,46.535c0.33-0.456,0.228-1.092-0.228-1.422  c-0.455-0.329-1.093-0.226-1.422,0.23c-0.329,0.455-0.227,1.092,0.229,1.421C42.456,47.095,43.092,46.992,43.42,46.535z   M31.387,47.605c-0.456-0.329-1.093-0.227-1.422,0.23c-0.329,0.455-0.226,1.092,0.23,1.42c0.456,0.329,1.092,0.228,1.421-0.229  C31.945,48.571,31.843,47.935,31.387,47.605z M79.9,63.73c-0.549,0.119-0.896,0.666-0.773,1.213c0.123,0.55,0.666,0.896,1.214,0.774  c0.55-0.123,0.896-0.665,0.774-1.216C80.995,63.954,80.451,63.607,79.9,63.73z M56.023,58.699c0.549-0.121,0.895-0.665,0.772-1.215  c-0.118-0.549-0.666-0.896-1.215-0.772c-0.55,0.121-0.896,0.665-0.772,1.214C54.93,58.477,55.473,58.822,56.023,58.699z   M75.756,50.587c-0.548,0.12-0.895,0.667-0.771,1.214c0.123,0.551,0.664,0.896,1.213,0.775c0.552-0.123,0.896-0.667,0.775-1.215  C76.85,50.811,76.307,50.466,75.756,50.587z M63.84,76.998c-0.549,0.121-0.895,0.664-0.771,1.214  c0.121,0.549,0.666,0.896,1.215,0.772c0.55-0.121,0.896-0.664,0.771-1.215C64.934,77.223,64.391,76.874,63.84,76.998z   M57.258,36.915c-0.193,0.529,0.079,1.112,0.608,1.305c0.526,0.193,1.11-0.077,1.305-0.607c0.192-0.527-0.079-1.113-0.606-1.304  C58.035,36.115,57.451,36.388,57.258,36.915z M41.074,19.413c0.193-0.527-0.079-1.111-0.607-1.305  c-0.528-0.193-1.112,0.079-1.305,0.606c-0.193,0.528,0.078,1.113,0.607,1.305C40.297,20.213,40.881,19.942,41.074,19.413z   M37.366,26.154c-0.161,0.168-0.155,0.437,0.013,0.598s0.436,0.155,0.597-0.013c0.163-0.168,0.157-0.437-0.013-0.597  C37.794,25.981,37.527,25.986,37.366,26.154z M22.792,39.172c0.162-0.169,0.156-0.436-0.012-0.597  c-0.167-0.161-0.435-0.154-0.597,0.013c-0.161,0.169-0.156,0.436,0.013,0.597C22.364,39.347,22.631,39.341,22.792,39.172z   M37.717,17.225c0.163-0.168,0.156-0.435-0.012-0.598c-0.169-0.16-0.438-0.155-0.599,0.014c-0.162,0.167-0.155,0.436,0.013,0.597  C37.288,17.399,37.557,17.393,37.717,17.225z M32.949,39.455c-0.161,0.169-0.156,0.436,0.012,0.597  c0.168,0.162,0.436,0.156,0.597-0.013c0.161-0.167,0.155-0.435-0.013-0.596C33.376,39.282,33.109,39.288,32.949,39.455z   M28.529,34.455c-0.161,0.169-0.156,0.436,0.014,0.597c0.168,0.162,0.435,0.156,0.596-0.013c0.162-0.169,0.155-0.436-0.013-0.597  C28.958,34.281,28.691,34.287,28.529,34.455z M67.066,85.061c-0.233,0.026-0.4,0.233-0.377,0.467  c0.021,0.23,0.229,0.399,0.461,0.375c0.233-0.022,0.402-0.229,0.379-0.463C67.504,85.207,67.297,85.037,67.066,85.061z   M59.994,69.427c-0.23,0.024-0.4,0.231-0.375,0.466c0.021,0.229,0.229,0.4,0.461,0.375c0.232-0.023,0.402-0.23,0.377-0.463  C60.434,69.572,60.227,69.402,59.994,69.427z M58.652,76.841c-0.023-0.231-0.231-0.401-0.465-0.376  c-0.229,0.023-0.398,0.23-0.375,0.462c0.021,0.232,0.229,0.401,0.463,0.378C58.508,77.28,58.678,77.073,58.652,76.841z   M47.75,27.292c0.167,0.161,0.435,0.155,0.596-0.013c0.162-0.168,0.157-0.436-0.013-0.597c-0.168-0.162-0.435-0.156-0.596,0.012  C47.575,26.863,47.58,27.129,47.75,27.292z M51.512,48.347c-0.076,0.219,0.041,0.459,0.262,0.536  c0.222,0.074,0.461-0.042,0.537-0.263c0.076-0.22-0.043-0.461-0.264-0.536C51.826,48.007,51.587,48.125,51.512,48.347z   M71.227,55.615c0.229-0.042,0.385-0.26,0.344-0.488c-0.039-0.23-0.258-0.385-0.487-0.347c-0.229,0.043-0.386,0.262-0.343,0.491  C70.777,55.5,70.997,55.655,71.227,55.615z M46.588,62.525c0.076-0.221-0.041-0.461-0.262-0.537  c-0.219-0.073-0.461,0.043-0.538,0.264c-0.074,0.219,0.042,0.461,0.263,0.534C46.271,62.863,46.513,62.747,46.588,62.525z   M84.832,62.525c-0.229,0.041-0.385,0.259-0.344,0.488c0.039,0.229,0.26,0.385,0.49,0.344c0.229-0.039,0.381-0.258,0.342-0.487  C85.279,62.639,85.062,62.484,84.832,62.525z M66.129,44.834c-0.229,0.042-0.384,0.259-0.345,0.49  c0.041,0.229,0.26,0.383,0.489,0.344c0.229-0.04,0.383-0.259,0.345-0.489C66.576,44.949,66.359,44.795,66.129,44.834z   M43.212,55.438c0.074-0.22-0.042-0.459-0.262-0.535c-0.221-0.074-0.461,0.041-0.537,0.263c-0.077,0.221,0.041,0.461,0.263,0.537  C42.895,55.775,43.137,55.659,43.212,55.438z M38.338,7.859l57.01,57.01c0.434,0.434,0.434,1.132,0,1.564L68.641,93.143  c-0.432,0.431-1.133,0.433-1.564,0l-57.01-57.01c-2.714-2.715-3.735-6.756-2.876-11.378c0.831-4.472,3.339-8.985,7.062-12.709  c3.723-3.722,8.236-6.231,12.708-7.061C31.582,4.124,35.623,5.145,38.338,7.859z M10.368,32.925  c0.009-0.009,0.379-0.378,0.472-0.473c0.656-0.655,1.365-1.245,2.12-1.773c-0.65-0.902-0.572-2.167,0.238-2.978  c0.438-0.438,1.006-0.661,1.577-0.674l-3.405-2.214c-0.512-0.333-0.657-1.019-0.324-1.531l2.511-3.861  c0.16-0.246,0.411-0.419,0.698-0.48c0.287-0.06,0.586-0.004,0.832,0.156l1.642,1.068c0.118-0.24,0.272-0.464,0.472-0.664  c0.573-0.571,1.354-0.804,2.099-0.703c0.155-0.332,0.367-0.644,0.641-0.918c0.06-0.06,0.121-0.114,0.185-0.168  c-0.686-0.972-0.596-2.325,0.274-3.194c0.89-0.89,2.28-0.964,3.256-0.229c0.278-0.204,0.609-0.296,0.936-0.28  c0.201-0.573,0.53-1.112,0.989-1.571c0.004-0.005,0.011-0.01,0.016-0.015l-0.773-1.775c-0.246-0.56,0.009-1.212,0.57-1.457  l4.22-1.843c0.27-0.117,0.574-0.123,0.847-0.016c0.274,0.107,0.493,0.318,0.611,0.586l1.682,3.855  c0.599-1.328,1.319-2.577,2.159-3.736c-4.986-2.712-12.999-0.526-19.097,5.572C9.626,19.799,7.468,27.957,10.368,32.925z   M27.293,10.775l3.51,8.043c0.18-1.401,0.462-2.754,0.843-4.05l-2.16-4.951L27.293,10.775z M23.973,19.166l6.585,8.966  c0.158,0.031,0.315,0.063,0.472,0.097c-0.242-1.488-0.389-2.949-0.444-4.375l-0.313-0.717l-4.102-5.585L23.973,19.166z   M14.81,21.555l-1.305,2.006l6.542,4.255c1.223-0.221,2.505-0.339,3.837-0.358L14.81,21.555z M68.561,90.09  c4.232-4.27,5.399-11.156,3.279-19.404c-2.177-8.479-7.543-17.312-15.107-24.879c-7.564-7.564-16.401-12.931-24.88-15.109  c-8.273-2.126-15.18-0.947-19.447,3.32c-0.22,0.22-0.433,0.451-0.638,0.688l56.092,56.09l0.701-0.702V90.09z M87.346,71.307  c-3.775,1.061-8.214,1.062-13.092-0.041c1.102,4.877,1.1,9.314,0.04,13.094L87.346,71.307z M36.774,9.425  c-0.027-0.025-0.053-0.05-0.079-0.076c-3.56,4.925-4.749,11.729-3.346,19.313c0.011,0.051,0.016,0.102,0.019,0.152  c8.557,2.421,17.372,7.87,24.929,15.426c7.458,7.458,12.859,16.143,15.329,24.596c8.218,2.124,15.08,0.997,19.371-3.188  L36.774,9.425z"></path></svg>