<?xml version="1.0" encoding="utf-8"?>
<!-- Generator: Adobe Illustrator 16.0.0, SVG Export Plug-In . SVG Version: 6.00 Build 0)  -->
<!DOCTYPE svg PUBLIC "-//W3C//DTD SVG 1.1//EN" "http://www.w3.org/Graphics/SVG/1.1/DTD/svg11.dtd">
<svg version="1.1" id="Calque_1" xmlns="http://www.w3.org/2000/svg" xmlns:xlink="http://www.w3.org/1999/xlink" x="0px" y="0px"
	 width="98.596px" height="100px" viewBox="0.702 0 98.596 100" enable-background="new 0.702 0 98.596 100" xml:space="preserve">
<path d="M95.579,14.348c0,0-4.855,5.298-20.886,2.394c-16.031-2.9-18.551-9.469-18.551-9.469c-1.377-3.593-3.108-3.443-3.851,0.332
	c0,0-0.078,0.403-0.203,1.134c0.86,4.811,1.834,11.683,2.015,18.92c0.194,7.525-0.53,13.956-2.127,19.157
	c1.896,7.57,5.607,13.832,12.391,15.987L58.08,97.527c-0.206,1.141,0.552,2.234,1.69,2.438c1.142,0.206,2.232-0.549,2.438-1.688
	l6.291-34.729c22.596,1.153,30.663-47.457,30.663-47.457C99.791,12.298,98.179,11.512,95.579,14.348z M58.265,25.835
	c0,0,1.67,0.833,5.189,0.239c3.522-0.594,4.83-1.927,4.83-1.927c0.38-0.39,0.725-0.263,0.758,0.282c0,0,0.271,4.279-4.961,5.16
	c-5.229,0.882-6.427-3.246-6.427-3.246C57.501,25.821,57.775,25.592,58.265,25.835z M79.693,54.667
	c-0.04,0.545-0.365,0.651-0.721,0.239c0,0-3.191-3.693-10.132-4.948c-6.939-1.257-11.224,1.083-11.224,1.083
	c-0.476,0.261-0.748,0.046-0.603-0.479c0,0,2.846-10.192,13.155-8.323C80.48,44.105,79.693,54.667,79.693,54.667z M87.406,31.729
	c0,0-2.482,3.5-7.101,0.889c-4.619-2.607-2.958-6.568-2.958-6.568c0.212-0.502,0.57-0.504,0.798-0.012c0,0,0.775,1.7,3.884,3.455
	c3.108,1.753,4.963,1.54,4.963,1.54C87.537,30.97,87.722,31.284,87.406,31.729z"/>
<path d="M47.302,2.851C46.829,0.954,46.134,0,45.402,0c-0.709,0-1.457,0.89-2.076,2.674c0,0-2.353,6.795-18.218,10.497
	c-4.271,0.999-7.749,1.363-10.551,1.363c-7.606,0-10.232-2.688-10.232-2.688c-1.075-1.095-1.964-1.623-2.59-1.623
	c-0.948,0-1.305,1.202-0.812,3.46c0,0,10.022,45.936,31.464,45.936c0.508,0,1.023-0.025,1.545-0.078l8.027,34.366
	c0.228,0.968,1.087,1.623,2.041,1.623c0.158,0,0.322-0.019,0.48-0.058c1.128-0.263,1.828-1.39,1.567-2.521L38.02,58.584
	c8.327-3.11,11.54-12.38,12.379-22.49c0.345-4.164,0.286-8.465,0.014-12.542C49.662,12.331,47.302,2.851,47.302,2.851z
	 M19.13,27.366c-3.282,1.411-4.232,3.021-4.232,3.021c-0.279,0.468-0.636,0.424-0.791-0.097c0,0-1.229-4.116,3.641-6.216
	c4.868-2.1,6.965,1.641,6.965,1.641c0.265,0.478,0.045,0.767-0.484,0.648C24.229,26.362,22.407,25.951,19.13,27.366z M33.728,49.123
	c-10.202,2.38-13.677-7.626-13.677-7.626c-0.18-0.515,0.078-0.741,0.568-0.503c0,0,4.394,2.119,11.26,0.516
	c6.87-1.603,9.87-5.454,9.87-5.454c0.334-0.428,0.666-0.339,0.742,0.201C42.493,36.258,43.934,46.741,33.728,49.123z M41.988,24.113
	c0,0-1.554-1.038-5.122-0.893c-3.566,0.145-5.031,1.305-5.031,1.305c-0.429,0.336-0.746,0.17-0.702-0.375c0,0,0.324-4.282,5.623-4.5
	c5.3-0.215,5.916,4.033,5.916,4.033C42.749,24.222,42.441,24.415,41.988,24.113z"/>
</svg>
