<svg xmlns:inkscape="http://www.inkscape.org/namespaces/inkscape" xmlns:dc="http://purl.org/dc/elements/1.1/" xmlns:sodipodi="http://sodipodi.sourceforge.net/DTD/sodipodi-0.dtd" xmlns:rdf="http://www.w3.org/1999/02/22-rdf-syntax-ns#" xmlns:svg="http://www.w3.org/2000/svg" xmlns:cc="http://creativecommons.org/ns#" xmlns="http://www.w3.org/2000/svg" xmlns:xlink="http://www.w3.org/1999/xlink" version="1.1" id="svg2" sodipodi:docname="jupiter-export.svg" inkscape:version="0.48.2 r9819" x="0px" y="0px" width="100px" height="100px" viewBox="0 0 100 100" enable-background="new 0 0 100 100" xml:space="preserve">
<sodipodi:namedview inkscape:zoom="1" bordercolor="#666666" pagecolor="#ffffff" id="base" borderopacity="1.0" inkscape:cy="-27.637085" inkscape:cx="60.797309" showgrid="false" inkscape:window-maximized="1" inkscape:window-y="0" inkscape:current-layer="layer1" inkscape:document-units="px" inkscape:pageopacity="0.0" inkscape:window-height="1006" inkscape:window-x="83" inkscape:window-width="1597" inkscape:pageshadow="2">
	</sodipodi:namedview>
<path id="path3784" inkscape:connector-curvature="0" d="M49.544,0.001c-4.123,0.041-8.317,0.594-12.483,1.71  c-0.136,0.036-0.269,0.085-0.404,0.121C22.893,5.644,12.062,14.868,5.846,26.584c-0.42,0.791-0.821,1.597-1.199,2.41  c-0.043,0.094-0.091,0.188-0.135,0.283c-0.143,0.314-0.28,0.639-0.417,0.957c-0.176,0.408-0.347,0.825-0.512,1.239  c-0.151,0.377-0.302,0.75-0.444,1.131c-0.015,0.04-0.025,0.081-0.04,0.122c-0.157,0.424-0.299,0.851-0.444,1.279  c-0.144,0.425-0.285,0.85-0.417,1.279c-0.134,0.434-0.269,0.868-0.391,1.306c-0.32,1.146-0.61,2.303-0.849,3.474  c-0.045,0.224-0.079,0.449-0.121,0.673c-0.058,0.306-0.123,0.622-0.175,0.929c-0.015,0.086-0.026,0.17-0.041,0.256  c-0.053,0.324-0.102,0.644-0.148,0.97c-0.048,0.333-0.093,0.662-0.134,0.996c-0.113,0.912-0.194,1.826-0.256,2.748H0.109  c-0.003,0.045,0.003,0.09,0,0.134c-0.017,0.256-0.028,0.512-0.041,0.768c-0.007,0.153-0.021,0.305-0.027,0.458  c-0.001,0.027,0.001,0.054,0,0.081c-0.018,0.482-0.036,0.971-0.041,1.454c-0.004,0.486,0.003,0.967,0.014,1.454  c0.01,0.482,0.03,0.972,0.054,1.455c0.008,0.169,0.017,0.342,0.027,0.512c0.019,0.315,0.042,0.626,0.067,0.942  c0.078,0.979,0.187,1.954,0.323,2.936c0.068,0.488,0.146,0.979,0.229,1.468c0.262,1.547,0.583,3.101,0.997,4.646  c0.319,1.189,0.693,2.355,1.091,3.501c0.192,0.554,0.382,1.1,0.592,1.643c0.046,0.118,0.102,0.232,0.148,0.351  c0.381,0.965,0.789,1.911,1.225,2.841c0.03,0.063,0.064,0.126,0.095,0.188c0.06,0.125,0.114,0.253,0.175,0.377  c0.241,0.498,0.484,0.994,0.741,1.482c2.288,4.348,5.175,8.265,8.524,11.675c0.045,0.045,0.09,0.089,0.135,0.135  c0.04,0.041,0.081,0.081,0.121,0.121c0.228,0.229,0.455,0.449,0.687,0.673c0.059,0.058,0.116,0.119,0.175,0.176  c0.261,0.249,0.528,0.496,0.795,0.74c0.324,0.297,0.651,0.588,0.983,0.875c0.003,0,0.011,0,0.014,0  c0.667,0.579,1.351,1.142,2.047,1.684c0.353,0.275,0.703,0.543,1.063,0.809c0.707,0.52,1.436,1.025,2.168,1.508  c1.169,0.771,2.366,1.497,3.595,2.168c0.139,0.076,0.278,0.154,0.417,0.229c0.318,0.17,0.635,0.336,0.956,0.498  c0.165,0.084,0.333,0.161,0.499,0.242c0.436,0.215,0.877,0.432,1.319,0.634c0.053,0.024,0.108,0.043,0.162,0.067  c0.57,0.257,1.144,0.504,1.724,0.74c0.527,0.215,1.055,0.422,1.589,0.619c0.175,0.064,0.35,0.126,0.525,0.188  c0.362,0.129,0.726,0.257,1.091,0.377c0.161,0.054,0.324,0.097,0.485,0.148c0.009,0,0.018,0.011,0.027,0.014  c0.545,0.174,1.091,0.343,1.643,0.499c1.21,0.34,2.438,0.626,3.676,0.875c7.308,1.467,15.058,1.332,22.745-0.728  c0.866-0.231,1.715-0.507,2.559-0.781c0.373-0.121,0.748-0.233,1.117-0.363c0.02-0.011,0.035-0.021,0.054-0.027  c1.164-0.41,2.306-0.858,3.421-1.347c0.3-0.131,0.592-0.267,0.889-0.403c0.071-0.033,0.145-0.062,0.215-0.095  c0.027-0.013,0.054-0.027,0.081-0.039c0.03-0.015,0.063-0.026,0.095-0.041c1.395-0.658,2.754-1.38,4.066-2.154  c0.076-0.045,0.153-0.089,0.229-0.135c0.268-0.16,0.531-0.32,0.795-0.484c0.338-0.211,0.665-0.429,0.996-0.646  c0.332-0.218,0.658-0.436,0.983-0.66c0.647-0.448,1.289-0.91,1.912-1.387c0.285-0.218,0.569-0.437,0.849-0.66  c0.027-0.021,0.053-0.045,0.08-0.066c0.127-0.102,0.252-0.207,0.377-0.311c0.178-0.145,0.351-0.296,0.525-0.443  c0.268-0.226,0.532-0.457,0.795-0.688c0.003,0,0.011,0,0.014,0c0.028-0.024,0.053-0.056,0.08-0.08  c0.294-0.26,0.59-0.516,0.876-0.781s0.568-0.537,0.849-0.809c0.153-0.148,0.307-0.293,0.457-0.444  c0.124-0.123,0.242-0.253,0.363-0.377c0.041-0.041,0.082-0.08,0.122-0.121c0.231-0.237,0.46-0.473,0.687-0.714  c0.166-0.177,0.336-0.346,0.498-0.525c0.041-0.045,0.081-0.09,0.121-0.135c0.061-0.065,0.116-0.135,0.176-0.201  c0.008-0.011,0.018-0.018,0.026-0.027c0.159-0.178,0.315-0.359,0.472-0.539c0.09-0.104,0.18-0.205,0.27-0.31  c0.099-0.116,0.198-0.233,0.296-0.35c0.072-0.087,0.144-0.17,0.216-0.256c0.079-0.097,0.15-0.2,0.229-0.296  c0.107-0.132,0.217-0.259,0.323-0.391c0.067-0.084,0.136-0.172,0.202-0.256c0.215-0.273,0.424-0.545,0.633-0.822  c0.031-0.041,0.063-0.08,0.094-0.121c0.061-0.08,0.117-0.162,0.176-0.242c0.103-0.139,0.209-0.277,0.31-0.418  c0.04-0.054,0.082-0.106,0.121-0.161c0.036-0.049,0.072-0.099,0.108-0.148c0.027-0.038,0.053-0.082,0.08-0.121  c0.022-0.03,0.045-0.063,0.067-0.094c0.004-0.011,0.01-0.011,0.013-0.015c0.032-0.043,0.064-0.09,0.096-0.135  c0.145-0.208,0.287-0.422,0.43-0.633c0.17-0.249,0.334-0.501,0.498-0.754c0.054-0.082,0.109-0.16,0.162-0.242  c0.032-0.05,0.062-0.099,0.095-0.148c0.014-0.021,0.026-0.045,0.04-0.066c0.166-0.261,0.324-0.518,0.484-0.781  c0.004-0.01,0.011-0.01,0.014-0.014c0.024-0.039,0.044-0.082,0.067-0.121c0.185-0.306,0.374-0.607,0.552-0.916  c0.016-0.026,0.025-0.055,0.041-0.081c0.09-0.157,0.181-0.313,0.27-0.472c0.1-0.179,0.197-0.358,0.296-0.539  c0.183-0.336,0.363-0.669,0.539-1.01c0,0,0-0.01,0-0.013c0.085-0.165,0.172-0.331,0.255-0.498c0.091-0.179,0.183-0.359,0.27-0.539  c0-0.01,0.011-0.018,0.015-0.026c0.101-0.209,0.198-0.423,0.296-0.633c0.01-0.019,0.018-0.036,0.027-0.055  c0.053-0.112,0.109-0.224,0.162-0.336c0.01-0.022,0.016-0.045,0.026-0.067c0.063-0.14,0.126-0.277,0.188-0.417  c0.049-0.108,0.101-0.215,0.148-0.324c0.037-0.084,0.07-0.171,0.107-0.256c0.014-0.03,0.027-0.062,0.04-0.094  c0.011-0.025,0.017-0.055,0.026-0.081c0.062-0.144,0.129-0.286,0.189-0.431c0.05-0.12,0.099-0.243,0.148-0.363  c0.014-0.035,0.025-0.072,0.039-0.107c0.018-0.046,0.036-0.091,0.055-0.135c0.125-0.314,0.244-0.627,0.363-0.943  c0.01-0.019,0.02-0.035,0.027-0.054c0.015-0.04,0.024-0.081,0.039-0.121c0.021-0.054,0.034-0.108,0.055-0.162  c0.068-0.184,0.137-0.367,0.201-0.552c0.026-0.072,0.056-0.143,0.082-0.216c0.023-0.067,0.043-0.134,0.066-0.202  c0.104-0.297,0.199-0.59,0.297-0.889c0.026-0.085,0.053-0.171,0.08-0.256c0.012-0.037,0.029-0.07,0.041-0.107  c0.107-0.343,0.221-0.691,0.322-1.037c0.023-0.08,0.045-0.162,0.067-0.242c0.089-0.31,0.173-0.617,0.256-0.93  c0.01-0.026,0.021-0.053,0.026-0.08c0.024-0.091,0.045-0.18,0.067-0.27c0.034-0.13,0.062-0.261,0.095-0.391  c0-0.018,0.01-0.036,0.014-0.055c0.031-0.125,0.064-0.251,0.094-0.377c0.062-0.256,0.117-0.51,0.176-0.768  c0.061-0.272,0.117-0.547,0.174-0.82c0.022-0.107,0.047-0.217,0.067-0.324c0.03-0.15,0.052-0.306,0.081-0.457  c0.045-0.235,0.094-0.465,0.135-0.701c0.027-0.161,0.054-0.322,0.081-0.484c0.036-0.223,0.073-0.45,0.108-0.673  c0.026-0.181,0.055-0.358,0.08-0.539c0.029-0.208,0.055-0.411,0.081-0.619c0.024-0.19,0.045-0.388,0.067-0.579  c0.01-0.084,0.018-0.172,0.027-0.256c0.035-0.322,0.064-0.646,0.094-0.97c0.025-0.283,0.047-0.564,0.066-0.849  c0.01-0.121,0.02-0.242,0.027-0.363c0.02-0.296,0.04-0.592,0.054-0.889c0-0.072,0-0.144,0-0.216c0-0.041,0.013-0.08,0.013-0.121  c0-0.076,0.012-0.153,0.014-0.229c0-0.085,0-0.171,0-0.257c0-0.155,0.01-0.314,0.014-0.471c0-0.242,0.012-0.484,0.014-0.727  c0-0.131,0-0.259,0-0.391c-0.001-0.266-0.01-0.528-0.014-0.794c-0.01-0.349-0.013-0.701-0.027-1.051c0-0.014,0.001-0.026,0-0.04  c0-0.035,0-0.072,0-0.108c-0.012-0.293-0.035-0.595-0.053-0.889c-0.011-0.125,0-0.252-0.015-0.377  c-0.019-0.282-0.044-0.566-0.067-0.849c0,0,0-0.01,0-0.013c0-0.045-0.01-0.09-0.013-0.135c0-0.027,0-0.054,0-0.081  c0-0.023-0.011-0.045-0.015-0.067c0,0,0.001-0.01,0-0.014c-0.034-0.385-0.076-0.772-0.121-1.158  c-0.039-0.347-0.088-0.69-0.135-1.037c-0.01-0.067-0.018-0.135-0.026-0.202c-0.049-0.351-0.104-0.7-0.161-1.05  c-0.01-0.054-0.019-0.108-0.027-0.162c-0.061-0.362-0.121-0.728-0.188-1.09c-0.013-0.062-0.015-0.126-0.026-0.189h-0.014  c-0.027-0.148-0.064-0.296-0.094-0.444c-0.047-0.232-0.086-0.468-0.135-0.7c-0.084-0.39-0.176-0.782-0.27-1.171  c0-0.014-0.01-0.027-0.014-0.04c-0.098-0.403-0.188-0.809-0.297-1.212c-0.414-1.548-0.906-3.052-1.454-4.525h0.015  c-0.043-0.113-0.093-0.224-0.135-0.336c-0.301-0.792-0.619-1.574-0.957-2.343c-0.01-0.021-0.017-0.045-0.027-0.067  c-0.327-0.744-0.676-1.473-1.036-2.195c-0.077-0.153-0.151-0.306-0.229-0.458c-0.111-0.218-0.222-0.431-0.336-0.646  c-0.342-0.641-0.697-1.276-1.064-1.898c-0.051-0.087-0.109-0.169-0.161-0.256c-0.192-0.322-0.38-0.64-0.579-0.956  c-0.02-0.031-0.035-0.064-0.055-0.094c-0.219-0.346-0.445-0.683-0.673-1.023c-0.025-0.038-0.042-0.083-0.067-0.121h-0.014  c-0.512-0.764-1.037-1.519-1.588-2.249c-0.156-0.206-0.313-0.403-0.473-0.606c-0.684-0.876-1.402-1.721-2.141-2.545  c-0.07-0.078-0.131-0.165-0.201-0.243c-0.683-0.754-1.391-1.486-2.115-2.195c-0.139-0.137-0.276-0.27-0.417-0.404  c-0.081-0.077-0.161-0.152-0.243-0.229c-0.104-0.098-0.204-0.199-0.309-0.296c-0.107-0.099-0.217-0.199-0.324-0.296  c-0.039-0.036-0.08-0.071-0.121-0.107c-0.256-0.231-0.521-0.461-0.781-0.687c-0.269-0.234-0.533-0.473-0.807-0.701  c-0.035-0.029-0.074-0.052-0.108-0.081c-0.657-0.543-1.323-1.067-2.007-1.576c-0.28-0.208-0.563-0.417-0.848-0.619  c-0.021-0.015-0.047-0.025-0.068-0.04c-0.059-0.042-0.115-0.093-0.174-0.135c-0.249-0.174-0.504-0.342-0.755-0.512  c-0.107-0.073-0.215-0.144-0.323-0.215c-0.014-0.01-0.027-0.018-0.04-0.027c-0.211-0.14-0.421-0.281-0.634-0.418  c-8.072-5.189-17.604-8.057-27.498-7.958L49.544,0.001z M46.083,3.826c5.642,1.726,10.955,4.362,15.742,7.77L10.842,25.251  c6-9.51,15.444-16.872,27.161-20.011C40.693,4.519,43.401,4.057,46.083,3.826z M69.703,18.396c0.668,0.701,1.307,1.429,1.939,2.168  L5.146,38.38C5.4,37.4,5.69,36.43,6.007,35.472L69.703,18.396z M74.402,24.052c0.533,0.738,1.051,1.494,1.549,2.262L3.879,45.625  c0.088-0.925,0.194-1.848,0.337-2.76L74.402,24.052z M81.189,36.737c0.627,1.667,1.199,3.374,1.67,5.131  c0.262,0.978,0.48,1.957,0.687,2.936L6.344,65.502c-0.406-1.148-0.77-2.319-1.091-3.516c-0.414-1.544-0.746-3.086-0.997-4.632  L81.189,36.737L81.189,36.737z M84.609,59.455c-0.149,2.345-0.455,4.669-0.902,6.948L18.423,83.896  c-1.775-1.651-3.434-3.443-4.942-5.373l4.498-1.199c-1.783-3.362,1.079-7.522,4.107-9.17c1.828-1.032,3.777-1.918,5.858-2.396  c4.58-1.238,10.94-1.277,13.52,3.447c0.215,0.584,0.341,1.16,0.364,1.723L84.609,59.455z M33.303,66.794  c-1.598-0.034-3.365,0.177-5.171,0.66c-5.779,1.548-9.787,5.313-8.955,8.417s6.193,4.376,11.972,2.827  c5.779-1.548,9.787-5.326,8.955-8.43C39.532,68.135,36.82,66.872,33.303,66.794z M80.866,76.086  c-0.478,1.199-0.989,2.381-1.548,3.541l-47.874,12.82c-1.395-0.61-2.753-1.29-4.08-2.033L80.866,76.086z M72.477,90.374  c-0.068,0.085-0.133,0.171-0.201,0.256c-3.186,1.742-6.627,3.14-10.289,4.12c-3.939,1.056-7.888,1.57-11.783,1.59L72.477,90.374  L72.477,90.374z"/>
</svg>
