<svg xmlns="http://www.w3.org/2000/svg" xmlns:xlink="http://www.w3.org/1999/xlink" version="1.1" id="Your_Icon" x="0px" y="0px" width="100px" height="100px" viewBox="0 0 100 100" enable-background="new 0 0 100 100" xml:space="preserve">
<g>
	<path fill="#000000" d="M48.61,22.778c3.583-0.212,7.193,0.357,10.589,1.504c3.857,1.341,7.418,3.53,10.346,6.377   c3.591,3.456,6.235,7.892,7.563,12.696c0.876,3.232,1.226,6.621,0.9,9.96c-1.569,1.424-3.35,2.607-5.151,3.719   c-6.023,3.598-12.692,6.018-19.504,7.621c-3.25,0.773-6.559,1.295-9.877,1.639c-2.844,0.314-5.715,0.383-8.576,0.307   c-3.031-0.162-6.09-0.443-9.021-1.271c-2.161-3.539-3.485-7.584-3.873-11.707c-0.131-0.699-0.028-1.418-0.152-2.117   c-0.008-0.424-0.008-0.849,0-1.272c0.124-0.699,0.021-1.418,0.152-2.118c0.38-4.098,1.701-8.107,3.821-11.636   c3.031-5.106,7.726-9.202,13.195-11.512C42.056,23.678,45.319,22.937,48.61,22.778z"/>
	<path fill="#000000" d="M68.901,27.872c6.066-0.059,12.189,0.304,18.083,1.839c2.356,0.641,4.674,1.479,6.812,2.67   c1.855,1.056,3.599,2.411,4.78,4.213c0.977,1.477,1.506,3.261,1.413,5.034c-0.047,2.07-0.863,4.04-1.914,5.795   c-1.296,2.137-3.017,3.975-4.842,5.667c-3.388,3.066-7.26,5.547-11.263,7.725c-8.826,4.697-18.368,7.943-28.103,10.148   c-9.206,2.051-18.654,3.166-28.094,2.83c-1.011-0.113-2.036-0.068-3.051-0.174c-3.653-0.314-7.305-0.861-10.826-1.906   c-2.739-0.814-5.427-1.947-7.722-3.674c-1.719-1.318-3.21-3.061-3.824-5.172c-0.636-2.072-0.362-4.334,0.445-6.318   c1.082-2.668,2.939-4.938,4.961-6.953c2.891-2.803,6.199-5.142,9.657-7.19c2.455-1.439,4.976-2.779,7.578-3.927   c-1.039,2.392-1.848,4.891-2.265,7.47c-0.17,0.565-0.083,1.196-0.286,1.739c-1.206,1.164-2.4,2.362-3.343,3.757   c-1.242,1.795-2.2,3.918-2.09,6.145c0.059,2.057,1.125,3.982,2.627,5.348c2.644,2.367,6.101,3.584,9.523,4.291   c4.582,0.959,9.297,1.094,13.957,0.814c5.423-0.377,10.809-1.312,16.044-2.773c4.927-1.383,9.742-3.209,14.253-5.637   c2.259-1.215,4.431-2.598,6.459-4.172c2.192-1.723,4.224-3.717,5.65-6.132c0.865-1.491,1.512-3.172,1.466-4.919   c0.043-1.947-0.87-3.818-2.209-5.194c-2.061-2.116-4.86-3.286-7.631-4.147c-1.737-2.661-3.835-5.101-6.293-7.125L68.901,27.872z"/>
	<path fill="#000000" d="M41.902,74.59c10.738-1.332,21.32-4.006,31.373-8.016c-0.029,0.189-0.185,0.324-0.279,0.484   c-2.942,4.168-7.026,7.527-11.704,9.574c-6.297,2.787-13.618,3.131-20.145,0.936c-1.806-0.57-3.521-1.395-5.178-2.303   c-0.004-0.039-0.01-0.119-0.013-0.156C37.947,75.068,39.927,74.812,41.902,74.59z"/>
</g>
</svg>
