<svg xmlns="http://www.w3.org/2000/svg" xmlns:xlink="http://www.w3.org/1999/xlink" version="1.1" id="Layer_1" x="0px" y="0px" width="100px" height="100px" viewBox="0 0 100 100" enable-background="new 0 0 100 100" xml:space="preserve">
<g>
	<path fill="#000000" d="M27.426,67.031c-1.619,4.891-6.232,8.422-11.67,8.422c-5.617,0-10.35-3.766-11.82-8.908   c-0.307-1.072-0.471-2.211-0.471-3.385c0-6.787,5.5-12.289,12.291-12.289c1.654,0,3.23,0.324,4.672,0.916l1.051-2.256   c-1.773-0.994-3.83-1.637-5.924-1.637c-0.988,0-2.459,0.205-2.459,0.205c-0.264,0.023-0.551,0.037-0.828,0.037l-0.207-0.002   C5.301,49.789,0.284,55.889,0.284,63.16c0,1.162,0.129,2.295,0.373,3.385c1.539,6.918,7.715,12.088,15.1,12.088   c6.262,0,11.654-3.717,14.092-9.068C28.893,68.875,28.129,68.02,27.426,67.031z"/>
	<path fill="#000000" d="M39.28,66.545c-0.611-1.354-1.84-4.152-3.137-7.668c-1.211-3.271-2.645-7.279-3.16-11.018   c-0.365-2.667,0.195-5.646,0.92-8.172c0.725-2.521,1.625-4.617,1.955-5.538l0.074-0.219l0.129-0.384l0.109-0.324   c0.123-0.607-0.461-0.659-1.771-1.296c-0.592-0.289-0.736-0.201-0.863,0.048l-0.494,1.008l-4.633,9.615   c0.859,0.674,1.676,1.746,2.016,3.655c0.457,2.576,0.754,7.037,7.521,20.292v0.002c0.418,0.815,0.861,1.673,1.33,2.562   c0.135,0.225,0.287,0.354,0.451,0.426c0.672-0.539,0.014-1.998-0.037-2.109C39.69,67.424,39.538,67.111,39.28,66.545z"/>
	<path fill="#000000" d="M12.268,47.365c0.254,0,0.502-0.011,0.744-0.031c0,0,1.514-0.209,2.543-0.209   c2.182,0,4.355,0.665,6.246,1.711l1.658-3.552c-2.232-1.023-4.873-1.653-7.703-1.626c-3.324,0.029-6.164,0.455-8.551,1.289   C7.706,46.365,9.795,47.365,12.268,47.365z"/>
	<ellipse fill="#000000" cx="19.983" cy="62.898" rx="3.139" ry="2.394"/>
	<path fill="#000000" d="M26.907,56.723c0.037-1.166-0.48-2.463-1.385-3.699l-0.803,1.726c0.818,0.873,1.508,1.864,2.047,2.944   C26.85,57.383,26.897,57.059,26.907,56.723z"/>
	<path fill="#000000" d="M19.983,59.734c0.496,0,0.992,0.078,1.455,0.229l5.977-12.831c1.006-2.157-2.113-3.664-3.201-1.646   L17.102,60.75C17.854,60.1,18.918,59.734,19.983,59.734z"/>
	<path fill="#000000" d="M26.782,44.235c0.658,0.309,1.102,0.892,1.26,1.555l0.797-1.708c-0.693-0.986-1.695-1.229-3.02-2.028   l-0.246,0.517l-0.789,1.695C25.391,43.962,26.12,43.927,26.782,44.235z"/>
	<path fill="#000000" d="M28.141,48.631c-0.125-0.137-0.252-0.271-0.383-0.406l-1.867,4.007c1.158,1.453,1.834,3.039,1.787,4.515   c-0.078,2.418-1.805,4.42-4.133,4.821c0.223,0.394,0.348,0.838,0.348,1.33c0,0.222-0.023,0.437-0.072,0.64   c1.168,0.073,2.564,0.405,3.209,1.469c0.217,0.359,0.527,0.914,0.963,1.539c0.955,1.353,2.516,3.017,5.117,3.662   c-0.787-1.073-1.035-2.304-1.043-3.66C32.04,61.883,34.809,55.654,28.141,48.631z"/>
	<path fill="#000000" d="M28.864,30.465v-5.674c-0.562,0.408-0.965,1.523-0.965,2.837C27.899,28.944,28.301,30.06,28.864,30.465z"/>
	<path fill="#000000" d="M33.676,18.243c-0.217,0.012-0.477,0.009-0.713,0.04v0.436c0,0.567,0.461,1.027,1.029,1.027h0.09   c0.568,0,1.027-0.46,1.027-1.027v-1.92c0-0.567-0.459-1.027-1.027-1.027h-0.09c-0.568,0-1.029,0.46-1.029,1.027v0.453l0.656-0.035   C34.307,17.178,34.362,18.207,33.676,18.243z"/>
	<path fill="#000000" d="M36.086,27.69c0,0.63,0.506,1.144,1.135,1.157l2.766-0.001c0.637,0,1.156-0.518,1.156-1.156   c0-0.638-0.52-1.156-1.156-1.156l-2.766,0.001C36.592,26.549,36.086,27.059,36.086,27.69z M39.987,27.253   c0.242,0,0.434,0.196,0.434,0.437s-0.191,0.436-0.434,0.436c-0.24,0-0.438-0.194-0.438-0.436   C39.549,27.45,39.747,27.253,39.987,27.253z"/>
	<path fill="#000000" d="M32.836,23.325h0.539l-1.266-3.978c-0.24-0.743,0.135-1.284,0.75-1.317l0.801-0.045   c0.344-0.018,0.316-0.529-0.027-0.512l-0.801,0.044c-1.023,0.055-1.531,0.996-1.213,1.988L32.836,23.325z"/>
	<path fill="#000000" d="M29.891,31.046h0.189c0.07,0.148,0.213,0.256,0.379,0.284c0.246-0.169,0.551-0.22,0.938-0.037l1.111,0.546   c0.861-1.173,2.312-0.751,3.355-0.067c0.361-1.268,0.889-2.015,1.02-2.189c-0.893-0.168-1.564-0.951-1.564-1.893   c0-1.019,0.787-1.854,1.791-1.923c-0.828-1.17-2.342-1.414-2.342-1.414c0-0.285-0.23-0.514-0.514-0.514h-3.711   c-0.234,0-0.434,0.156-0.492,0.372h-0.16c-0.285,0-0.514,0.229-0.514,0.514v5.808C29.377,30.818,29.606,31.046,29.891,31.046z    M32.493,24.747h0.723c0.039-0.643,1.027-0.629,1.027,0.042v3.492c0,0.671-0.986,0.685-1.027,0.041h-0.738   c-1.121,0-1.607-0.856-1.607-1.787C30.87,25.602,31.356,24.748,32.493,24.747z"/>
	<path fill="#000000" d="M32.477,27.807h0.736v-2.546h-0.721c-0.754,0-1.109,0.515-1.109,1.273   C31.383,27.294,31.741,27.807,32.477,27.807z"/>
	<path fill="#000000" d="M26.754,40.316l4.055-6.69c0.02-0.036,0.088-0.207-0.076-0.297c-0.086-0.049-0.289-0.155-0.541-0.283   l-1.746-0.188c-0.039,0-0.123,0.023-0.152,0.107c-0.027,0.076-1.311,3.655-1.318,3.691c-0.006,0.035-0.021,0.094,0.057,0.161   c0.17,0.144,0.828,0.729,0.828,0.729l-1.498,2.512L26.754,40.316z"/>
	<circle fill="#000000" cx="53.049" cy="67.72" r="0.864"/>
	<path fill="#000000" d="M70.83,67.088c0.363,0,0.676-0.225,0.803-0.541c0.039-0.102,0.062-0.209,0.062-0.324   c0-0.477-0.389-0.863-0.865-0.863s-0.865,0.388-0.865,0.863c0,0.115,0.025,0.223,0.062,0.322v0.002   C70.156,66.863,70.467,67.088,70.83,67.088z"/>
	<path fill="#000000" d="M64.773,68.549l-0.537,0.535h-4.719h-1.109h-3.074c-0.059,0.1-0.123,0.193-0.197,0.285   c0.787,0.365,1.791,0.598,3.078,0.598h8.629c-0.232-0.461-0.445-0.939-0.648-1.43L64.773,68.549z"/>
	<path fill="#000000" d="M61.383,64.652l0.213,0.004l1.066-0.061l13.148-0.72c0.492-0.021,2.301-0.162,2.271-0.985   c-0.026-0.814-1.877-0.816-2.354-0.8l-13.051,0.173l-1.172,0.014c-0.678,0-1.184,0.104-1.525,0.264   c-0.938,0.416-1.033,1.469-0.045,1.869C60.264,64.545,60.736,64.635,61.383,64.652z M60.412,63.141   c0.217,0,0.395,0.176,0.395,0.396c0,0.215-0.178,0.395-0.395,0.395c-0.221,0-0.398-0.18-0.398-0.395   C60.014,63.316,60.191,63.141,60.412,63.141z"/>
	<polygon fill="#000000" points="65.17,54.316 64.746,54.316 64.555,56.236 64.979,56.236  "/>
	<path fill="#000000" d="M82.846,63.889l-5.598,0.312c-0.516,0.129-1.061,0.176-1.418,0.188l-9.15,0.502   c0.467,0.623,1.24,1.031,2.301,1.037h0.504c0.136-0.619,0.688-1.084,1.347-1.084c0.662,0,1.211,0.465,1.349,1.084h9.002   c2.243-0.004,3.196-1.533,3.2-3.088c0.007-1.375-0.713-2.66-1.873-2.988c0.121,0.914,0.459,1.412,0.701,1.479   C84.49,61.803,84.289,63.812,82.846,63.889z"/>
	<polygon fill="#000000" points="62.828,54.322 62.402,54.322 62.34,54.967 62.764,54.967  "/>
	<path fill="#000000" d="M58.393,52.684c-1.66,0.486-2.543,1.107-2.449,1.902c0.246,2.035,2.107,4.861,3.979,4.965l6.863,0.029   c1.873-0.031,2.381-1.061,2.758-1.904c0.358-1.016,1.642-4.74,1.599-5.535c-0.043-0.869-0.441-0.961-1.252-0.99   c0,0-1.074-0.192-6.16,0.543C62.041,51.939,59.992,52.211,58.393,52.684z M66.08,53.686l-0.322,3.191h-2.111l0.316-3.191H66.08z    M63.42,56.877l-2.111,0.002l0.062-0.633h1.264l0.062-0.643l-1.268,0.006l0.189-1.924h2.121L63.42,56.877z"/>
	<path fill="#000000" d="M85.562,66.258c-0.076,0.098-0.152,0.189-0.23,0.283H85.33c-1.021,1.158-2.504,1.865-4.158,1.865   l-9.852,0.086c0.289,0.52,0.604,1.014,0.949,1.475h9.543c4.44,0,8.164-0.637,9.135-1.49v-0.889   c-0.473-0.416-1.604-0.781-3.152-1.043v-0.002C87.123,66.428,86.371,66.334,85.562,66.258z"/>
	<path fill="#000000" d="M71.051,41.647h17.889c0.685,0,0.685-1.026,0-1.026h-0.477v-1.917c0-0.85-0.691-1.541-1.543-1.541H73.711   c-0.85,0-1.539,0.691-1.539,1.541v1.917h-0.604v-3.648c0-0.685-1.031-0.685-1.031,0v4.161   C70.537,41.407,70.781,41.647,71.051,41.647z"/>
	<path fill="#000000" d="M67.451,50.711c1.117-0.098,2.025-0.137,2.492-0.072c1.078,0.039,1.656,0.357,1.713,1.478   c0.008,0.187-0.039,0.491-0.123,0.866c1.252-1.225,2.725-2.217,4.359-2.919l-1.199-4.104   C71.926,46.963,69.434,48.609,67.451,50.711z"/>
	<path fill="#000000" d="M88.953,44.891c2.08,1.27,3.979,2.941,5.631,4.869c0.125,0.135,0.326,0.215,0.516,0.213   c0.424,0,0.775-0.348,0.775-0.771v-1.391h-0.668c-0.137,0-0.256-0.121-0.256-0.258v-3.569h-5.457   C89.033,43.984,88.395,44.574,88.953,44.891z"/>
	<path fill="#000000" d="M99.311,45.292c0-1.083-0.977-2.003-2.252-2.004h-1.596v4.009h1.615   C98.332,47.297,99.311,46.376,99.311,45.292z"/>
	<path fill="#000000" d="M79.9,50.049l-2.15-7.368c-0.057-0.208-0.146-0.386-0.252-0.533h-2.461   c-0.283,0.345-0.414,0.824-0.248,1.397l2.152,7.369c0.147,0.51,0.459,0.83,0.824,0.992l2.053,7.035   c0.385,1.315,2.356,0.742,1.973-0.574L79.74,51.33C79.961,50.998,80.051,50.562,79.9,50.049z"/>
	<path fill="#000000" d="M78.672,57.76l-8.854,0.531c-0.262,0.512-0.642,1.061-1.318,1.414l-0.096,0.344   c0.178-0.031,0.361-0.055,0.555-0.072l10.18-0.645c-0.022-0.057-0.041-0.115-0.059-0.172L78.672,57.76z"/>
	<path fill="#000000" d="M82.434,57.807l0.103,0.344c0.127,0.441,0.104,0.836-0.024,1.168c1.54,0.341,2.395,1.976,2.385,3.523   c-0.008,1.783-1.133,3.598-3.715,3.602h-8.99c-0.006,0.035-0.01,0.07-0.019,0.103v0.002C72.023,67.15,71.479,67.6,70.83,67.6   s-1.195-0.449-1.338-1.055H69.49c-0.008-0.033-0.014-0.068-0.018-0.102h-0.494c-1.347-0.008-2.353-0.605-2.894-1.523l-3.392,0.188   l-1.084,0.062l-0.233-0.002c-0.354-0.011-0.676-0.039-0.953-0.088v1.467v0.336c0,0.541-0.176,1.037-0.471,1.435h3.967l0.533-0.535   l16.719-0.141c1.156,0,2.218-0.404,3.047-1.093h0.005c1.063-0.885,1.743-2.241,1.743-3.823   C85.967,60.371,84.469,58.395,82.434,57.807z"/>
	<path fill="#000000" d="M76.102,50.789c-1.99,0.869-3.697,2.215-5.033,3.914c-0.315,1.037-0.684,2.123-0.918,2.797l0.468-0.025   c1.291-2.471,3.396-4.447,5.957-5.57c-0.16-0.223-0.287-0.479-0.373-0.772L76.102,50.789z"/>
	<path fill="#000000" d="M60.037,60.501L60.037,60.501c0.244,0.376,0.387,0.833,0.387,1.364c0.316-0.064,0.674-0.098,1.08-0.098   l1.164-0.019l3.26-0.043c0.227-0.504,0.596-0.912,1.117-1.205H60.037z"/>
	<path fill="#000000" d="M77.344,61.715c1.621-0.098,1.779-0.723,1.99-1.881L69.002,60.49c-1.334,0.109-2.1,0.561-2.49,1.209   l9.203-0.123C76.113,61.562,76.762,61.57,77.344,61.715z"/>
	<path fill="#000000" d="M88.994,47.261h-0.74v2.547h0.752c0.738,0,1.1-0.514,1.1-1.271C90.105,47.777,89.746,47.261,88.994,47.261z   "/>
	<path fill="#000000" d="M48.93,61.523c-1.318,0-2.387,1.072-2.387,2.389c0,1.32,1.068,2.389,2.387,2.389   c1.32,0,2.388-1.068,2.388-2.389C51.318,62.596,50.25,61.523,48.93,61.523z"/>
	<path fill="#000000" d="M47.754,59.732h5.76h5.219c-1.732-0.892-3.088-3.351-3.297-5.082c-0.158-1.281,1.26-2.006,2.812-2.461   c1.479-0.438,5.457-1.088,8.438-1.402c2.104-2.373,4.818-4.225,7.861-5.323l-0.5-1.702c-0.176-0.618-0.127-1.162,0.078-1.611h-1.33   c-1.387,0.814-2.486,1.083-3.193,1.161c-0.082,0.974-0.574,1.819-1.291,2.228l-10.088,6.173c-0.111,0.08-0.67,0.438-1.863,0.365   c-0.668,0.83-1.827,1.299-3.301,1.369v5.252c0,0.686-1.029,0.686-1.029,0v-5.275c-0.147-0.018-0.299-0.039-0.452-0.07l-0.244,0.146   c-6.185,3.528-11.029,3.537-13.99,2.985c-0.336-0.062-0.24-0.565,0.096-0.506c2.807,0.523,7.447,0.541,13.413-2.797   c-3.882-1.129-8.337-5.443-9.9-7.555c-1.795-2.432-1.084-3.679-0.457-4.007c0.594-0.313,0.055-1.251,0.055-1.251   s-1.045-2.467-1.566-3.735c-0.52-1.268-1.393-0.354-1.797-0.354c-0.252,0-0.684-0.93-0.969-1.62   c-0.395,1.034-1.176,2.936-1.82,5.171c-0.719,2.504-1.256,5.4-0.904,7.963c0.508,3.668,1.922,7.629,3.131,10.906   c1.365,3.698,2.652,6.604,3.221,7.846C40.04,66.973,40.15,67.2,40.15,67.2s0.062,0.125,0.139,0.321   c0.219,0.592,0.398,1.412,0.09,2.01c0.322-0.106,0.562-0.315,0.562-0.315l3.615-2.356l0.008-0.312l0.109-3.73   C44.672,61.111,46.051,59.732,47.754,59.732z M35.333,52.988c0-0.945-0.215-2.082,1.855-1.555c0.92,0.233,3.236,1.168,3.201,3.2   c-0.018,0.945-2.105,0.533-3.043,0.41C36.25,54.902,35.333,53.938,35.333,52.988z M40.077,61.766c-1.154,0-2.09-0.938-2.09-2.09   c0-1.156,0.936-2.09,2.09-2.09c1.154,0,2.09,0.934,2.09,2.09C42.167,60.828,41.231,61.766,40.077,61.766z"/>
	<path fill="#000000" d="M57.939,51.287l10.115-6.193c0.528-0.3,0.938-0.951,1.03-1.756c-0.244-0.003-0.375-0.029-0.375-0.029   c-0.565,0-1.026-0.459-1.026-1.027v-0.135l-13.623-0.03c-0.338,0-0.621,0.214-0.73,0.556c-0.014,0.068-0.023,0.142-0.023,0.216   c0,0-0.065,0.368,0.351,0.841c3.127,3.539,3.829,6.205,3.024,7.84C57.178,51.586,57.635,51.51,57.939,51.287z M56.066,44.958   c-0.324-0.118-0.144-0.602,0.18-0.481c1.246,0.463,2.924,0.749,4.762,0.749c2.129,0,4.027-0.382,5.324-0.979   c0.314-0.145,0.523,0.323,0.217,0.467c-1.387,0.637-3.361,1.026-5.541,1.026C59.125,45.739,57.383,45.446,56.066,44.958z"/>
	<path fill="#000000" d="M52.588,41.6c0.166,0.146,0.357,0.296,0.527,0.419c0.232-0.258,0.57-0.416,0.945-0.416l14.508,0.031   c0.133-0.164,0.215-0.392,0.279-0.632c0.133-0.479,0.112-1.91,0.055-2.771c-0.055-0.816-0.748-0.825-0.748-0.825l-1.023-0.054   C56,36.809,53.145,37.554,53.145,37.554c-0.592,0.142-1.059,0.473-1.028,1.028l-0.013,2.016   C52.104,41.151,52.215,41.263,52.588,41.6z"/>
	<path fill="#000000" d="M79.787,60.172c-0.221,1.021-0.494,1.674-1.568,1.939c0.221,0.184,0.367,0.432,0.379,0.758   c0.012,0.312-0.102,0.561-0.287,0.758l4.506-0.252c0.861-0.045,0.988-1.266,0.234-1.557c-0.57-0.162-0.91-0.965-1.041-1.816   C81.402,60.508,80.461,60.621,79.787,60.172z"/>
	<path fill="#000000" d="M27.985,42.295l4.598-9.543l-1.535-0.771c0,0-0.197-0.104-0.293,0.07l-0.309,0.546   c0.248,0.128,0.453,0.234,0.535,0.282c0.375,0.208,0.469,0.644,0.277,0.991l-4.201,6.938c-0.066,0.111-0.133,0.199-0.395,0.034   c-0.158-0.092-0.355-0.214-0.562-0.345l-0.16,0.27c0,0-0.178,0.334,0.178,0.566C26.54,41.593,27.249,41.822,27.985,42.295z"/>
	<path fill="#000000" d="M15.756,68.604c1.727,0,3.268-0.807,4.264-2.059v-0.004c0.121-0.158,0.24-0.324,0.35-0.494   c-0.131,0.012-0.258,0.016-0.387,0.016c-1.678,0-3.361-0.914-3.801-2.396c-0.445-0.653-0.582-1.521-0.135-2.478l1.477-3.174   c-0.555-0.19-1.148-0.295-1.768-0.295c-3.006,0-5.441,2.438-5.441,5.439c0,1.279,0.443,2.455,1.182,3.385v0.002   C12.493,67.799,14.03,68.604,15.756,68.604z"/>
	<path fill="#000000" d="M56.449,66.545v-0.004c0.02-0.119,0.031-0.24,0.031-0.365v-3.523c0-0.979-0.605-1.811-1.459-2.149h-1.508   h-5.76c-1.277,0-2.312,1.047-2.312,2.322l-0.125,3.721L45.292,67.3l0.725,1.017h5.236c0.25,0.752,0.959,1.297,1.797,1.297   c0.839,0,1.548-0.545,1.798-1.297h0.209C55.783,68.012,56.324,67.344,56.449,66.545z M50.153,66.545v0.002   c-0.371,0.172-0.783,0.268-1.223,0.268c-0.436,0-0.846-0.096-1.221-0.27h-0.006c-0.99-0.465-1.674-1.467-1.674-2.633   c0-1.6,1.299-2.9,2.9-2.9c1.603,0,2.904,1.301,2.904,2.9C51.834,65.08,51.146,66.086,50.153,66.545z M53.049,69.096   c-0.76,0-1.377-0.615-1.377-1.377c0-0.496,0.262-0.934,0.658-1.174c0.209-0.133,0.455-0.203,0.719-0.203s0.512,0.07,0.721,0.203   c0.396,0.24,0.66,0.678,0.66,1.174C54.43,68.48,53.811,69.096,53.049,69.096z"/>
	<path fill="#000000" d="M56.973,66.547h-0.002c-0.092,0.703-0.443,1.324-0.955,1.768h3.229c0.401-0.328,0.664-0.844,0.664-1.434   v-1.932l-0.168-0.062c-1.404-0.572-1.324-2.213,0.022-2.812l0.146-0.062v-0.195c0-0.524-0.205-0.989-0.529-1.315h-3.377   c0.608,0.521,0.992,1.289,0.992,2.149C56.995,62.652,56.984,66.426,56.973,66.547L56.973,66.547z"/>
	<path fill="#000000" d="M99.576,60.051c-0.617-0.455-1.09-1.18-1.332-2.043c-0.586-2.682-1.617-5.26-3.021-7.527l-0.121,0.004   c-0.328,0.008-0.672-0.137-0.897-0.379c-1.623-1.895-3.483-3.534-5.517-4.772c-0.625-0.359-0.555-0.979-0.178-1.406   c-0.311-0.166-0.619-0.324-0.943-0.471c0,0-0.6-0.25-0.6-0.784v-0.521h-8.586c0.041,0.1,0.08,0.203,0.111,0.314l0.576,1.972   c0.613-0.062,1.233-0.095,1.858-0.095c2.513,0,4.847,0.509,6.939,1.427c-0.046-0.005-0.087-0.007-0.123-0.007   c-0.231,0-0.476,0.078-0.671,0.234c-1.872-0.736-3.938-1.14-6.146-1.14c-0.577,0-1.147,0.026-1.717,0.081l1.177,4.019   c0.37-0.027,0.747-0.043,1.127-0.043c1.836,0,3.59,0.346,5.198,0.979v0.389c0,0.188,0.043,0.355,0.113,0.492   c-1.63-0.701-3.429-1.087-5.312-1.087c-0.306,0-0.607,0.01-0.906,0.029l0.033,0.117c0.108,0.371,0.133,0.73,0.075,1.062   c0.269-0.019,0.531-0.023,0.798-0.023c6.791,0,12.291,5.502,12.291,12.289c0,1.174-0.162,2.312-0.47,3.385v0.002   c-1.472,5.141-6.205,8.906-11.821,8.906c-4.873,0-9.089-2.838-11.076-6.951l-3.437,0.029c2.183,5.898,7.854,10.102,14.513,10.102   c7.383,0,13.561-5.17,15.102-12.088v-0.002c0.242-1.09,0.371-2.221,0.371-3.383c0-0.715-0.047-1.42-0.144-2.109   c-1.192-0.361-2.274-1.078-2.594-2.311c-1.112-3.201-3.397-5.855-6.343-7.445c0.281-0.047,0.562-0.205,0.724-0.479   c2.955,1.703,5.236,4.438,6.363,7.707c0,0,0.42,2.049,3.891,2.049c0,0,0.8,0.002,0.8-0.309   C99.684,60.17,99.619,60.084,99.576,60.051z M89.006,50.322h-0.752c-0.043,0.643-1.027,0.629-1.027-0.041v-1.104   c-0.199-0.008-0.854-0.129-0.854-0.129c-0.684,0-0.684-1.025,0-1.025c0,0,0.654-0.119,0.854-0.129V46.79   c0-0.671,0.984-0.688,1.027-0.043h0.74c1.137,0.001,1.623,0.856,1.623,1.79C90.617,49.467,90.131,50.322,89.006,50.322z    M94.652,52.17c-0.941-1.422-2.09-2.684-3.4-3.744c-0.266-0.213,0.055-0.615,0.324-0.398c1.354,1.09,2.533,2.391,3.508,3.857   C95.273,52.17,94.842,52.455,94.652,52.17z"/>
</g>
</svg>
