<svg xmlns="http://www.w3.org/2000/svg" xmlns:xlink="http://www.w3.org/1999/xlink" version="1.1" id="Layer_1" x="0px" y="0px" width="100px" height="100px" viewBox="0 0 100 100" enable-background="new 0 0 100 100" xml:space="preserve">
<g>
	<g>
		<path d="M89.662,47.78H58.25v4.77h31.412V47.78z M53.081,17.164H22.465v4.771h30.618v-4.771H53.081z M89.662,67.859H58.25v4.771    h31.412V67.859z M89.662,57.719H58.25v4.772h31.412V57.719z M84.096,89.133H5.567V22.729h1.79v-5.566H0v77.534h89.662v-7.354    h-5.566V89.133L84.096,89.133z M89.065,17.164H58.25v25.049h30.815V17.164z M53.081,67.859H22.465v4.771h30.618v-4.771H53.081z     M11.531,6.229v77.535H100V6.229H11.531z M94.434,78.195H17.097V11.597h77.336L94.434,78.195L94.434,78.195z M53.081,57.719    H22.465v4.772h30.618v-4.772H53.081z M53.081,27.302H22.465v4.771h30.618v-4.771H53.081z M53.081,47.78H22.465v4.77h30.618v-4.77    H53.081z M53.081,37.64H22.465v4.771h30.618V37.64H53.081z"/>
	</g>
</g>
</svg>
