<svg xmlns="http://www.w3.org/2000/svg" xmlns:xlink="http://www.w3.org/1999/xlink" version="1.1" id="Layer_1" x="0px" y="0px" width="100px" height="100px" viewBox="0 0 100 100" enable-background="new 0 0 100 100" xml:space="preserve">
<g>
	<path d="M53.66,89.814v-14.75h-6.933v14.75c0,1.955,1.569,3.512,3.466,3.512C52.092,93.326,53.66,91.77,53.66,89.814L53.66,89.814z    M69.319,63.076l-0.021-31.071c-0.373-11.093-5.506-19.79-12.117-23.387c-2.771,7.267-9.805,12.429-18.045,12.429   c-1.97,0-3.871-0.295-5.661-0.844c-1.423,3.455-2.309,7.443-2.462,11.802v31.071c0,2.44,2.135,4.646,5.056,4.646h28.196   C67.184,67.722,69.319,65.517,69.319,63.076L69.319,63.076z M58.562,89.814c0,4.629-3.731,8.41-8.368,8.41s-8.367-3.781-8.367-8.41   V72.513h-5.479c-5.573,0-10.345-4.314-10.345-9.945l0.002-30.552c0.232-6.668,2.12-13.06,5.246-18.216   c2.266,1.484,4.975,2.348,7.887,2.348c7.771,0,14.107-6.156,14.395-13.858c11.958,1.996,20.292,15.206,20.779,29.728l0.022,30.551   c0,5.629-4.773,9.945-10.345,9.945h-5.427V89.814L58.562,89.814z"/>
</g>
</svg>
