<svg xmlns="http://www.w3.org/2000/svg" xmlns:xlink="http://www.w3.org/1999/xlink" version="1.1" id="Layer_1" x="0px" y="0px" width="100px" height="100px" viewBox="0 0 100 100" enable-background="new 0 0 100 100" xml:space="preserve">
<path fill="none" d="M57.236,69.745c0.295,3.507,0.613,5.875,0.613,5.875h-2.477c-0.09-2.014-0.137-4.01-0.152-5.971  c-0.385-0.012-0.772-0.021-1.175-0.027c-0.356-0.005-0.7-0.005-1.038-0.001c0.202,1.824,0.385,3.673,0.537,5.537l-3.394,0.445  c0,0,0.033-2.314-0.072-5.883c-9.9,0.666-10.627,4.393-10.627,4.393c0.991,2.46,7.146,4.36,14.594,4.36  c7.451,0,13.607-1.9,14.595-4.36C68.641,74.113,68.632,70.476,57.236,69.745z"/>
<path d="M57.131,68.463c-0.562-7.375-0.889-18.594,1.578-24.457c0,0-0.082-1.271-1.975-1.04c0,0-1.54,11.566-1.52,25.4  c-0.388-0.009-0.774-0.018-1.169-0.018c-0.396,0-0.792,0.009-1.183,0.018c-2.193-18.591-6.595-34.292-6.595-34.292  c-2.64,0.045-2.54,1.669-2.54,1.669c4.698,7.523,5.972,23.519,6.31,32.796c-6.19,0.599-10.728,2.551-10.728,4.871  c0,0.239,0.141,0.702,0.141,0.702s0.727-3.727,10.627-4.393c0.105,3.568,0.072,5.883,0.072,5.883l3.394-0.445  c-0.152-1.864-0.335-3.713-0.537-5.537c0.338-0.004,0.682-0.004,1.038,0.001c0.402,0.007,0.79,0.016,1.175,0.027  c0.016,1.961,0.062,3.957,0.152,5.971h2.477c0,0-0.318-2.368-0.613-5.875c11.396,0.73,11.404,4.368,11.404,4.368  s0.145-0.463,0.145-0.702C68.785,70.978,63.79,68.947,57.131,68.463z"/>
<path d="M54.046,78.474c-7.448,0-13.604-1.9-14.594-4.36l4.547,21.859c0,1.903,4.499,3.446,10.047,3.446  c5.55,0,10.053-1.543,10.053-3.446l4.542-21.859C67.653,76.573,61.497,78.474,54.046,78.474z"/>
<path d="M45.587,32.387c0,0,4.432-2.803,1.84-9.238C47.427,23.148,43.2,27.4,45.587,32.387z"/>
<path d="M44.408,33.142c0,0,2.458-4.634-2.991-8.932C41.417,24.21,39.859,30,44.408,33.142z"/>
<path d="M39.671,27.768c0,0,1.904-4.887-4.006-8.526C35.665,19.242,34.788,25.173,39.671,27.768z"/>
<path d="M40.05,32.06c0,0,0.219-5.24-6.551-6.767C33.499,25.292,34.59,31.187,40.05,32.06z"/>
<path d="M39.596,33.215c0,0-2.756-4.461-9.217-1.934C30.379,31.281,34.586,35.553,39.596,33.215z"/>
<path d="M24.47,35.08c0,0-2.757-4.462-9.219-1.935C15.251,33.146,19.46,37.416,24.47,35.08z"/>
<path d="M31.967,38.378c0,0,0.087-5.246-6.719-6.603C25.249,31.776,26.49,37.641,31.967,38.378z"/>
<path d="M29.953,38.638c0,0-2.532-4.595-9.112-2.392C20.841,36.246,24.831,40.721,29.953,38.638z"/>
<path d="M25.908,39.099c0,0-3.043-4.27-9.325-1.321C16.583,37.777,21.066,41.761,25.908,39.099z"/>
<path d="M30.498,42.181c0,0-4.264-3.055-9.251,1.771C21.247,43.952,26.774,46.268,30.498,42.181z"/>
<path d="M32.541,41.266c0,0-5.242-0.14-6.668,6.65C25.873,47.916,31.751,46.737,32.541,41.266z"/>
<path d="M41.988,40.08c0,0-2.755-4.463-9.219-1.935C32.769,38.146,36.977,42.416,41.988,40.08z"/>
<path d="M48.424,42.917c0,0,0.086-5.245-6.719-6.602C41.705,36.315,42.944,42.181,48.424,42.917z"/>
<path d="M48.412,44.315c0,0-2.531-4.595-9.11-2.393C39.302,41.923,43.291,46.398,48.412,44.315z"/>
<path d="M41.317,45.333c0,0-3.044-4.27-9.327-1.32C31.991,44.013,36.472,47.996,41.317,45.333z"/>
<path d="M45.116,47.37c0,0-4.264-3.055-9.252,1.769C35.864,49.139,41.395,51.456,45.116,47.37z"/>
<path d="M74.043,8.13c0,0-5.244-0.139-6.671,6.651C67.372,14.781,73.254,13.603,74.043,8.13z"/>
<path d="M58.066,27.841c0,0,5.223-0.484,5.832-7.397C63.898,20.444,58.201,22.315,58.066,27.841z"/>
<path d="M56.676,27.981c0,0,4.29-3.016,1.386-9.316C58.062,18.665,54.046,23.117,56.676,27.981z"/>
<path d="M54.89,21.042c0,0,3.914-3.492,0.299-9.415C55.188,11.627,51.717,16.515,54.89,21.042z"/>
<path d="M53.281,25.039c0,0,2.571-4.572-2.767-9.003C50.515,16.036,48.814,21.784,53.281,25.039z"/>
<path d="M52.352,25.862c0,0-0.43-5.226-7.336-5.905C45.015,19.958,46.83,25.673,52.352,25.862z"/>
<path d="M67.136,26.636c0,0,3.496,3.91,9.414,0.282C76.55,26.918,71.656,23.456,67.136,26.636z"/>
<path d="M66.194,25.601c0,0,4.978,1.652,8.312-4.432C74.506,21.169,68.538,20.595,66.194,25.601z"/>
<path d="M70.707,20.037c0,0,5.136,1.065,7.745-5.366C78.452,14.671,72.456,14.792,70.707,20.037z"/>
<path d="M72.223,26.154c0,0,5.135,1.065,7.741-5.365C79.964,20.789,73.968,20.91,72.223,26.154z"/>
<path d="M66.537,21.123c0,0,5.205-0.655,5.589-7.582C72.126,13.541,66.495,15.595,66.537,21.123z"/>
<path d="M65.321,20.867c0,0,3.943-3.458,0.379-9.412C65.7,11.456,62.188,16.314,65.321,20.867z"/>
<path d="M60.047,16.115c0,0,5.15-0.996,5.075-7.935C65.122,8.18,59.64,10.603,60.047,16.115z"/>
<path d="M66.115,12.147c0,0,5.148-0.998,5.072-7.936C71.188,4.212,65.706,6.634,66.115,12.147z"/>
<path d="M61.258,9.052c0,0,4.998-1.587,4.122-8.47C65.38,0.582,60.212,3.624,61.258,9.052z"/>
<path d="M58.155,12.042c0,0,4.214-3.12,1.155-9.349C59.311,2.694,55.408,7.245,58.155,12.042z"/>
<path d="M56.971,12.414c0,0,1.742-4.946-4.284-8.39C52.687,4.024,52.006,9.981,56.971,12.414z"/>
<path d="M36.868,22.143c0,0,2.38-4.674-3.142-8.881C33.727,13.262,32.268,19.076,36.868,22.143z"/>
<path d="M36.242,23.393c0,0-0.257-5.238-7.134-6.148C29.108,17.245,30.729,23.018,36.242,23.393z"/>
<path d="M29.423,21.194c0,0-0.864-5.172-7.801-5.28C21.622,15.915,23.9,21.46,29.423,21.194z"/>
<path d="M31.941,24.691c0,0-2.49-4.616-9.089-2.47C22.853,22.221,26.804,26.729,31.941,24.691z"/>
<path d="M32.144,25.917c0,0-4.651-2.428-8.915,3.048C23.229,28.965,29.03,30.484,32.144,25.917z"/>
<path d="M50.376,18.363c0,0,4.819-2.07,3.268-8.833C53.644,9.529,48.802,13.065,50.376,18.363z"/>
<path d="M49.095,18.924c0,0,3.151-4.191-1.552-9.29C47.543,9.635,45.096,15.109,49.095,18.924z"/>
<path d="M45.257,12.873c0,0,2.646-4.527-2.618-9.047C42.639,3.826,40.844,9.545,45.257,12.873z"/>
<path d="M38.94,16.671c0,0,2.646-4.527-2.618-9.048C36.322,7.623,34.526,13.344,38.94,16.671z"/>
<path d="M33.236,10.34c0,0,2.12-4.797-3.621-8.693C29.615,1.646,28.476,7.531,33.236,10.34z"/>
<path d="M29.908,17.424c0,0,1.548-5.01-4.604-8.216C25.304,9.208,24.853,15.187,29.908,17.424z"/>
<path d="M28.608,16.817c0,0-0.156-5.242-7.016-6.282C21.592,10.535,23.101,16.336,28.608,16.817z"/>
<path d="M28.239,18.002c0,0-3.068-4.252-9.333-1.271C18.906,16.732,23.409,20.693,28.239,18.002z"/>
<path d="M68.483,49.763c0,0-2.209-4.756-8.924-3.011C59.56,46.752,63.231,51.489,68.483,49.763z"/>
<path d="M76.305,46.464c0,0-2.211-4.757-8.925-3.012C67.38,43.452,71.053,48.189,76.305,46.464z"/>
<path d="M44.959,17.172c0,0,1.038-5.141-5.406-7.713C39.553,9.459,39.706,15.453,44.959,17.172z"/>
<path d="M44.329,18.244c0,0-2.021-4.84-8.8-3.357C35.529,14.886,39.016,19.764,44.329,18.244z"/>
<path d="M68.862,40.841c0,0,4.309,2.989,9.225-1.91C78.087,38.932,72.521,36.699,68.862,40.841z"/>
<path d="M67.706,40.051c0,0,5.227,0.455,7.058-6.237C74.764,33.813,68.825,34.638,67.706,40.051z"/>
<path d="M70.807,33.591c0,0,5.243-0.153,6.289-7.012C77.096,26.579,71.292,28.085,70.807,33.591z"/>
<path d="M76.093,31.943c0,0,4.821,2.067,8.656-3.717C84.749,28.226,78.848,27.151,76.093,31.943z"/>
<path d="M67.003,35.614c0,0,4.91-1.842,3.677-8.671C70.68,26.943,65.677,30.249,67.003,35.614z"/>
<path d="M65.761,35.649c0,0,3.032-4.28-1.812-9.242C63.948,26.407,61.656,31.947,65.761,35.649z"/>
<path d="M62.281,44.255c0,0,5.228-0.459,5.868-7.371C68.149,36.884,62.445,38.729,62.281,44.255z"/>
<path d="M60.891,44.386c0,0,4.304-2.993,1.43-9.31C62.32,35.076,58.285,39.512,60.891,44.386z"/>
<path d="M59.137,37.438c0,0,3.932-3.473,0.347-9.413C59.483,28.026,55.987,32.897,59.137,37.438z"/>
<path d="M57.511,41.428c0,0,2.592-4.558-2.724-9.016C54.787,32.412,53.058,38.151,57.511,41.428z"/>
<path d="M56.578,42.247c0,0-0.408-5.228-7.308-5.94C49.27,36.307,51.055,42.031,56.578,42.247z"/>
<path d="M55.661,33.998c0,0-0.408-5.228-7.31-5.94C48.352,28.057,50.136,33.781,55.661,33.998z"/>
</svg>
