<svg xmlns="http://www.w3.org/2000/svg" xmlns:xlink="http://www.w3.org/1999/xlink" version="1.1" x="0px" y="0px" width="100px" height="100px" viewBox="0 0 100 100" enable-background="new 0 0 100 100" xml:space="preserve">
<g id="Captions">
	<rect x="-192" width="185" height="99"/>
	<rect y="-36" width="100" height="30"/>
	<text transform="matrix(1 0 0 1 66 -19.5)" fill="#000000" font-family="'Helvetica'" font-size="2.4">http://thenounproject.com</text>
	<text transform="matrix(1 0 0 1 7.166 -24.5)"><tspan x="0" y="0" fill="#000000" font-family="'Helvetica-Bold'" font-size="6.1578">The Noun Project</tspan><tspan x="1.12" y="4.8" fill="#000000" font-family="'Helvetica-Bold'" font-size="4">Icon Template</tspan></text>
	<text transform="matrix(1 0 0 1 -178.5 10.5)" fill="#000000" font-family="'Helvetica-Bold'" font-size="6.1578">Reminders</text>
	<line fill="#000000" stroke="#FFFFFF" stroke-miterlimit="10" x1="8" y1="-14.5" x2="18" y2="-14.5"/>
	<line fill="#000000" stroke="#FFFFFF" stroke-miterlimit="10" x1="-179" y1="16.5" x2="-162" y2="16.5"/>
	<g>
		<g>
			<g>
				<rect x="-170.802" y="31.318" fill="#000000" width="8.721" height="8.642"/>
				<path fill="#000000" d="M-164.455,42.312h4.747v-4.703h-4.747V42.312z M-159.266,42.749h-5.63V37.17h5.63V42.749      L-159.266,42.749z M-166.221,44.062h8.279v-8.203h-8.279V44.062L-166.221,44.062z M-157.5,44.5h-9.163v-9.079h9.163V44.5      L-157.5,44.5z"/>
				<polygon fill="#000000" points="-166.149,44.133 -166.292,43.991 -158.013,35.787 -157.871,35.929     "/>
			</g>
		</g>
	</g>
	<rect x="-179" y="58" fill="none" width="35" height="32.5"/>
	<text transform="matrix(1 0 0 1 -179 60.1572)"><tspan x="0" y="0" fill="#000000" font-family="'Helvetica-Bold'" font-size="3">Strokes</tspan><tspan x="0" y="5" fill="#000000" font-family="'Helvetica'" font-size="2.4">Try to keep strokes at 4px</tspan><tspan x="0" y="10" fill="#000000" font-family="'Helvetica'" font-size="2.4">Minimum stroke weight is 2px</tspan><tspan x="0" y="14.5" fill="#000000" font-family="'Helvetica'" font-size="2.4">For thicker strokes use even </tspan><tspan x="0" y="17.5" fill="#000000" font-family="'Helvetica'" font-size="2.4">numbers: 6px, 8px etc.</tspan><tspan x="0" y="22" fill="#000000" font-family="'Helvetica-Bold'" font-size="2.4">Remember to expand strokes </tspan><tspan x="0" y="25" fill="#000000" font-family="'Helvetica-Bold'" font-size="2.4">before saving as an SVG </tspan></text>
	<rect x="-136.5" y="58" fill="none" width="35" height="32.5"/>
	<text transform="matrix(1 0 0 1 -136.5 60.1572)"><tspan x="0" y="0" fill="#000000" font-family="'Helvetica-Bold'" font-size="3">Size</tspan><tspan x="0" y="5" fill="#000000" font-family="'Helvetica'" font-size="2.4">Cannot be wider or taller than </tspan><tspan x="0" y="8.5" fill="#000000" font-family="'Helvetica'" font-size="2.4">100px (artboard size)</tspan><tspan x="0" y="13.5" fill="#000000" font-family="'Helvetica'" font-size="2.4">Scale your icon to fill as much of </tspan><tspan x="0" y="16.5" fill="#000000" font-family="'Helvetica'" font-size="2.4">the artboard as possible</tspan></text>
	<rect x="-94" y="58" fill="none" width="35" height="32.5"/>
	<text transform="matrix(1 0 0 1 -94 60.1572)"><tspan x="0" y="0" fill="#000000" font-family="'Helvetica-Bold'" font-size="3">Ungroup</tspan><tspan x="0" y="5" fill="#000000" font-family="'Helvetica'" font-size="2.4">If your design has more than one </tspan><tspan x="0" y="8" fill="#000000" font-family="'Helvetica'" font-size="2.4">shape, make sure to ungroup</tspan></text>
	<rect x="-50" y="58" fill="none" width="35" height="32.5"/>
	<text transform="matrix(1 0 0 1 -50 60.1572)"><tspan x="0" y="0" fill="#000000" font-family="'Helvetica-Bold'" font-size="3">Save as</tspan><tspan x="0" y="5" fill="#000000" font-family="'Helvetica'" font-size="2.4">Save as .SVG and make sure </tspan><tspan x="0" y="8" fill="#000000" font-family="'Helvetica'" font-size="2.4">&#8220;Use Artboards&#8221; is checked</tspan></text>
	<text transform="matrix(1.0074 0 0 1 -125.542 30.5933)" fill="#000000" font-family="'Helvetica'" font-size="2.5731">100px</text>
	<text transform="matrix(1.0074 0 0 1 -41 39)" fill="#000000" font-family="'Helvetica-Bold'" font-size="5.1462">.SVG</text>
	<rect x="-126.514" y="34.815" fill="#000000" width="10.261" height="10.185"/>
	<rect x="-126.477" y="31.766" fill="#000000" width="0.522" height="2.337"/>
	<rect x="-116.812" y="31.766" fill="#000000" width="0.523" height="2.337"/>
	<rect x="-127" y="32.337" fill="#000000" width="11.233" height="0.572"/>
	<g>
		<rect x="-83.805" y="33.844" fill="#000000" width="10.305" height="10.156"/>
		<rect x="-76.809" y="28.707" fill="#000000" width="3.308" height="3.261"/>
	</g>
	<rect x="-178.5" y="22.5" fill="#000000" stroke="#FFFFFF" stroke-miterlimit="10" width="30" height="30"/>
	<rect x="-136.5" y="22.5" fill="#000000" stroke="#FFFFFF" stroke-miterlimit="10" width="30" height="30"/>
	<rect x="-93.5" y="22.5" fill="#000000" stroke="#FFFFFF" stroke-miterlimit="10" width="30" height="30"/>
	<rect x="-49.5" y="22.5" fill="#000000" stroke="#FFFFFF" stroke-miterlimit="10" width="30" height="30"/>
</g>
<g id="Your_Icon">
	<path d="M78.645,41.31c-0.154,0-0.279,0.064-0.279,0.489s0.125,0.769,0.279,0.769s0.279-0.344,0.279-0.769   S78.799,41.31,78.645,41.31z"/>
	<path d="M97.801,44.39c-2.632-3.607-11.286-7.182-34.59-6.303c-3.193,0.121-6.25,0.362-9.157,1.009   c0.124-0.133-1.543-7.165-5.94-10.096c-2.198,1.612-0.586,11.286-3.517,13.044c-3.539,1.338-8.166,4.885-14.437,9.086l26.281-0.143   c10.445-3.726,22.355-7.976,27.436-8.943c4.544-1.246,8.354-0.735,11.286,1.319c5.862,3.811-1.76,7.172-7.036,8.826   c-0.634,0.359-0.805,0.4-0.907,0.407c-0.003-0.395-0.217-0.911-0.771-1.611c-1.972-2.492-16.812-2.783-13.711-2.345   c10.739,1.431,12.56,3.75,12.656,5.03c-10.003,6.688-27.157,5.522-44.461,5.522c-5.931,0-2.638-2.199-2.638-2.199   c1.84-0.236,8.149-2.445,15.619-5.105l-23.765-0.75c-0.054,0.035-0.105,0.07-0.16,0.106c-4.859-0.179-8.787-0.312-9.723-0.26   c-1.143,0.063,2.746,0.759,7.712,1.587c-2.794,1.818-5.887,3.722-9.324,5.596c-2.638-2.346-18.8-9.678-17.589-7.33   c2.346,4.544,11.726,9.234,10.993,12.752c-0.733,3.517-1.805,4.606-2.638,9.087c3.958-1.613,6.445-6.915,9.674-9.967   c1.616-1.175,5.912-1.563,2.638,2.639c0.049,0.439,3.371-1.026,4.69-3.812c11.476,0.145,21.352,2.257,34.623,0.042   c5.994,3.479,6.646,7.617,11.269,9.631c2.329,0.094-0.162-8.939-1.335-11.939c0,0-0.034-0.002-0.094-0.008   c0.08-0.023,0.159-0.047,0.241-0.07c11.344-1.486,15.825-5.853,15.969-6.107C89.515,52.327,101.57,49.555,97.801,44.39z    M55.396,49.075c-0.586-1.466,0-6.596,0-4.837C55.396,45.704,55.981,50.541,55.396,49.075z M56.908,48.347   c-0.587-1.465,0-6.596,0-4.837C56.908,44.976,57.494,49.812,56.908,48.347z M58.521,47.761c-0.586-1.466,0-6.596,0-4.837   C58.521,44.39,59.106,49.227,58.521,47.761z M78.645,43.078c-0.591,0-1.07-0.51-1.07-1.139c0-0.63,0.479-1.14,1.07-1.14   c0.592,0,1.07,0.51,1.07,1.14C79.715,42.567,79.236,43.078,78.645,43.078z"/>
</g>
</svg>
