<svg xmlns="http://www.w3.org/2000/svg" xmlns:xlink="http://www.w3.org/1999/xlink" version="1.1" id="Layer_1" x="0px" y="0px" width="100px" height="100px" viewBox="0 0 100 100" enable-background="new 0 0 100 100" xml:space="preserve">
<g id="Captions">
</g>
<g id="Your_Icon">
	<path d="M99.254,48.666c-0.275-1.518-2.305-1.902-4.852-2.605c-2.021-0.559-13.59-2.27-13.59-2.27s-7.816-8.079-10.472-10.331   c-1.737-1.476-2.713-2.354-5.161-2.537c-4.226-0.318-20.411-0.721-23.237-0.159c-0.943,0.188-1.791,0.84-1.967,1.879   C39.729,34.104,38.994,41,38.43,45c-3.891,0-34.07,0-35.686,0C1.83,45,1,45.991,1,46.907S1,56,1,56H0.031c0,0-0.07,0.85,0,2.504   c0.068,1.656,1.686,2.922,2.965,3.194c1.986,0.421,7.078,1.216,9.625,1.562c0.809,3.552,3.986,5.993,7.771,5.993   c3.711,0,6.848-3.255,7.732-6.255H78.87c0.883,3,4.012,6.295,7.726,6.295c3.959,0,7.266-2.798,7.875-6.599   c1.43-0.365,3.055-0.738,4.061-1.09c0.924-0.323,1.334-0.897,1.412-1.455C100.195,58.363,99.531,50.189,99.254,48.666z M52,45   h-9.391l0.914-11H52V45z M74.727,45C73.83,45,55,45,55,45l0.002-11c0,0,8.76-0.001,10.623,0.688   c1.863,0.69,8.977,8.155,9.666,8.916C75.98,44.361,75.623,45,74.727,45z"/>
</g>
</svg>
