<svg xmlns="http://www.w3.org/2000/svg" xmlns:xlink="http://www.w3.org/1999/xlink" version="1.1" id="Layer_1" x="0px" y="0px" width="100px" height="100px" viewBox="0 0 100 100" enable-background="new 0 0 100 100" xml:space="preserve">
<path d="M98.343,44.502l-9.979-9.239l-3.856-0.208c3.46-1.171,5.947-4.376,5.947-8.157c0-4.771-3.957-8.638-8.836-8.638  c-4.881,0-8.837,3.868-8.837,8.638c0,3.78,2.487,6.985,5.947,8.157l-3.856,0.208l-9.232,9.239l-8.486-9.239l-3.856-0.208  c3.459-1.171,5.947-4.376,5.947-8.157c0-4.771-3.956-8.638-8.836-8.638s-8.836,3.868-8.836,8.638c0,3.78,2.488,6.985,5.947,8.157  l-3.856,0.208l-8.486,9.239l-9.233-9.239l-3.856-0.208c3.459-1.171,5.947-4.376,5.947-8.157c0-4.771-3.956-8.638-8.836-8.638  c-4.88,0-8.836,3.868-8.836,8.638c0,3.78,2.487,6.985,5.946,8.157l-3.856,0.208l-9.979,9.239v7.538l9.388-7.841L11.8,54.592  c0,0-8.393,19.236-8.393,31.424h5.968c0,0,5.409-20.722,9.823-26.677c4.415,5.955,9.823,26.677,9.823,26.677h6.282  c0-12.188-8.707-31.424-8.707-31.424l-0.063-10.393l8.642,7.841l7.896-7.841L43.01,54.592c0,0-8.393,19.236-8.393,31.424h5.968  c0,0,5.409-20.722,9.823-26.677c4.415,5.955,9.823,26.677,9.823,26.677H66.2c0-12.188-8.395-31.424-8.395-31.424l-0.062-10.393  l7.896,7.841l8.643-7.841L74.22,54.592c0,0-8.393,19.236-8.393,31.424h5.969c0,0,5.409-20.722,9.823-26.677  c4.413,5.955,9.822,26.677,9.822,26.677h5.969c0-12.188-8.393-31.424-8.393-31.424l-0.063-10.393l9.389,7.841V44.502z"/>
</svg>
