<svg xmlns="http://www.w3.org/2000/svg" xmlns:xlink="http://www.w3.org/1999/xlink" version="1.1" x="0px" y="0px" width="100px" height="100px" viewBox="0 0 100 100" enable-background="new 0 0 100 100" xml:space="preserve">
<g id="Captions">
</g>
<g id="Your_Icon">
	<g>
		<path d="M76.546,81.522c-0.871,0-1.759-0.064-2.659-0.196c-7.9-1.159-14.858-6.1-20.123-14.288    c-0.896-1.394-0.493-3.249,0.901-4.146c1.393-0.894,3.249-0.493,4.146,0.901c2.998,4.662,8.198,10.458,15.947,11.596    c4.294,0.628,7.963-0.977,9.813-4.294c1.746-3.128,1.302-6.892-1.158-9.821c-1.065-1.269-0.9-3.161,0.369-4.227    c1.268-1.065,3.16-0.899,4.227,0.369c4.038,4.81,4.746,11.327,1.802,16.603C87.152,78.784,82.213,81.522,76.546,81.522z"/>
	</g>
	<g>
		<path d="M50.21,91.357c-0.13,0-0.261-0.008-0.393-0.025c-1.643-0.214-2.801-1.72-2.586-3.363    c0.423-3.244-0.084-8.467-0.786-13.236c-3.77,6.328-8.943,10.727-15.099,12.707c-6.5,2.092-12.981,0.337-16.913-4.579    c-3.773-4.719-4.15-11.263-0.96-16.673c0.842-1.427,2.68-1.901,4.107-1.061c1.428,0.842,1.902,2.681,1.061,4.107    c-1.943,3.296-1.76,7.08,0.478,9.878c2.374,2.968,6.26,3.944,10.39,2.616c9.32-3.001,13.572-12.592,15.277-18.042    c0.405-1.296,1.605-2.146,2.99-2.102c1.357,0.057,2.507,1.02,2.802,2.346c0.15,0.676,3.669,16.648,2.603,24.815    C52.983,90.257,51.693,91.357,50.21,91.357z"/>
	</g>
	<g>
		<path d="M16.046,70.7c-0.312,0-0.63-0.05-0.942-0.152C9.141,68.574,5.117,63.4,4.852,57.365    C4.576,51.076,8.3,45.489,14.569,42.784c8.504-3.666,18.762-2.278,28.884,3.912c1.413,0.864,1.858,2.711,0.994,4.125    c-0.863,1.412-2.708,1.859-4.125,0.994c-4.872-2.979-14.389-7.399-23.376-3.521c-3.986,1.72-6.267,5.013-6.1,8.809    c0.156,3.578,2.51,6.547,6.142,7.748c1.573,0.521,2.426,2.218,1.906,3.791C18.478,69.901,17.305,70.7,16.046,70.7z"/>
	</g>
	<g>
		<path d="M41.537,51.946c-0.432,0-0.869-0.094-1.285-0.291C29.823,46.702,23.234,39.08,21.699,30.194    c-1.135-6.567,1.446-12.593,6.736-15.724c5.075-3.006,11.455-2.477,16.252,1.346c1.295,1.032,1.509,2.92,0.476,4.216    c-1.03,1.296-2.919,1.51-4.216,0.476c-2.875-2.289-6.498-2.625-9.456-0.874c-3.14,1.858-4.591,5.425-3.88,9.539    c1.611,9.323,10.225,14.692,15.215,17.062c1.497,0.711,2.134,2.5,1.423,3.997C43.735,51.313,42.659,51.946,41.537,51.946z"/>
	</g>
	<g>
		<path d="M57.047,48.484c-0.672,0-1.348-0.225-1.906-0.685c-1.278-1.054-1.461-2.945-0.407-4.224    c3.514-4.263,9.034-12.776,6.536-21.905c-1.102-4.026-3.927-6.64-7.558-6.99c-3.42-0.324-6.563,1.51-8.194,4.805    c-0.735,1.484-2.534,2.094-4.02,1.357c-1.484-0.735-2.093-2.535-1.357-4.02c2.722-5.497,8.275-8.68,14.148-8.115    c6.117,0.592,11.01,4.952,12.768,11.38c2.381,8.699-0.351,18.396-7.692,27.305C58.771,48.112,57.912,48.484,57.047,48.484z"/>
	</g>
	<g>
		<path d="M85.722,62.333c-1.078,0-2.119-0.582-2.656-1.602c-0.773-1.466-0.212-3.28,1.254-4.053    c3.384-1.784,5.216-5.102,4.781-8.656c-0.462-3.771-3.254-6.644-7.469-7.682c-9.508-2.343-18.161,3.587-22.475,7.329    c-1.251,1.086-3.146,0.954-4.231-0.3c-1.086-1.251-0.952-3.146,0.3-4.231c8.96-7.776,18.844-10.843,27.842-8.624    c6.63,1.634,11.224,6.53,11.988,12.779c0.734,5.995-2.382,11.763-7.938,14.691C86.672,62.221,86.193,62.333,85.722,62.333z"/>
	</g>
	<g>
		<path d="M57.754,91.227c-0.135,0-0.271-0.009-0.407-0.027c-1.642-0.223-2.792-1.733-2.569-3.376    c1.017-7.502-1.637-21.893-1.664-22.037c-0.304-1.629,0.771-3.195,2.399-3.499c1.625-0.297,3.195,0.77,3.499,2.399    c0.117,0.628,2.857,15.483,1.711,23.943C60.519,90.135,59.231,91.227,57.754,91.227z"/>
	</g>
</g>
</svg>
