<svg xmlns="http://www.w3.org/2000/svg" xmlns:xlink="http://www.w3.org/1999/xlink" version="1.1" id="Layer_1" x="0px" y="0px" width="100.0px" height="100px" viewBox="0 0 216 216" enable-background="new 0 0 216 216" xml:space="preserve">
<g>
	<path d="M213.433,117.25c0-11.844-41.249-17.255-54.722-18.703c-5.335-24.054-26.896-41.442-51.556-41.442   c-3.604,0-7.237,0.375-10.797,1.113c-20.591,4.272-36.604,20.24-40.977,40.771C9.545,104.406,4.567,113.553,4.567,117.25   c0,9.029,24.627,15.584,56.549,18.848c9.375,16.524,26.937,26.776,45.934,26.776c3.604,0,7.235-0.374,10.795-1.112   c14.713-3.054,27.438-12.258,34.985-25.271C186.698,133.379,213.433,126.658,213.433,117.25z M55.331,120.732   c0.685,3.298,1.716,6.548,3.034,9.694c-27.329-3.152-43.761-8.661-43.761-13.927c0-6.13,21.289-11.021,40.088-13.441   C53.912,108.946,54.118,114.886,55.331,120.732z M159.447,102.592c32.402,3.724,43.949,9.801,43.949,13.908   c0,5.515-18.025,11.297-47.716,14.358C159.541,121.904,160.825,112.227,159.447,102.592z M96.765,60.177   c3.427-0.712,6.923-1.072,10.391-1.072c23.957,0,44.883,17.053,49.759,40.548c2.21,10.65,1.011,21.469-3.467,31.327   C139.841,132.302,124.487,133,109,133c-17.08,0-33.807-0.84-48.418-2.429c-1.461-3.31-2.568-6.753-3.293-10.245   c-1.198-5.773-1.388-11.64-0.566-17.45l0.077-0.009l0.111-0.761c0.103-0.705,0.227-1.403,0.358-2.1l0.132-0.936   C61.711,79.478,77.064,64.264,96.765,60.177z M117.439,159.803c-3.426,0.711-6.921,1.071-10.389,1.071   c-17.755,0-34.211-9.306-43.406-24.413C77.823,137.814,93.07,138.5,109,138.5c14.363,0,28.248-0.563,41.307-1.675   C142.964,148.642,131.087,156.971,117.439,159.803z M153.929,134.585l0.053-0.093l-1.906,0.171   C138.512,135.882,124.02,136.5,109,136.5c-16.595,0-32.443-0.747-47.104-2.22l-1.907-0.191l0.053,0.095   c-33.311-3.516-53.609-10.387-53.609-16.934c0-6.406,19.032-12.787,48.613-16.342l-0.013,0.086l0.029-0.004   c-0.003,0.022-0.007,0.045-0.011,0.066l-0.075,0.009l-0.012,0.076c-36.709,4.621-42.226,11.595-42.226,15.358   c0,7.343,19.823,12.804,46.433,15.806l0.059,0.129l0.565,0.062C74.611,134.135,91.626,135,109,135   c15.769,0,31.403-0.722,45.214-2.086l0.567-0.056l0.059-0.126c28.593-2.894,50.422-8.527,50.422-16.232   c0-9.473-31.561-14.162-45.941-15.805c-0.012-0.07-0.024-0.14-0.037-0.209c31.809,3.475,52.283,10.024,52.283,16.764   C211.567,124.057,189.623,131.213,153.929,134.585z"/>
	<path d="M160.75,92.5c2.068,0,3.75-1.683,3.75-3.75S162.818,85,160.75,85S157,86.683,157,88.75S158.682,92.5,160.75,92.5z    M160.75,87c0.965,0,1.75,0.785,1.75,1.75s-0.785,1.75-1.75,1.75S159,89.715,159,88.75S159.785,87,160.75,87z"/>
	<path d="M57.5,139.5c-2.206,0-4,1.794-4,4s1.794,4,4,4s4-1.794,4-4S59.706,139.5,57.5,139.5z M57.5,145.5c-1.103,0-2-0.897-2-2   s0.897-2,2-2s2,0.897,2,2S58.603,145.5,57.5,145.5z"/>
	<path d="M168.75,128c1.517,0,2.75-1.233,2.75-2.75s-1.233-2.75-2.75-2.75s-2.75,1.233-2.75,2.75S167.233,128,168.75,128z    M168.75,124.5c0.414,0,0.75,0.337,0.75,0.75s-0.336,0.75-0.75,0.75s-0.75-0.337-0.75-0.75S168.336,124.5,168.75,124.5z"/>
</g>
</svg>
