<svg xmlns="http://www.w3.org/2000/svg" xmlns:xlink="http://www.w3.org/1999/xlink" version="1.1" id="Layer_1" x="0px" y="0px" width="100.0px" height="100px" viewBox="0 0 216 216" enable-background="new 0 0 216 216" xml:space="preserve">
<g>
	<path d="M108,95.333c-6.984,0-12.666,5.682-12.666,12.667s5.682,12.667,12.666,12.667s12.666-5.682,12.666-12.667   S114.984,95.333,108,95.333z M108,118.667c-5.881,0-10.666-4.785-10.666-10.667S102.119,97.333,108,97.333   s10.666,4.785,10.666,10.667S113.881,118.667,108,118.667z"/>
	<path d="M114.525,104.608c-0.713,0-1.293,0.58-1.293,1.292s0.58,1.293,1.293,1.293s1.293-0.58,1.293-1.293   S115.238,104.608,114.525,104.608z M114.525,106.608c-0.39,0-0.707-0.317-0.707-0.708c0-0.39,0.317-0.707,0.707-0.707   s0.707,0.317,0.707,0.707C115.232,106.291,114.915,106.608,114.525,106.608z"/>
	<path d="M101.224,111.728c-0.681,0-1.234,0.554-1.234,1.234c0,0.681,0.554,1.234,1.234,1.234c0.68,0,1.233-0.554,1.233-1.234   C102.457,112.282,101.903,111.728,101.224,111.728z M101.224,113.728c-0.423,0-0.767-0.344-0.767-0.766s0.344-0.766,0.767-0.766   c0.422,0,0.766,0.343,0.766,0.766S101.646,113.728,101.224,113.728z"/>
	<path d="M105.576,99.821c-0.605,0-1.098,0.492-1.098,1.098s0.492,1.098,1.098,1.098s1.098-0.492,1.098-1.098   S106.182,99.821,105.576,99.821z M105.576,101.821c-0.497,0-0.902-0.405-0.902-0.902s0.405-0.902,0.902-0.902   s0.902,0.405,0.902,0.902S106.073,101.821,105.576,101.821z"/>
</g>
</svg>
