<svg xmlns="http://www.w3.org/2000/svg" xmlns:xlink="http://www.w3.org/1999/xlink" version="1.1" id="Your_Icon" x="0px" y="0px" width="100px" height="100px" viewBox="0 0 100 100" enable-background="new 0 0 100 100" xml:space="preserve">
<polygon fill="#000000" points="30.463,57.678 34.064,61.928 47.479,50.555 34.064,39.182 30.463,43.433 35.58,47.77 2.406,47.77   2.406,53.34 35.58,53.34 "/>
<path fill="#000000" d="M65.494,65.895c1.177-1.573,1.9-3.503,1.9-5.613c0-5.195-4.227-9.422-9.422-9.422  c-5.195,0-9.422,4.227-9.422,9.422h5.57c0-2.123,1.728-3.851,3.851-3.851c2.123,0,3.851,1.728,3.851,3.851  c0,2.123-1.728,3.851-3.851,3.851H57.8H22.167h-6.575H2.406v5.57h13.186h6.575c4.16,0,7.543,3.384,7.543,7.543  c0,4.16-3.384,7.543-7.543,7.543c-4.16,0-7.543-3.383-7.543-7.543h-5.57c0,7.231,5.882,13.114,13.114,13.114  c7.231,0,13.114-5.882,13.114-13.114c0-2.808-0.895-5.407-2.404-7.543H57.8c6.802,0,12.334,5.532,12.334,12.334  c0,6.802-5.532,12.336-12.334,12.336c-6.802,0-12.336-5.534-12.336-12.336h-5.57c0,9.873,8.033,17.906,17.906,17.906  c9.873,0,17.904-8.033,17.904-17.906C75.704,74.921,71.521,68.78,65.494,65.895z"/>
<path fill="#000000" d="M82.486,32.168c1.517-2.14,2.419-4.746,2.419-7.563c0-7.231-5.882-13.114-13.114-13.114  c-7.231,0-13.114,5.882-13.114,13.114h5.57c0-4.16,3.383-7.543,7.543-7.543c4.16,0,7.543,3.384,7.543,7.543  c0,4.16-3.384,7.543-7.543,7.543h-8.807h-10.84c3.372-3.4,5.46-8.074,5.46-13.23c0-10.366-8.434-18.8-18.8-18.8  s-18.8,8.434-18.8,18.8h5.57c0-7.295,5.935-13.23,13.23-13.23c7.295,0,13.23,5.935,13.23,13.23s-5.935,13.23-13.23,13.23h-2.595  H2.406v5.57h33.803h2.595h24.18h8.807h10.308c5.473,0,9.924,4.452,9.924,9.922c0,5.472-4.451,9.924-9.924,9.924  c-5.471,0-9.922-4.452-9.922-9.924h-5.57c0,8.544,6.95,15.494,15.492,15.494c8.544,0,15.494-6.95,15.494-15.494  C97.594,39.229,90.85,32.376,82.486,32.168z"/>
</svg>
