<svg xmlns="http://www.w3.org/2000/svg" xmlns:xlink="http://www.w3.org/1999/xlink" version="1.1" id="Layer_1" x="0px" y="0px" width="100px" height="100px" viewBox="0 0 100 100" enable-background="new 0 0 100 100" xml:space="preserve">
<path d="M89.795,33.162c0-2.255-1.831-4.083-4.083-4.083H72.107V10.205C72.107,4.568,67.536,0,61.902,0H38.094  c-5.637,0-10.205,4.568-10.205,10.205v18.874H14.284c-2.252,0-4.08,1.828-4.08,4.083L0,95.92c0,2.258,1.828,4.077,4.08,4.077h91.836  c2.253,0,4.084-1.819,4.084-4.077L89.795,33.162z M33.732,13.8c0-4.147,3.36-7.507,7.507-7.507h17.514  c4.15,0,7.508,3.36,7.508,7.507v15.279H33.732V13.8z"/>
</svg>
