<?xml version="1.0" encoding="utf-8"?>
<!-- Generator: Adobe Illustrator 14.0.0, SVG Export Plug-In . SVG Version: 6.00 Build 43363)  -->
<!DOCTYPE svg PUBLIC "-//W3C//DTD SVG 1.0//EN" "http://www.w3.org/TR/2001/REC-SVG-20010904/DTD/svg10.dtd">
<svg version="1.0" id="Layer_1" xmlns="http://www.w3.org/2000/svg" xmlns:xlink="http://www.w3.org/1999/xlink" x="0px" y="0px"
	 width="100px" height="98.894px" viewBox="0 0 100 98.894" enable-background="new 0 0 100 98.894" xml:space="preserve">
<path d="M92.375,21.583L100,0L78.414,7.622l4.261,4.26L68.099,26.459c-7.223-6.228-16.615-10.007-26.878-10.007
	C18.491,16.452,0,34.944,0,57.673c0,22.729,18.491,41.221,41.221,41.221s41.221-18.492,41.221-41.221
	c0-9.702-3.376-18.624-9.007-25.673l14.679-14.679L92.375,21.583z M41.221,91.201c-18.488,0-33.529-15.04-33.529-33.528
	c0-18.487,15.041-33.528,33.529-33.528c18.487,0,33.529,15.041,33.529,33.528C74.75,76.161,59.708,91.201,41.221,91.201z"/>
</svg>
