<svg xmlns="http://www.w3.org/2000/svg" xmlns:xlink="http://www.w3.org/1999/xlink" version="1.1" id="Layer_1" x="0px" y="0px" width="100px" height="100px" viewBox="0 0 100 100" enable-background="new 0 0 100 100" xml:space="preserve">
<path fill="#000000" d="M83.88,91.672V59.595h0.044c0-2.521-2.037-4.56-4.556-4.56c-2.52,0-4.556,2.038-4.556,4.56v32.077H63.957  V59.595h0.048c0-2.521-2.037-4.56-4.557-4.56c-2.519,0-4.557,2.038-4.557,4.56v32.077H44.034V59.595h0.051  c0-2.521-2.041-4.56-4.562-4.56c-2.512,0-4.556,2.038-4.556,4.56v32.077H24.118V59.595h0.05c0-2.521-2.043-4.56-4.562-4.56  c-2.516,0-4.556,2.038-4.556,4.56v32.077H3.65v7.318h91.68v-7.318H83.88z"/>
<polygon fill="#000000" points="88.383,44.776 88.383,38.31 10.595,38.31 10.595,44.776 3.65,44.776 3.65,52.096 95.33,52.096   95.33,44.776 "/>
<path fill="#000000" d="M45.194,26.726c-0.782-0.83-1.16-1.958-1.128-3.39H38.75c0.26,2.962,1.172,5.209,2.756,6.736  c1.571,1.534,3.777,2.402,6.584,2.598v3.2h2.222v-3.2c1.885-0.124,3.422-0.5,4.622-1.125c1.217-0.63,2.167-1.346,2.887-2.151  c0.713-0.798,1.206-1.622,1.479-2.458c0.279-0.846,0.425-1.54,0.425-2.097c0-0.621-0.048-1.337-0.14-2.142  c-0.089-0.802-0.368-1.603-0.844-2.408c-0.48-0.802-1.222-1.572-2.22-2.313c-1.005-0.741-2.438-1.362-4.294-1.862  c-0.348-0.105-0.678-0.19-0.995-0.267c-0.311-0.076-0.621-0.152-0.921-0.228v-6.66c0.852,0,1.58,0.349,2.182,1.052  c0.603,0.703,0.916,1.559,0.944,2.56h5.349c-0.079-1.299-0.358-2.433-0.839-3.39c-0.473-0.951-1.094-1.749-1.842-2.386  c-0.747-0.636-1.628-1.137-2.614-1.504c-0.99-0.368-2.056-0.609-3.18-0.735V1.658H48.09v2.896c-1.134,0.076-2.227,0.295-3.276,0.659  c-1.058,0.362-1.983,0.878-2.785,1.546c-0.801,0.662-1.451,1.483-1.936,2.458c-0.495,0.982-0.738,2.113-0.738,3.391  c0,1.257,0.212,2.307,0.643,3.143c0.422,0.843,0.995,1.546,1.714,2.11c0.713,0.564,1.518,1.014,2.424,1.356  c0.907,0.336,1.819,0.634,2.744,0.884c0.257,0.048,0.488,0.105,0.697,0.168c0.209,0.064,0.386,0.117,0.513,0.168v7.867  C46.93,28.082,45.97,27.556,45.194,26.726z M50.312,21.08c1.479,0.399,2.519,0.846,3.14,1.334c0.614,0.491,0.928,1.22,0.928,2.202  c0,0.602-0.133,1.122-0.38,1.565c-0.251,0.437-0.573,0.805-0.961,1.109c-0.392,0.304-0.826,0.532-1.314,0.694  c-0.491,0.162-0.967,0.269-1.412,0.32V21.08z M45.488,14.002c-0.522-0.45-0.789-1.093-0.789-1.92c0-0.526,0.095-0.985,0.282-1.375  c0.187-0.387,0.446-0.717,0.776-0.979c0.317-0.263,0.691-0.456,1.09-0.58c0.399-0.126,0.814-0.19,1.242-0.19v6.134  C46.879,14.819,46.018,14.452,45.488,14.002z"/>
</svg>
