<svg xmlns="http://www.w3.org/2000/svg" xmlns:xlink="http://www.w3.org/1999/xlink" version="1.1" x="0px" y="0px" width="100px" height="100px" viewBox="0 0 100 100" enable-background="new 0 0 100 100" xml:space="preserve">
<g id="Background">
</g>
<g id="Pictograms">
	<g>
		<path d="M67.225,10.967v-9.55c0-0.55-0.45-1-1-1h-32.37c-0.55,0-1,0.45-1,1v9.93c0,0.23,0.08,0.45,0.22,0.62l4.2,16.18    c0.11,0.44,0.51,0.75,0.97,0.75h1.23v68.94c0,0.56,0.45,1,1,1h19.49c0.56,0,1-0.44,1-1v-68.94h1.04c0.46,0,0.85-0.31,0.97-0.75    l4.3-16.55C67.325,11.387,67.305,11.167,67.225,10.967z M58.965,96.837h-17.49v-67.94h17.49V96.837z M61.235,26.897h-22.22    l-3.78-14.55h29.77L61.235,26.897z M65.225,10.347h-30.37v-7.93h30.37V10.347z"/>
	</g>
	<g>
		<g>
			<path d="M50.225,38.037c-2.28,0-4.13,1.86-4.13,4.13v7.95c0,2.27,1.85,4.13,4.13,4.13c2.27,0,4.12-1.86,4.12-4.13v-7.95     C54.345,39.897,52.495,38.037,50.225,38.037z M52.345,45.897c0,1.18-0.95,2.13-2.12,2.13c-1.18,0-2.13-0.95-2.13-2.13v-3.73     c0-1.17,0.95-2.13,2.13-2.13c1.17,0,2.12,0.96,2.12,2.13V45.897z"/>
		</g>
	</g>
</g>
<g id="Guides">
</g>
</svg>
