<svg xmlns="http://www.w3.org/2000/svg" xmlns:xlink="http://www.w3.org/1999/xlink" version="1.1" id="Your_Icon" x="0px" y="0px" width="100px" height="100px" viewBox="0 0 100 100" enable-background="new 0 0 100 100" xml:space="preserve">
<path d="M79.004,36.666c0-11.994,5.476-22.795,13.772-30.291L86.402,0c-9.934,9.124-16.391,22.168-16.391,36.666  c0,1.073,0.039,2.137,0.107,3.192H54.454V19.946h-8.94v19.912H29.933c0.071-1.071,0.112-2.151,0.112-3.24  c0-14.472-6.436-27.496-16.34-36.617L7.332,6.375c8.268,7.494,13.72,18.273,13.72,30.243c0,12.984-6.412,24.573-15.878,32.083  l6.401,6.402c7.987-6.59,14.039-15.598,16.808-25.898h17.131v16.412c-2.885,0.764-5.615,2.271-7.877,4.534  c-6.83,6.827-6.83,17.897,0,24.728C41.051,98.293,45.525,100,50,100s8.949-1.707,12.364-5.121c6.829-6.83,6.829-17.9,0-24.728  c-2.271-2.271-5.013-3.782-7.91-4.543V49.205H71.66c2.756,10.297,8.793,19.303,16.766,25.898l6.4-6.4  C85.391,61.191,79.004,49.625,79.004,36.666z M58.493,82.514c0,2.269-0.884,4.402-2.488,6.007S52.269,91.008,50,91.008  c-2.268,0-4.4-0.883-6.005-2.488c-1.604-1.604-2.488-3.737-2.488-6.006c0-2.268,0.884-4.399,2.489-6.004  c1.604-1.604,3.736-2.488,6.004-2.488c2.269,0,4.4,0.885,6.007,2.49C57.609,78.113,58.493,80.246,58.493,82.514z"/>
</svg>
