<svg xmlns="http://www.w3.org/2000/svg" xmlns:xlink="http://www.w3.org/1999/xlink" xmlns:sketch="http://www.bohemiancoding.com/sketch/ns" width="70px" height="70px" viewBox="0 0 70 70" version="1.1">
    <title>ship</title>
    <description>Created with Sketch (http://www.bohemiancoding.com/sketch)</description>
    <defs/>
    <g id="Page-1" stroke="none" stroke-width="1" fill="none" fill-rule="evenodd" sketch:type="MSPage">
        <path d="M51.034668,39 L51.034668,34.0029297 L46.0598145,34.0029297 L46.0598145,29.1972656 L41.284668,29.1972656 L38.9921875,34.0029297 L27.1577148,34.0029297 L25.0249023,39 L14,39 C14,39 14,43.1554692 18.2556954,46.9432456 C19.2701951,47.8461998 21.4547524,46.5686851 23.3610029,46.5686851 C25.2672534,46.5686851 28.4012908,48.8001299 30.2037754,48.8001299 C33.4654932,48.8001299 33.6923963,47.0093479 38.0683594,47.0093479 C40.956608,47.0093479 45.9140625,48.8001299 47.0175781,48.8001299 C48.0040245,48.8001299 50.0325508,47.5084639 50.0325508,47.5084639 C50.0325508,47.5084639 52.2123311,47.2184624 52.6725273,46.5686851 C55.3676254,42.7633212 55.8203125,39 55.8203125,39 L51.034668,39 Z M54.1474609,49.0332031 C51.0994898,49.0332031 48.8886811,51.2148702 46.1906738,50.935791 C44.0179089,50.7110422 40.4605544,49.0809584 38.2685547,49.0332032 C35.7103137,48.977469 32.2482763,50.6291573 30.064624,50.4628599 C26.5721323,50.1968871 23.354328,49.0332031 22.1401367,49.0332031 C17.0252197,49.0332032 14,53.0678709 14,53.0678709 C14,53.0678709 19.672054,50.935791 22.1401367,50.935791 C25.2080565,50.935791 26.0369337,52.7223233 30.0646248,53.0678709 C32.7000611,53.2939729 35.4626515,51.1973321 38.2685547,51.2666016 C41.6222616,51.3493949 43.0900761,53.0215132 46.1906738,53.4890135 C48.9273881,53.9016483 51.5325001,51.2432864 54.1474609,51.2666016 C58.1886317,51.302633 60,53.7526854 60,53.7526854 C60,53.7526854 57.1954321,49.0332031 54.1474609,49.0332031 Z M35.9091128,36 C35.3574043,36 34.9101562,36.4433532 34.9101562,37.0093689 L34.9101562,38.9906311 C34.9101562,39.5480902 35.3528166,40 35.9091128,40 L36.9111997,40 C37.4629082,40 37.9101562,39.5566469 37.9101562,38.9906311 L37.9101562,37.0093689 C37.9101562,36.4519099 37.4674959,36 36.9111997,36 L35.9091128,36 Z M30.9091128,36 C30.3574043,36 29.9101562,36.4433532 29.9101562,37.0093689 L29.9101562,38.9906311 C29.9101562,39.5480902 30.3528166,40 30.9091128,40 L31.9111997,40 C32.4629082,40 32.9101562,39.5566469 32.9101562,38.9906311 L32.9101562,37.0093689 C32.9101562,36.4519099 32.4674959,36 31.9111997,36 L30.9091128,36 Z M45.9091128,36 C45.3574043,36 44.9101562,36.4433532 44.9101562,37.0093689 L44.9101562,38.9906311 C44.9101562,39.5480902 45.3528166,40 45.9091128,40 L46.9111997,40 C47.4629082,40 47.9101562,39.5566469 47.9101562,38.9906311 L47.9101562,37.0093689 C47.9101562,36.4519099 47.4674959,36 46.9111997,36 L45.9091128,36 Z M40.9091128,36 C40.3574043,36 39.9101562,36.4433532 39.9101562,37.0093689 L39.9101562,38.9906311 C39.9101562,39.5480902 40.3528166,40 40.9091128,40 L41.9111997,40 C42.4629082,40 42.9101562,39.5566469 42.9101562,38.9906311 L42.9101562,37.0093689 C42.9101562,36.4519099 42.4674959,36 41.9111997,36 L40.9091128,36 Z M40.9091128,36" id="ship" fill="#000000" sketch:type="MSShapeGroup"/>
    </g>
</svg>
