<?xml version="1.0" encoding="utf-8"?>
<!-- Generator: Adobe Illustrator 15.1.0, SVG Export Plug-In . SVG Version: 6.00 Build 0)  -->
<!DOCTYPE svg PUBLIC "-//W3C//DTD SVG 1.1//EN" "http://www.w3.org/Graphics/SVG/1.1/DTD/svg11.dtd">
<svg version="1.1" id="Layer_1" xmlns="http://www.w3.org/2000/svg" xmlns:xlink="http://www.w3.org/1999/xlink" x="0px" y="0px"
	 width="75.775px" height="100px" viewBox="0 0 75.775 100" enable-background="new 0 0 75.775 100" xml:space="preserve">
<path d="M24.964,49.799c-0.46-1.758-0.943-3.517-1.421-5.296C13.313,43.8,5.2,35.306,5.2,24.899c0-10.867,8.833-19.7,19.7-19.7
	s19.667,8.833,19.667,19.7c0,5.99-2.69,11.346-6.91,14.953c0.233,0.606,0.477,1.215,0.71,1.808c0.518,1.318,0.893,2.204,1.324,3.262
	c6.126-4.536,10.108-11.815,10.108-20.023C49.799,11.146,38.653,0,24.899,0C11.147,0,0,11.146,0,24.899
	c0,13.752,11.147,24.899,24.899,24.899C24.921,49.799,24.943,49.799,24.964,49.799z"/>
<path d="M68.398,56.526c-4.626-1.575-11.563-2.507-17.375-2.971c-5.88-0.47-10.561-0.517-10.561-0.517h-0.484l-0.161-0.42
	c0,0-1.964-4.677-4.038-9.947c-2.073-5.27-4.261-11.062-4.747-13.725c-0.448-2.45-0.898-4.423-1.647-5.652
	c-0.75-1.228-1.651-1.83-3.649-1.711c-0.901,0.054-1.403,0.411-1.809,1.001c-0.406,0.591-0.669,1.48-0.775,2.519
	c-0.212,2.078,0.158,4.679,0.419,6.491c1.198,8.289,4.143,16.19,5.749,24.544c0.956,4.972,1.35,10.044,2.261,14.889l0.258,1.453
	l-1.292-0.679c-0.615-0.319-1.045-0.879-1.486-1.55s-0.855-1.488-1.292-2.325c-0.873-1.672-1.802-3.485-2.648-4.489
	c-1.313-1.556-2.935-3.289-4.65-4.327c-1.695-1.026-3.361-1.359-5.167-0.452c-0.799,0.727-1.091,1.383-1.098,2.131
	c-0.009,0.781,0.308,1.688,0.807,2.648c0.997,1.922,2.693,3.958,3.197,6.071c1.255,5.26,4.439,9.369,7.267,13.854
	c2.209,3.508,3.852,7.373,7.266,9.107c4.503,2.289,8.42,5.905,12.887,6.653c5.423,0.908,11.486,1.18,16.696,0.484
	c5.163-0.689,9.409-2.377,11.399-5.07C77.993,77.223,75.297,65.953,68.398,56.526z"/>
</svg>
