<svg xmlns="http://www.w3.org/2000/svg" xmlns:xlink="http://www.w3.org/1999/xlink" version="1.1" id="Layer_1" x="0px" y="0px" width="100px" height="100px" viewBox="0 0 100 100" enable-background="new 0 0 100 100" xml:space="preserve">
<g>
	<path fill="#000000" d="M86.788,66.059l-0.128,0.152c1.021-4.08,1.579-8.389,1.579-12.852c0-12.669-4.41-24.138-11.542-32.441   C73.165,8.88,62.054,0.082,48.874,0.082c-13.112,0-24.179,8.7-27.773,20.638C13.867,29.039,9.38,40.589,9.38,53.359   c0,4.431,0.55,8.708,1.556,12.762c-0.341,1.062-5.382,16.597-8.947,17.872c0,0,12.769,11.489,31.888,11.842   c4.606,2.195,9.646,3.415,14.931,3.415s10.322-1.22,14.93-3.414c19.189-0.301,32.018-11.843,32.018-11.843   C92.064,82.673,86.788,66.059,86.788,66.059z M48.874,2.734c14.237,0,25.783,11.543,25.783,25.783c0,0.142-0.013,0.278-0.016,0.42   H23.106c-0.003-0.142-0.016-0.278-0.016-0.42C23.091,14.277,34.633,2.734,48.874,2.734z M48.809,96.196   c-19.794,0-35.844-18.679-35.844-41.721c0-0.167,0.007-0.334,0.011-0.503c1.814,0.329,3.671,0.503,5.563,0.503   c12.737,0,23.913-7.736,30.272-19.385c6.359,11.649,17.535,19.385,30.269,19.385c1.893,0,3.752-0.174,5.565-0.503   c0.004,0.169,0.012,0.336,0.012,0.503C84.656,77.518,68.605,96.196,48.809,96.196z"/>
	<polygon fill="#000000" points="46.789,23.618 50.958,23.618 50.958,17.918 56.655,17.918 56.655,13.749 50.958,13.749    50.958,8.053 46.789,8.053 46.789,13.749 41.091,13.749 41.091,17.918 46.789,17.918  "/>
</g>
</svg>
